<svg xmlns="http://www.w3.org/2000/svg" width="578.78" height="581.51" viewBox="0 0 578.78 581.51"><defs><style>.cls-1{isolation:isolate;}.cls-2{fill:#fff;}.cls-3{fill:#48a3d0;}.cls-4{fill:#fb5466;}.cls-5{fill:#ffce03;}.cls-6{fill:#f9324f;}.cls-7{fill:#fecd06;}.cls-8{fill:#51aad2;opacity:0.5;mix-blend-mode:multiply;}</style></defs><title>Beach Ball 2</title><g class="cls-1"><g id="Layer_1" data-name="Layer 1"><path class="cls-2" d="M363.29,545.94l.26-1.13a45.09,45.09,0,0,0,10.06,1.13c14.81,0,28-7.25,36.79-18.66,0,0,156.74,76.88,272.29,241.39a288.82,288.82,0,0,1-253,88.81h0C327.8,832.53,363.29,545.94,363.29,545.94Z" transform="translate(-182.24 -279)"/><path class="cls-2" d="M510.49,281.6c103.72,14,190,83.13,228.63,177.14-77.29-70.67-319.87,20.13-319.87,20.13h0c-4.71-16.31-16.76-29.11-32-34,0,0,30.87-165.68,123.15-163.3Z" transform="translate(-182.24 -279)"/><path class="cls-2" d="M334.49,464.77a54.19,54.19,0,0,0-8.64,29.59,55.25,55.25,0,0,0,4.41,21.69s-123,44.07-136.71,134.49a292.58,292.58,0,0,1,49.14-258.66S265.31,438,334.49,464.77Z" transform="translate(-182.24 -279)"/><path class="cls-3" d="M739.12,458.74a291.93,291.93,0,0,1-56.43,309.93C567.14,604.16,410.4,527.28,410.4,527.28a54,54,0,0,0,11-32.92,55.64,55.64,0,0,0-2.2-15.49h0S661.83,388.07,739.12,458.74Z" transform="translate(-182.24 -279)"/><path class="cls-4" d="M330.26,516.05c6.26,14.49,18.48,25.33,33.29,28.76l-.26,1.13S327.8,832.53,429.7,857.48C316.57,841,224.64,758.69,193.55,650.54,207.24,560.12,330.26,516.05,330.26,516.05Z" transform="translate(-182.24 -279)"/><path class="cls-5" d="M510.36,281.6c-92.28-2.38-123.15,163.3-123.15,163.3a44.14,44.14,0,0,0-13.6-2.13c-16.19,0-30.49,8.68-39.12,22-69.18-26.73-91.8-72.89-91.8-72.89C295.63,323.21,378.49,279,471.63,279A286.63,286.63,0,0,1,510.36,281.6Z" transform="translate(-182.24 -279)"/><path class="cls-2" d="M419.21,478.87a55.64,55.64,0,0,1,2.2,15.49,54,54,0,0,1-11,32.92c-8.77,11.41-22,18.66-36.79,18.66a45.09,45.09,0,0,1-10.06-1.13c-14.81-3.43-27-14.27-33.29-28.76a55.25,55.25,0,0,1-4.41-21.69,54.19,54.19,0,0,1,8.64-29.59c8.63-13.32,22.93-22,39.12-22a44.14,44.14,0,0,1,13.6,2.13C402.45,449.76,414.5,462.56,419.21,478.87Z" transform="translate(-182.24 -279)"/><path class="cls-2" d="M363.29,545.94l.26-1.13a45.09,45.09,0,0,0,10.06,1.13c14.81,0,28-7.25,36.79-18.66,0,0,156.74,76.88,272.29,241.39a288.82,288.82,0,0,1-253,88.81h0C327.8,832.53,363.29,545.94,363.29,545.94Z" transform="translate(-182.24 -279)"/><path class="cls-2" d="M334.49,464.77a54.19,54.19,0,0,0-8.64,29.59,55.25,55.25,0,0,0,4.41,21.69s-123,44.07-136.71,134.49a292.58,292.58,0,0,1,49.14-258.66S265.31,438,334.49,464.77Z" transform="translate(-182.24 -279)"/><path class="cls-6" d="M330.26,516.05c6.26,14.49,18.48,25.33,33.29,28.76l-.26,1.13S327.8,832.53,429.7,857.48C316.57,841,224.64,758.69,193.55,650.54,207.24,560.12,330.26,516.05,330.26,516.05Z" transform="translate(-182.24 -279)"/><path class="cls-7" d="M510.36,281.6c-92.28-2.38-123.15,163.3-123.15,163.3a44.14,44.14,0,0,0-13.6-2.13c-16.19,0-30.49,8.68-39.12,22-69.18-26.73-91.8-72.89-91.8-72.89C295.63,323.21,378.49,279,471.63,279A286.63,286.63,0,0,1,510.36,281.6Z" transform="translate(-182.24 -279)"/><path class="cls-8" d="M377.13,533.85c-14.81-3.43-27-14.27-33.29-28.76a55.25,55.25,0,0,1-4.41-21.69,54.19,54.19,0,0,1,8.64-29.59,50.56,50.56,0,0,1,4.24-5.58,49.16,49.16,0,0,0-17.82,16.54,54.19,54.19,0,0,0-8.64,29.59,55.25,55.25,0,0,0,4.41,21.69c6.26,14.49,18.48,25.33,33.29,28.76a45.09,45.09,0,0,0,10.06,1.13c13.76,0,26.1-6.31,34.81-16.35a44.76,44.76,0,0,1-31.29,4.26Z" transform="translate(-182.24 -279)"/></g></g></svg>