<svg id="Layer_1" data-name="Layer 1" xmlns="http://www.w3.org/2000/svg" width="766.23" height="324.96" viewBox="0 0 766.23 324.96"><defs><style>.cls-1{fill:#2886a3;}</style></defs><title>Bird Siluet 2</title><path class="cls-1" d="M846,640.44C735.09,566,594.27,514.27,477.51,580.87c-57.7-137.53-235.06-190-332.32-188-18.78.39-25.35,6.61-26.42,10.24a7.13,7.13,0,0,0,5.06,9.33C273.7,460.1,358.68,565.78,419.63,704.72c6.64,15.15,27.89,16.83,39.13,6.66C581.28,600.57,737.54,628.86,876.86,685c2.88,1.19,5.59-.4,7.06-2.77C889.5,673.25,860.16,649.62,846,640.44Z" transform="translate(-118.39 -392.85)"/></svg>