<svg id="Layer_1" data-name="Layer 1" xmlns="http://www.w3.org/2000/svg" width="653.62" height="410.41" viewBox="0 0 653.62 410.41"><defs><style>.cls-1{fill:#2886a3;}</style></defs><title>Bird Siluet 1</title><path class="cls-1" d="M771.74,307.1C652.08,345.71,531.85,419.68,513.06,544.76,377.82,507.3,235.75,607.84,180.59,680.89c-10.65,14.1-9.88,22.57-7.82,25.49a6.71,6.71,0,0,0,9.85,1.68c122.48-83,250.08-84.26,388.27-48.38,15.06,3.91,28.68-10.82,27.71-25-10.53-155.09,101.38-254.1,224-324.35,2.56-1.44,3-4.37,2.07-6.84C821.29,294.09,786.74,302,771.74,307.1Z" transform="translate(-171.51 -299.1)"/></svg>