<svg xmlns="http://www.w3.org/2000/svg" width="1056.14" height="246.89" viewBox="0 0 1056.14 246.89"><defs><style>.cls-1{isolation:isolate;}.cls-2,.cls-41{fill:#11193f;}.cls-10,.cls-3{fill:#ffda24;}.cls-29,.cls-4{fill:#d64625;}.cls-5{fill:#08456b;}.cls-6{fill:#f77957;}.cls-19,.cls-7{fill:#dd6637;}.cls-8{fill:#e25023;}.cls-9{fill:#ef703f;}.cls-10,.cls-12,.cls-16,.cls-19,.cls-22,.cls-29,.cls-39,.cls-41{mix-blend-mode:multiply;}.cls-11{fill:#ff1515;}.cls-12,.cls-17{fill:#af1e1e;}.cls-13{fill:#1c0c06;}.cls-14{fill:#172438;}.cls-15{fill:#f28c5a;}.cls-18{fill:#fff;}.cls-19,.cls-22,.cls-40,.cls-41{opacity:0.5;}.cls-20{fill:#4e1b64;}.cls-21,.cls-22{fill:#0f6cc0;}.cls-23{fill:#5e220d;}.cls-24{fill:#3a1810;}.cls-25{fill:#0a1014;}.cls-26{fill:#fffdfd;}.cls-27{fill:#8e321c;}.cls-28{fill:#0c5b96;}.cls-29{opacity:0.4;}.cls-30{fill:#1e0d07;}.cls-31{fill:#2d140a;}.cls-32{fill:#eac62f;}.cls-33{fill:#161f5c;}.cls-34{fill:#202135;}.cls-35{fill:#5e789e;}.cls-36{fill:#22334e;}.cls-37{fill:#111419;}.cls-38,.cls-39,.cls-40{fill:#cbcfc8;}.cls-40{mix-blend-mode:color-dodge;}</style></defs><title>Boat 2</title><g class="cls-1"><g id="Layer_1" data-name="Layer 1"><path class="cls-2" d="M738.18,545.44a3.36,3.36,0,1,1-3.36-3.2A3.28,3.28,0,0,1,738.18,545.44Z" transform="translate(-18.47 -376.9)"/><rect class="cls-3" x="463.2" y="554.93" width="270.99" height="1.51" transform="translate(-58.13 -330.84) rotate(-4.26)"/><path class="cls-4" d="M859.46,504.29c0-.48-.18,0-.46-.13l-7.49-1c-5.67.94-9.35-.51-20.66.44-3.33.28-15.54,3.33-17.26,6.73-1.21,2.39,8.9,37.18,8.28,41.36,1.62.46,3.62-.31,5.33-.27a39.56,39.56,0,0,1,1.59-16.59c1.6-5.53,1.4-12.62-2.49-17.06,6.55,2,15.33,3.31,22.2,1.43C857,516.93,857.23,512.34,859.46,504.29Z" transform="translate(-18.47 -376.9)"/><path class="cls-5" d="M852.73,505.43c-2.83-1.44-2-2.52-5-3.38-7.46-2.12-18.46,1.62-18.46,1.62a17.22,17.22,0,0,1,6.09,5.37c1.93,2.65,2,5.25,2.9,8.07C839.41,515,860.92,509.59,852.73,505.43Z" transform="translate(-18.47 -376.9)"/><path class="cls-6" d="M852.21,458l-.67,5.62-1,8.21c-1.88,5.11-1.94,10.34-4.9,15.22-.65,1.08-1.36,3.07-2.42,4.19a2.68,2.68,0,0,1-.93.67,2,2,0,0,1-.52.14c-1.42.19-3.75-.58-4.24-1.77-.74-1.72.13-4.28.86-6.3.2-.56.39-1.08.53-1.54.91-2.87,2.19-5.63,3.28-8.53,1.25-3.31,2.24-6.89,4.07-9.91a16.66,16.66,0,0,1,2.92-3.75C849.86,459.63,852,458.54,852.21,458Z" transform="translate(-18.47 -376.9)"/><path class="cls-6" d="M843.76,489l-.58.28s-.71-1.32-1.55-3c-.57-1.13-1.21-2.41-1.72-3.53a20.9,20.9,0,0,0,1.91-1.56l.53,1.09,2.13,4.37C844.26,487.48,844,488.26,843.76,489Z" transform="translate(-18.47 -376.9)"/><path class="cls-6" d="M844.48,486.73c-.22.75-.46,1.53-.73,2.32a19,19,0,0,0-.5,2.16,11.82,11.82,0,0,1-.72,2.7c-.8,1.62-5.46,7.77-8.64,11.89l-1.07,1.37c-.65.84-2.21,2.43-2.35,2.72-.23-.91-2.82-2.22-3.37-2.89a60.69,60.69,0,0,0,3-6.2c1.25-3.92,2.65-8.48,3.33-9.95a18.24,18.24,0,0,1,4-6c.34-.3.69-.59,1-.86s1-.75,1.49-1.12a20.9,20.9,0,0,0,1.91-1.56l.53,1.09,1.08,2.22Z" transform="translate(-18.47 -376.9)"/><path class="cls-6" d="M830.65,507.26c-.27,1.93-.89,3.26-1.11,5.32-.15,1.44-1.65,3.57-2.79,4a3.57,3.57,0,0,1-.61-1.44c-.63.14-1,.94-1.4.53-.16-.15-1.55-.28-1.66-.44-.43-.66-1.84-.7-1.92-1.63-.18-2,5.64-5.94,6.5-7.37Z" transform="translate(-18.47 -376.9)"/><path class="cls-4" d="M851.54,463.59l-1,8.21c-1.88,5.11-1.94,10.34-4.9,15.22-.65,1.08-1.36,3.07-2.42,4.19a11.82,11.82,0,0,1-.72,2.7c-.8,1.62-5.46,7.77-8.64,11.89,1.37-2.51,2.82-5,4.2-7.42,1.2-2.09,2.82-4.1,3.71-6.36a8.94,8.94,0,0,0,.66-3.14,8.69,8.69,0,0,1-2.6,0c2-.51,3-2.23,3.57-4.29.67-2.29.83-5,1.22-6.89.56-2.69,1.41-5.33,2.2-8s3.58-6.46,3.51-8.86Z" transform="translate(-18.47 -376.9)"/><path class="cls-7" d="M913.48,517.64l-.12,0a22.09,22.09,0,0,1-6.26.77c-6.13,0-13.27-1.6-18.08-2.88,4.11,4.18,6.93,12.46,5.61,17.87a37.35,37.35,0,0,0-.73,16.14c-1.71,0-3.66.83-5.3.43.4-4.06-13.71-37.7-12.63-40.05,1.23-2.68,10.66-5.23,16-6.33,1.33-.27,2.42-.46,3.07-.53a108.58,108.58,0,0,1,15-.61h1.4l.68,0h0l.68,0,.65-.06h.13l.61-.08.5-.07.41-.07.52-.09,5.41.49,2.1.19c.28.08.45-.36.46.1-.3,1.3-.55,2.51-.79,3.63C921.59,512.09,920.41,515.54,913.48,517.64Z" transform="translate(-18.47 -376.9)"/><path class="cls-8" d="M979.49,517.93h-.12a22,22,0,0,1-6.3-.25c-6.05-1-12.84-3.72-17.38-5.76,3.38,4.79,4.83,13.42,2.65,18.54A37.52,37.52,0,0,0,955,546.28c-1.69-.26-3.74.24-5.29-.43,1-3.94-8.71-35.72-6.12-39.62,1.63-2.46,11.48-5.38,17-5.6,1.36-.06,2.46-.06,3.11,0a110.4,110.4,0,0,1,14.89,1.82c.19,0,.39.06.58.09l.49.07.31,0,.68.08h0c.23,0,.46,0,.69.06l.65.05h.13l.61,0h1.45l5.26,1.36,2,.53c.27.12.5-.29.44.18-.51,1.23-.95,2.38-1.37,3.45C988.39,513.76,986.67,517,979.49,517.93Z" transform="translate(-18.47 -376.9)"/><path class="cls-9" d="M980.41,464.57l-1.5,4.53-2.11,7.18c-2.45,4.27-3.29,8.93-6.67,12.84a21.45,21.45,0,0,1-2.79,3.37,2.35,2.35,0,0,1-.94.46,1.83,1.83,0,0,1-.48,0c-1.3,0-3.26-1.08-3.52-2.21-.4-1.65.77-3.8,1.72-5.5.27-.47.52-.91.71-1.29,1.24-2.43,2.8-4.7,4.22-7.12,1.61-2.76,3-5.81,5.13-8.23a12.66,12.66,0,0,1,3.17-2.9C979.75,464.37,980.17,465.06,980.41,464.57Z" transform="translate(-18.47 -376.9)"/><path class="cls-6" d="M968.11,490.64l-.55.15s-.44-1.28-.94-2.87c-.34-1.09-.72-2.34-1-3.41a18.41,18.41,0,0,0,1.94-1.11l.31,1.05,1.24,4.23C968.8,489.31,968.47,490,968.11,490.64Z" transform="translate(-18.47 -376.9)"/><path class="cls-9" d="M969.11,488.68c-.31.63-.64,1.3-1,2a16.82,16.82,0,0,0-.77,1.85,10.72,10.72,0,0,1-1.06,2.31c-.95,1.31-6,6.1-9.51,9.29l-1.15,1.07c-.72.65-2.35,1.83-2.52,2.07-.06-.85-2.18-2.41-2.57-3.09a56.64,56.64,0,0,0,3.59-5.08c1.71-3.31,3.65-7.17,4.48-8.38a16.47,16.47,0,0,1,4.46-4.79c.34-.22.7-.42,1.06-.61s1-.52,1.5-.77a18.34,18.34,0,0,0,1.94-1.1l.31,1,.63,2.15Z" transform="translate(-18.47 -376.9)"/><path class="cls-9" d="M953.66,504.9c-.54,1.69-1.29,2.79-1.79,4.59a5.24,5.24,0,0,1-3.09,3.11,3,3,0,0,1-.33-1.37c-.58,0-1,.69-1.33.25-.12-.16-1.34-.48-1.41-.64-.29-.65-1.55-.9-1.47-1.74.15-1.86,5.93-4.45,6.91-5.6Z" transform="translate(-18.47 -376.9)"/><path class="cls-8" d="M978.91,469.1l-2.11,7.18c-2.45,4.27-3.29,8.93-6.67,12.84a21.45,21.45,0,0,1-2.79,3.37,10.72,10.72,0,0,1-1.06,2.31c-.95,1.31-6,6.1-9.51,9.29,1.6-2,3.28-4,4.88-6,1.38-1.68,3.13-3.23,4.27-5.12a7.86,7.86,0,0,0,1.06-2.7,8,8,0,0,1-2.32-.4c1.83-.16,3-1.54,3.84-3.29,1-1.94,1.49-4.33,2.13-6,.91-2.32,2.07-4.55,3.17-6.8s4.17-5.22,4.48-7.38Z" transform="translate(-18.47 -376.9)"/><path class="cls-3" d="M1060,543.56c-.36.8-.75,1.62-1.17,2.47-8.28,16.76-173.46,46.59-244.65,35.13-38.89-6.25-66.13-20.91-85.46-31.67l-6.48-3.61c-.87-.48-1.66-1-2.37-1.45l-.73-.53-.38-.29-.35-.29-.35-.28c-.22-.2-.43-.39-.63-.59l-.3-.29q-.42-.43-.78-.87a7.8,7.8,0,0,1-.56-.76l-.19-.29-.17-.3-.17-.3c0-.1-.09-.2-.14-.29s-.15-.36-.21-.53a1.76,1.76,0,0,1-.1-.3,4.48,4.48,0,0,1-.12-.46,1.29,1.29,0,0,1,0-.19v0c0-.09,0-.18,0-.27a5.54,5.54,0,0,1-.05-.56,1.93,1.93,0,0,1,0-.24,1.62,1.62,0,0,1,0-.38,6,6,0,0,1,1.77-3.59c.18-.19.37-.36.57-.54a18.41,18.41,0,0,1,8.33-3.61l4.34-.86c16.49-3.14,38.83-5.94,67.33-8.28l1.18-.09q28.39-2.31,65-4c85.22-3.82,149.78.27,170,2.52,1.75.19,3.4.4,5,.62l1.56.23c6.78,1,11.86,2.4,15.5,4.12C1064.1,527.19,1064.41,533.7,1060,543.56Z" transform="translate(-18.47 -376.9)"/><path class="cls-2" d="M728.73,549.49l-6.48-3.61c-.86-.48-1.66-1-2.37-1.45-.25-.18-.5-.35-.73-.53s-.25-.19-.37-.29a3.51,3.51,0,0,1-.36-.29l-.34-.28c-.23-.2-.44-.39-.64-.59l-.29-.28c-.29-.3-.55-.59-.79-.88s-.39-.5-.56-.76l-.19-.29-.18-.3-.16-.3-.14-.29c-.08-.18-.15-.36-.21-.53a1.76,1.76,0,0,1-.1-.3c-.05-.16-.09-.31-.13-.46l0-.19a2.93,2.93,0,0,1,0-.29,5.27,5.27,0,0,1,0-.56,1,1,0,0,1,0-.24,2.41,2.41,0,0,1,0-.38,6,6,0,0,1,1.78-3.59c.18-.19.37-.36.57-.54a18.41,18.41,0,0,1,8.33-3.6c1.43-.3,2.88-.59,4.34-.87a49.37,49.37,0,0,1,.62,12.46A46.49,46.49,0,0,1,728.73,549.49Z" transform="translate(-18.47 -376.9)"/><path class="cls-10" d="M1060,543.56c-.36.8-.75,1.62-1.17,2.47-8.28,16.76-173.46,46.59-244.65,35.13-38.89-6.25-66.12-20.91-85.46-31.67l-6.48-3.61c-.86-.48-1.66-1-2.37-1.45-.25-.18-.5-.35-.73-.53s-.25-.19-.37-.29a3.51,3.51,0,0,1-.36-.29l-.34-.28c-.23-.2-.44-.39-.64-.59l-.29-.28c-.29-.3-.55-.59-.79-.88s-.39-.5-.56-.76l-.19-.29-.18-.3-.16-.3-.14-.29c-.08-.18-.15-.36-.21-.53a1.76,1.76,0,0,1-.1-.3c-.05-.16-.09-.31-.13-.46l0-.19a2.93,2.93,0,0,1,0-.29,5.27,5.27,0,0,1,0-.56,1,1,0,0,1,0-.24,2.41,2.41,0,0,1,0-.38c4.7,1.35,10.1,2.66,15.64,3.86,12.53,2.73,61.19,17.91,83.92,21.62,61.74,10.07,144.8,3,206.08-8.57C1033.52,550.8,1046.8,547.06,1060,543.56Z" transform="translate(-18.47 -376.9)"/><path class="cls-11" d="M1074.06,562.77c-2.9,5.52-12.68,11.12-15,11.7s-163.43,19.38-202.17,11.19A104.09,104.09,0,0,1,822.62,572a50.37,50.37,0,0,1-4.43-3.11,7.75,7.75,0,0,1-1-3.48c0-1.83,1.09-3.76,5.37-4.13l1.91-.15c23-1.68,221.27-14.83,232.15-13.64,9.4,1,17.19,7,17.92,12.22A5,5,0,0,1,1074.06,562.77Z" transform="translate(-18.47 -376.9)"/><path class="cls-2" d="M822.62,572a50.37,50.37,0,0,1-4.43-3.11s-4.1-6.87,4.38-7.61l1.91-.15A22.42,22.42,0,0,1,822.62,572Z" transform="translate(-18.47 -376.9)"/><path class="cls-12" d="M1074.06,562.77c-2.9,5.52-12.68,11.12-15,11.7s-163.43,19.38-202.17,11.19A104.09,104.09,0,0,1,822.62,572a50.37,50.37,0,0,1-4.43-3.11,7.75,7.75,0,0,1-1-3.48c6.47,3.37,15.42,4.38,21.64,5.44,12.91,2.2,220-6.19,232.21-10,1.16-.35,2.33-.74,3.5-1.16A5,5,0,0,1,1074.06,562.77Z" transform="translate(-18.47 -376.9)"/><path class="cls-13" d="M996.32,462.53c1.91,1.81,4.32,2.93,6.7,1-5.93.46-5.6-5.2-4.19-9.54,1.57-4.85,2.64-9.17-1.09-13.37l-4.65,6.59c-1.33,4.91-5.86,9.58-3.77,14.68,1.33,3.24,8.73,13.05,11.73,9.69C998.77,471.8,996,465.14,996.32,462.53Z" transform="translate(-18.47 -376.9)"/><path class="cls-14" d="M828.5,514.82c2,.54,2.54,2.29,2.61,4.21l2.51.15c-.12-3.19-1.06-6-4.91-7-4.48-1.2-11.39.05-11.35,5.83l2.62-.18C820,513.64,825.59,514,828.5,514.82Z" transform="translate(-18.47 -376.9)"/><path class="cls-14" d="M888.33,511.92c2,.53,2.53,2.29,2.6,4.21l2.52.14c-.12-3.19-1.06-6-4.91-7-4.48-1.21-11.4.05-11.35,5.83l2.62-.18C879.82,510.74,885.41,511.14,888.33,511.92Z" transform="translate(-18.47 -376.9)"/><path class="cls-10" d="M1060,543.56c-.36.8-.75,1.62-1.17,2.47-8.28,16.76-173.46,46.59-244.65,35.13-38.89-6.25-66.13-20.91-85.46-31.67l-6.48-3.61c-.87-.48-1.66-1-2.37-1.45l-.73-.53-.38-.29-.35-.29-.35-.28c-.22-.2-.43-.39-.63-.59l-.3-.29q-.42-.43-.78-.87a7.8,7.8,0,0,1-.56-.76l-.19-.29-.17-.3-.17-.3c0-.1-.09-.2-.14-.29s-.15-.36-.21-.53a1.76,1.76,0,0,1-.1-.3,4.48,4.48,0,0,1-.12-.46,1.29,1.29,0,0,1,0-.19v0l.41-2.52c2.66,1.91,7.89,1.4,11.52,1.79,5,.54,10,1.57,14.93,2.3,14.07,2.09,28,4,42.26,5.46,40,4.13,80.6,5.77,120.76,3.19,36.75-2.36,74.71-5.16,110.43-14.4,12.77-3.31,26.77-6.44,40.21-10.72C1064.1,527.19,1064.41,533.7,1060,543.56Z" transform="translate(-18.47 -376.9)"/><path class="cls-14" d="M952.25,511c2,.53,2.54,2.28,2.61,4.2l2.51.15c-.12-3.19-1.06-6-4.91-7-4.48-1.21-11.39,0-11.35,5.83l2.62-.19C943.74,509.84,949.33,510.24,952.25,511Z" transform="translate(-18.47 -376.9)"/><path class="cls-15" d="M909.86,460.6l-.39,5.11-.57,7.46c-1.51,4.69-1.36,9.42-3.85,13.95a21.56,21.56,0,0,1-2,3.87,2.38,2.38,0,0,1-.82.65,1.55,1.55,0,0,1-.46.14c-1.28.23-3.41-.38-3.91-1.43-.73-1.53,0-3.88.54-5.73.17-.52.32-1,.43-1.41.7-2.64,1.76-5.18,2.64-7.84,1-3.05,1.76-6.32,3.3-9.12a14.77,14.77,0,0,1,2.5-3.5C907.8,462.19,909.72,461.12,909.86,460.6Z" transform="translate(-18.47 -376.9)"/><g class="cls-16"><path class="cls-17" d="M845.36,540.59a3,3,0,1,1-2.85-3.2A3,3,0,0,1,845.36,540.59Z" transform="translate(-18.47 -376.9)"/></g><g class="cls-16"><path class="cls-17" d="M892,538.14a3,3,0,1,1-2.85-3.2A3,3,0,0,1,892,538.14Z" transform="translate(-18.47 -376.9)"/></g><g class="cls-16"><path class="cls-17" d="M940,536a3,3,0,1,1-2.84-3.2A3,3,0,0,1,940,536Z" transform="translate(-18.47 -376.9)"/></g><g class="cls-16"><path class="cls-17" d="M987.73,532.77a3,3,0,1,1-2.85-3.2A3,3,0,0,1,987.73,532.77Z" transform="translate(-18.47 -376.9)"/></g><g class="cls-16"><path class="cls-17" d="M1032.3,531.33a3,3,0,1,1-2.84-3.2A3,3,0,0,1,1032.3,531.33Z" transform="translate(-18.47 -376.9)"/></g><path class="cls-18" d="M1029.17,532.15a28.07,28.07,0,0,1-12.45,11.21c-3.46,1.65-7.39,3.08-11.28,2.63-7.56-.88-17.79-4.43-20.74-12.2-6.53,17.6-39.17,21.12-47.52,3.54-1.45,9.29-11.57,14-20.23,14.76-10.77,1-22-3.63-27.76-13-1.37,10.05-12.49,15.4-21.86,15.52-8.37.1-22.24-3.7-24.78-13.06-5,9.56-18.36,16.2-27.64,8.18-6.46-5.58-6.55-14-10.17-21.14a25.72,25.72,0,0,0-7.81-9.12l1.18-.09a24.29,24.29,0,0,1,3.47,3.25,26.12,26.12,0,0,1,5.14,8.79c1.35,3.87,2.15,8,4,11.66,3.27,6.33,9.48,10.54,16.81,9.14a20.47,20.47,0,0,0,14.77-11.93c.15-.32.67-.36.73,0,.85,5,5.47,8.31,9.77,10.28a32.73,32.73,0,0,0,14.55,3.24c9.32-.33,20.56-5.43,21.19-16a.38.38,0,0,1,.71-.15c5.35,9.66,17,14.83,27.9,13.51,8.64-1,18.86-5.57,19.4-15.47,0-.36.58-.51.72-.15,7.23,18.8,41.53,15.16,47.05-3.21a.38.38,0,0,1,.73,0c2.24,8.15,13.13,12.13,20.76,12.76,3.82.31,7.78-1.12,11.11-2.86A27.4,27.4,0,0,0,1029,531c.16-.31.62-.16.69.13,1.16,5.08,6.85,7.48,11.66,6.26,6-1.53,6.57-7.28,3.66-12.1a19.2,19.2,0,0,0-6.86-6.64l1.56.23c3.77,2.46,6.87,5.89,7.72,10.44C1049.45,540.22,1032.33,541.17,1029.17,532.15Z" transform="translate(-18.47 -376.9)"/><path class="cls-6" d="M903.39,489l-.51.27s-.69-1.16-1.51-2.62c-.56-1-1.19-2.13-1.69-3.12a18.31,18.31,0,0,0,1.66-1.49l.53,1L904,486.9C903.79,487.58,903.6,488.3,903.39,489Z" transform="translate(-18.47 -376.9)"/><path class="cls-15" d="M904,486.9c-.17.68-.36,1.4-.57,2.12a17.07,17.07,0,0,0-.37,2,11,11,0,0,1-.55,2.48c-.66,1.49-4.65,7.23-7.37,11.08l-.91,1.28c-.56.78-1.91,2.28-2,2.55-.24-.82-2.63-1.9-3.16-2.49a54.69,54.69,0,0,0,2.45-5.72c1-3.59,2.07-7.76,2.64-9.12a16.53,16.53,0,0,1,3.36-5.62c.29-.28.6-.55.91-.81s.87-.72,1.31-1.07a19.85,19.85,0,0,0,1.66-1.48l.53,1,1.06,2Z" transform="translate(-18.47 -376.9)"/><path class="cls-15" d="M892.23,506c-.17,1.76-.68,3-.8,4.86a5.24,5.24,0,0,1-2.37,3.68,3.13,3.13,0,0,1-.61-1.27c-.56.14-.83.88-1.24.52-.15-.13-1.42-.19-1.52-.33-.42-.58-1.7-.56-1.8-1.4-.24-1.84,4.87-5.59,5.59-6.91Z" transform="translate(-18.47 -376.9)"/><path class="cls-15" d="M932.77,506.55c-.47,3.34-1.95,5.91-6.4,8.46l-.1,0a22.35,22.35,0,0,1-5.93,2.16c-6,1.38-13.3,1.43-18.27,1.26,4.94,3.15,9.55,10.58,9.48,16.15a37.57,37.57,0,0,0,2.92,15.9h-.05a8.76,8.76,0,0,0-1.19.4,10.48,10.48,0,0,1-3.83,1.19,2.77,2.77,0,0,0-.16-.61c-2-5.79-21.65-33.14-21.15-35.57.59-2.89,9.21-7.5,14.22-9.78,1.23-.57,2.25-1,2.87-1.21a109.57,109.57,0,0,1,14.46-4l.58-.14.48-.12.3-.08.65-.18h0l.66-.2.62-.21.12,0,.57-.21.48-.18.38-.16.49-.21,5.38-.74,2.09-.28c.29,0,.35-.45.47,0,0,1.33,0,2.56,0,3.71A31.5,31.5,0,0,1,932.77,506.55Z" transform="translate(-18.47 -376.9)"/><path class="cls-11" d="M932.77,506.55c-.47,3.34-1.95,5.91-6.4,8.46l-.1,0a9.14,9.14,0,0,0,.32-3.53c-.3-2.79-2-6.09-6.44-9.57-.28-.21-.33-.65-.51-1l.58-.14.48-.12.3-.08.65-.18h0l.66-.2.62-.21.12,0,.57-.21.48-.18.38-.16.49-.21,5.38-.74A7.43,7.43,0,0,1,933,502,31.5,31.5,0,0,1,932.77,506.55Z" transform="translate(-18.47 -376.9)"/><path class="cls-15" d="M916.55,554.9a6.88,6.88,0,0,1-1.88.34c-3.15.27-10.54,2.2-13.76.82,0-.6,5.51-2.91,8.33-4.54,1.22-.71,1.93-1.29,1.43-1.54l1.54-.52.56-.19a5.42,5.42,0,0,1,1.65,1.27c.58.64,1.07,1.38,1.71,2.1C917.23,553.9,917.4,554.54,916.55,554.9Z" transform="translate(-18.47 -376.9)"/><path class="cls-19" d="M932.77,506.55c-.47,3.34-1.95,5.91-6.4,8.46l-.1,0a22.35,22.35,0,0,1-5.93,2.16c-6,1.38-13.3,1.43-18.27,1.26,4.94,3.15,9.55,10.58,9.48,16.15a37.57,37.57,0,0,0,2.92,15.9h-.05c.58.64,1.07,1.38,1.71,2.1,1.1,1.26,1.27,1.9.42,2.26-.69-2-1.91-2.41-3.17-3.79l-.15-.17a8.37,8.37,0,0,1-1-1.48,42.87,42.87,0,0,1-2.88-7.64c-1.71-5.33-.76-10.93-2.81-16.18-1.75-4.51-5.94-8.84-10.89-7.88a6.14,6.14,0,0,0,.63-.31c2.27-1.67,6.32-1.37,9-1.33a41.61,41.61,0,0,0,21.24-4.53l.12-.06C927.92,510.81,931.62,508.47,932.77,506.55Z" transform="translate(-18.47 -376.9)"/><path class="cls-9" d="M997.39,510a8.34,8.34,0,0,1-.59,1.81c-.07.16-.16.32-.25.48h0a4.79,4.79,0,0,1-.44.7,9.77,9.77,0,0,1-3.24,2.69c-.35.19-.72.38-1.11.56s-1.11.49-1.73.72l0,0-.08,0a27.93,27.93,0,0,1-6.64,1.43c-6.66.75-14.77.21-20.27-.34a22.05,22.05,0,0,1,5.17,4.37,23.69,23.69,0,0,1,3.18,4.58q.27.53.51,1.05t.42,1c.06.18.12.35.17.52a9.63,9.63,0,0,1,.52,3.45c0,.1,0,.2,0,.3a27.67,27.67,0,0,0,2.71,14h0a7.78,7.78,0,0,0-.94.18l-.4.09a14,14,0,0,1-4.27.75,2,2,0,0,0-.16-.56c-2.09-5.28-20.47-30.33-20.55-32.53-.2-5.24,8.75-6.47,14.37-8.08,1.38-.41,2.52-.7,3.22-.84A141.29,141.29,0,0,1,983,504.07l.64-.08.54-.08.33,0,.73-.11h0l.74-.12.69-.13.14,0c.21-.05.42-.08.64-.14l.53-.12.43-.11L989,503l6-.23,2.32-.09c.33,0,.41-.37.52,0,0,1.18,0,2.27-.07,3.28A21.31,21.31,0,0,1,997.39,510Z" transform="translate(-18.47 -376.9)"/><path class="cls-20" d="M997.39,510c-.62,2.92-2.35,5.07-7.36,7l-.12,0a6.4,6.4,0,0,0,.48-3.09c-.24-2.48-2-5.53-6.82-9-.3-.22-.34-.61-.53-.89l.64-.08.54-.07.33-.05.73-.1h0l.74-.12.69-.13.14,0,.64-.14.53-.12.43-.11L989,503l6-.23a7.26,7.26,0,0,1,2.77,3.24A22.13,22.13,0,0,1,997.39,510Z" transform="translate(-18.47 -376.9)"/><path class="cls-9" d="M978,551.56c.17.71-12.82,1.61-17.07.85,0-.53,5.73-3.33,8.9-4.55,1.38-.53,2.18-1,1.64-1.24l1.71-.34.64-.13a6.71,6.71,0,0,1,1.78,1.25,11.11,11.11,0,0,1,1.18,1.69A11.62,11.62,0,0,1,978,551.56Z" transform="translate(-18.47 -376.9)"/><path class="cls-19" d="M997.39,510a8.34,8.34,0,0,1-.59,1.81c-.08.17-.16.32-.25.48h0a7.42,7.42,0,0,1-.44.7,9.77,9.77,0,0,1-3.24,2.69c-.35.19-.72.38-1.11.56s-1.1.49-1.73.73h0l-.08,0a27.93,27.93,0,0,1-6.64,1.43c-6.66.75-14.77.21-20.27-.34a22.05,22.05,0,0,1,5.17,4.37,23.69,23.69,0,0,1,3.18,4.58q.27.53.51,1.05t.42,1c.06.18.12.35.17.52a9.61,9.61,0,0,1,.51,3.45v.3a27.67,27.67,0,0,0,2.71,14h0a11.11,11.11,0,0,1,1.18,1.69.35.35,0,0,1-.16.11c-.16-.18-1.1-.93-2-1.62a13.52,13.52,0,0,1-1.48-1.3,35,35,0,0,1-2.93-7c-1.73-4.85-.49-9.72-2.58-14.52-1.79-4.12-6.29-8.29-11.8-7.83.21-.08.52-.13.7-.22,2.58-1.3,7-.71,10-.46a64.25,64.25,0,0,0,10.73.23A58.51,58.51,0,0,0,990.25,514a1,1,0,0,0,.14,0C991.89,513.39,996.05,511.62,997.39,510Z" transform="translate(-18.47 -376.9)"/><path class="cls-21" d="M1002.51,491.8c-.23,1.26-.47,2.49-.72,3.68-.41,2-.85,3.82-1.29,5.46-.08.27-.15.54-.22.8-.3,1.08-.6,2.05-.88,2.88l-.29.83a8.09,8.09,0,0,1-1.07,2.21c-2,2.25-6.67,2.73-10.25,2.74-1,0-2,0-2.72-.08-11.88-.66-16.91-4.79-16.91-4.79-.4-.28-.25-2.41.28-5.59,0-.33.11-.66.17-1s.17-.94.27-1.43.15-.82.23-1.24c.4-2,.89-4.2,1.43-6.49.28-1.19.57-2.39.88-3.6.54-2.14,1.12-4.29,1.71-6.36.35-1.21.69-2.39,1-3.53,1.86-6,3.73-10.72,5-11.3A26.89,26.89,0,0,1,992,463a14.76,14.76,0,0,1,3.8.9,20.88,20.88,0,0,1,6.27,3.38c1.87,2.92,2.19,8.5,1.73,14.61-.09,1.2-.21,2.42-.35,3.65C1003.19,487.64,1002.87,489.76,1002.51,491.8Z" transform="translate(-18.47 -376.9)"/><path class="cls-3" d="M1003.44,485.54A63.37,63.37,0,0,1,995,485c-2.44-.29-4.83-.67-7.14-1a62.34,62.34,0,0,1-14.77-4.17c.35-1.21.7-2.39,1-3.53a58,58,0,0,0,14.29,4.09,86.93,86.93,0,0,0,15.32,1.52C1003.71,483.09,1003.58,484.31,1003.44,485.54Z" transform="translate(-18.47 -376.9)"/><path class="cls-3" d="M1002.51,491.8c-.23,1.26-.47,2.49-.72,3.68a60.46,60.46,0,0,1-9.33-.5c-2.44-.29-4.83-.67-7.15-1a62.34,62.34,0,0,1-14.77-4.18c.28-1.19.57-2.39.88-3.6a57.82,57.82,0,0,0,14.47,4.16C991.42,491.21,997.07,492.11,1002.51,491.8Z" transform="translate(-18.47 -376.9)"/><path class="cls-3" d="M1000.5,500.94c-.08.27-.15.54-.22.8-.3,1.08-.6,2.05-.88,2.88a62.06,62.06,0,0,1-8.95-.5c-2.43-.3-4.83-.68-7.14-1a62,62,0,0,1-14.7-4.15l-.08,0c.12-.46.23-.93.35-1.4.17-.73.35-1.46.54-2.2a58.25,58.25,0,0,0,14.47,4.17C989.41,500.34,995.06,501.25,1000.5,500.94Z" transform="translate(-18.47 -376.9)"/><path class="cls-22" d="M1003.44,485.54c-.25,2.1-.57,4.21-.93,6.26-.23,1.26-.47,2.49-.72,3.68-.48,2.3-1,4.44-1.52,6.27-.4,1.46-.8,2.71-1.16,3.7a8.2,8.2,0,0,1-1.07,2.22c-2,2.24-6.67,2.72-10.25,2.73A59.35,59.35,0,0,0,997.65,490a45.15,45.15,0,0,0,.87-16.86c-.3-1.92-1-7.88-2.73-9.21a20.88,20.88,0,0,1,6.27,3.38c1.87,2.93,2.19,8.5,1.73,14.61C1003.71,483.09,1003.58,484.31,1003.44,485.54Z" transform="translate(-18.47 -376.9)"/><path class="cls-9" d="M995.3,492.34c-1.19,1.53-2.36,2.36-3.34,2-2.06-.66-.73-5.67-1-7.59l-.51-1.7L987,480.44c-.78.09,1.77-8,2.37-9a9.71,9.71,0,0,1,3.63-3.89c3.4-1.81,6-.93,7.88,2.45C1003.38,474.42,999.26,487.26,995.3,492.34Z" transform="translate(-18.47 -376.9)"/><path class="cls-8" d="M995.3,492.34c-1.19,1.53-2.36,2.36-3.34,2-2.06-.66-.73-5.67-1-7.59l-.51-1.7,6.41-7.4c-.84,2.93-3,6.47-3.66,9.93C992.77,490,993.45,492.29,995.3,492.34Z" transform="translate(-18.47 -376.9)"/><path class="cls-9" d="M1000.77,473.57a35.08,35.08,0,0,1-5.23,11.07,40.07,40.07,0,0,1-2.84,3.65c-3.66,4.17-7.47,8.26-12.28,10.91l-.16-.15c-.86-.81-1.84-1.8-2.7-2.7-1.25-1.3-2.24-2.38-2.24-2.38l.37-.6c1.86-2.93,6-4.24,17.46-24C996.94,466.16,1001.41,470.86,1000.77,473.57Z" transform="translate(-18.47 -376.9)"/><path class="cls-9" d="M982.09,497.2c-.63.56-1.23,1.2-1.83,1.85-.76.85-1.52,1.73-2.34,2.49a16.14,16.14,0,0,1-6.25,3.26c-1.47.47-5.81,1.11-9.57,1.72a48.28,48.28,0,0,0-5.78,1.14,5.49,5.49,0,0,0-1.62-2.1c1.69-.55,15.24-10.48,17.42-11.26a23.08,23.08,0,0,1,3.57-.93c.75-.14,1.5-.25,2.21-.34l3.36,3.34Z" transform="translate(-18.47 -376.9)"/><path class="cls-9" d="M956.52,504.44c-1.67.95-4.32.46-6.12,1.39a7.23,7.23,0,0,0-3,4.41c.44.21.45.89,1,.82,0,.75.83.08,1.28.43.17.12,1.27.73,1.43.79a7.14,7.14,0,0,0,3.22.68c1.86-.48,2.45-4.27,3.56-5.69Z" transform="translate(-18.47 -376.9)"/><path class="cls-8" d="M995.54,484.64a40.07,40.07,0,0,1-2.84,3.65c-3.66,4.17-7.47,8.26-12.28,10.91l-.16-.15c-.76.85-1.52,1.73-2.34,2.49a16.14,16.14,0,0,1-6.25,3.26c-1.47.47-5.81,1.11-9.57,1.72,5.77-1.76,17.44-3.83,15.46-10.17h0a8.29,8.29,0,0,1,1.78,1.41c.65-.45,1.29-.9,1.92-1.38a73.09,73.09,0,0,0,8.75-7.91c3.72-3.89,5.7-8.75,8.57-13.07A39.3,39.3,0,0,1,995.54,484.64Z" transform="translate(-18.47 -376.9)"/><path class="cls-7" d="M909.47,465.71l-.57,7.46c-1.51,4.69-1.36,9.42-3.85,13.95a21.56,21.56,0,0,1-2,3.87,11,11,0,0,1-.55,2.48c-.66,1.49-4.65,7.23-7.37,11.08,1.14-2.33,2.37-4.65,3.52-6.87,1-1.93,2.4-3.82,3.12-5.9a8.26,8.26,0,0,0,.48-2.86,7.9,7.9,0,0,1-2.36.09c1.76-.53,2.61-2.13,3.07-4,.52-2.1.56-4.56.84-6.28.41-2.46,1.08-4.88,1.68-7.31s3-6,2.85-8.15Z" transform="translate(-18.47 -376.9)"/><path class="cls-15" d="M986.46,450.9l-2,.15c.14,0,2-.63,2-.63A1.69,1.69,0,0,1,986.46,450.9Z" transform="translate(-18.47 -376.9)"/><path class="cls-9" d="M995.49,463.7c-.67,1.16-3.64-.2-6.49,1.82s-5.81,7.57-7.3,7.05c-.84-.05-.73-6.89-.85-8.23a3.1,3.1,0,0,0,1-.39c1.07-.65,2.4-2.38,2.4-7.46,0-1.57.05-3.34.24-5.44l8.92-.7.35,0-.06.19c-.44,1.57-.37,3.25-1,5.12C990.57,462.25,995.48,463.69,995.49,463.7Z" transform="translate(-18.47 -376.9)"/><path class="cls-8" d="M987.53,462.71a5,5,0,0,1-3.52,2.08,13.91,13.91,0,0,1-2.14-.84c1.07-.65,2.4-2.38,2.4-7.46,1.9-.22,4.59.24,6.12-1.16C990.51,458.27,989.42,460.38,987.53,462.71Z" transform="translate(-18.47 -376.9)"/><path class="cls-21" d="M935.84,484.82c-.1,1.27-.21,2.52-.34,3.73-.21,2-.45,3.89-.72,5.56,0,.28-.09.56-.14.83-.18,1.1-.38,2.09-.57,2.94-.07.31-.14.59-.21.86a8.3,8.3,0,0,1-.83,2.32c-1.74,2.44-6.36,3.39-9.91,3.77-1,.11-2,.17-2.72.21-11.89.57-17.31-3-17.31-3-.42-.23-.5-2.37-.3-5.58,0-.33,0-.67.07-1s.07-1,.11-1.46.07-.83.11-1.26c.19-2,.45-4.27.75-6.6.16-1.21.33-2.44.5-3.67.32-2.19.67-4.38,1-6.5.22-1.24.44-2.45.68-3.62,1.23-6.17,2.61-11.05,3.8-11.76a27,27,0,0,1,12.55-3.29,14.72,14.72,0,0,1,3.87.51,20.82,20.82,0,0,1,6.58,2.71c2.16,2.72,3.06,8.23,3.23,14.35,0,1.21,0,2.43,0,3.67C936.09,480.61,936,482.74,935.84,484.82Z" transform="translate(-18.47 -376.9)"/><path class="cls-13" d="M983.73,437c-3.22,3.41-.62,8.18-1,12.24,1.19-4.86,5.9-6.68,10.26-7.51l2.12-6.88C991.32,435,986.72,433.85,983.73,437Z" transform="translate(-18.47 -376.9)"/><path class="cls-3" d="M936.12,478.49a62.49,62.49,0,0,1-8.42.35c-2.45,0-4.87-.17-7.2-.3a62,62,0,0,1-15.12-2.62c.22-1.24.45-2.45.68-3.62a57.84,57.84,0,0,0,14.63,2.59,86,86,0,0,0,15.4-.07C936.13,476,936.13,477.25,936.12,478.49Z" transform="translate(-18.47 -376.9)"/><path class="cls-3" d="M935.84,484.82c-.1,1.27-.21,2.52-.34,3.73a62.06,62.06,0,0,1-9.33.47c-2.46,0-4.87-.17-7.21-.3a62,62,0,0,1-15.13-2.63c.16-1.21.33-2.44.51-3.67a58.13,58.13,0,0,0,14.81,2.65C924.75,485.37,930.46,485.69,935.84,484.82Z" transform="translate(-18.47 -376.9)"/><path class="cls-3" d="M934.78,494.11c0,.28-.09.56-.14.83-.18,1.1-.38,2.09-.57,2.94a59.69,59.69,0,0,1-9,.43c-2.46,0-4.88-.17-7.21-.3a61.47,61.47,0,0,1-15-2.6l-.08,0c.06-.47.12-.95.19-1.43.1-.74.2-1.49.31-2.24a58.29,58.29,0,0,0,14.82,2.65C923.69,494.66,929.4,495,934.78,494.11Z" transform="translate(-18.47 -376.9)"/><path class="cls-22" d="M936.12,478.49c0,2.12-.13,4.25-.28,6.33-.1,1.27-.21,2.52-.34,3.73-.24,2.34-.54,4.52-.86,6.39-.25,1.49-.52,2.78-.78,3.8a8.3,8.3,0,0,1-.83,2.32c-1.74,2.44-6.35,3.39-9.91,3.77a59.19,59.19,0,0,0,7.69-21.33,44.93,44.93,0,0,0-.87-16.86c-.49-1.88-1.8-7.74-3.66-8.88a20.82,20.82,0,0,1,6.58,2.71c2.16,2.72,3.06,8.23,3.23,14.35C936.13,476,936.13,477.25,936.12,478.49Z" transform="translate(-18.47 -376.9)"/><path class="cls-15" d="M931.32,486.69c-.88,1.73-1.87,2.76-2.89,2.64-2.15-.26-1.81-5.43-2.39-7.27l-.83-1.57-4.31-3.9c-.75.24.18-8.22.58-9.31a9.79,9.79,0,0,1,2.82-4.52c3-2.42,5.7-2.06,8.21.9C935.8,467.55,934.23,480.94,931.32,486.69Z" transform="translate(-18.47 -376.9)"/><path class="cls-7" d="M931.32,486.69c-.88,1.73-1.87,2.76-2.89,2.64-2.15-.26-1.81-5.43-2.39-7.27l-.83-1.57,4.87-8.5c-.26,3-1.68,6.93-1.69,10.45C928.38,484.9,929.49,487,931.32,486.69Z" transform="translate(-18.47 -376.9)"/><path class="cls-15" d="M933.08,467.21a35.17,35.17,0,0,1-3,11.87,39.94,39.94,0,0,1-2.08,4.13c-2.79,4.8-5.75,9.54-10,13.06l-.17-.11c-1-.63-2.16-1.42-3.17-2.13-1.48-1-2.66-1.91-2.66-1.91s.08-.23.25-.66c1.26-3.23,5-5.3,12.53-26.88C927.9,460.68,933.18,464.43,933.08,467.21Z" transform="translate(-18.47 -376.9)"/><path class="cls-15" d="M919.28,494a24.68,24.68,0,0,0-1.43,2.17c-.59,1-1.17,2-1.82,2.88a16.1,16.1,0,0,1-5.52,4.41c-1.34.74-5.49,2.2-9,3.52a46.29,46.29,0,0,0-5.45,2.24,5.58,5.58,0,0,0-2-1.76c1.55-.86,13-13.21,14.93-14.39a22.21,22.21,0,0,1,3.33-1.6c.71-.28,1.42-.53,2.1-.76l3.94,2.64Z" transform="translate(-18.47 -376.9)"/><path class="cls-15" d="M895.58,506c-1.46,1.25-4.15,1.28-5.74,2.53a7.33,7.33,0,0,0-2.09,4.91,2.36,2.36,0,0,0,1.41-.08c.15.74.52.61,1,.87.19.09,1.39.47,1.56.5a7,7,0,0,0,3.29,0c1.73-.83,1.58-4.65,2.4-6.27Z" transform="translate(-18.47 -376.9)"/><path class="cls-7" d="M930.07,479.08a39.94,39.94,0,0,1-2.08,4.13c-2.79,4.8-5.75,9.54-10,13.06l-.17-.11c-.59,1-1.17,2-1.82,2.88a16.1,16.1,0,0,1-5.52,4.41c-1.34.74-5.49,2.2-9,3.52,5.32-2.83,16.38-7.1,13.22-12.94h0a8.09,8.09,0,0,1,2,1c.55-.57,1.09-1.14,1.62-1.72a73.27,73.27,0,0,0,7.06-9.45c2.91-4.53,3.91-9.68,5.9-14.47A38.43,38.43,0,0,1,930.07,479.08Z" transform="translate(-18.47 -376.9)"/><path class="cls-15" d="M919.29,445.45l-2,.16c.15,0,2-.64,2-.63A2.1,2.1,0,0,1,919.29,445.45Z" transform="translate(-18.47 -376.9)"/><path class="cls-15" d="M928.31,458.26c-.66,1.15-3.64-.21-6.49,1.81s-5.8,7.58-7.29,7.06c-2.21-.12-1.07-7.21-1.11-8.16a6.91,6.91,0,0,0,1.39-1.74,17.31,17.31,0,0,0,1.38-2.43,1.09,1.09,0,0,0,.09-.23c.1-.29.2-.61.32-.94.49-1.42,1.1-3.14,1.63-4.68s.91-2.78,1.06-3.5l7-.55.35,0-.06.19c-.44,1.57-.38,3.25-1,5.13C923.4,456.8,928.31,458.24,928.31,458.26Z" transform="translate(-18.47 -376.9)"/><path class="cls-7" d="M924.4,448.46c-1.16,3.44-3.57,8.59-8.16,9.35a4,4,0,0,1-1.43-.58,17.31,17.31,0,0,0,1.38-2.43,1.09,1.09,0,0,0,.09-.23c.1-.29.2-.61.32-.94.49-1.42,1.1-3.14,1.63-4.68Z" transform="translate(-18.47 -376.9)"/><path class="cls-23" d="M924.26,428.33c1.19-1,3.78-3.63,4.08-5.13a27.72,27.72,0,0,1-3,2.78,27.36,27.36,0,0,1-3.39,1.78c-2,.93-4.23,1-6.16,2.06a4.66,4.66,0,0,0-2.5,3.92,9.1,9.1,0,0,0,.7,4.45l5.26-1.25c.56-.63,1.79-.67,2.58-.88a7.51,7.51,0,0,0,2.76-1.32,16.41,16.41,0,0,0,3.64-3.46,6.18,6.18,0,0,1,2.74-2.37c.72-.3,4.77-.74,5.56-.39C933.78,427.11,927.09,427.42,924.26,428.33Z" transform="translate(-18.47 -376.9)"/><path class="cls-23" d="M933.87,428.33l.1.05Z" transform="translate(-18.47 -376.9)"/><path class="cls-15" d="M927.93,446.44c-1.28,2.58-2.83,6-5.2,7.11-1.58.75-5.56,2.62-7.48,1.8-1.69-.76-2.77-3.15-3-5.25a28.63,28.63,0,0,1-.35-4.18,13.4,13.4,0,0,1,.63-3.91l.09-.28.06-.19c.17-.49.37-1,.61-1.52h0l.11-.22h0l0-.08a26.09,26.09,0,0,0,1.09-3.23c1.23-4.22,3.61-4.22,3.61-4.22,3.81-2.57,7.8.06,9.42,1,1.94,1.45,2.33,2.27,2.15,4.92A14.8,14.8,0,0,1,927.93,446.44Z" transform="translate(-18.47 -376.9)"/><path class="cls-7" d="M919.84,443.66a3.08,3.08,0,0,0,.71.79,2.56,2.56,0,0,0,1,.47,2.08,2.08,0,0,0,1.48-.17,3.14,3.14,0,0,0-.36-1.93,1.5,1.5,0,0,0-.21-.24,1.86,1.86,0,0,0-1-.44.61.61,0,0,0-.26,0,4.88,4.88,0,0,0-1.4,1.13C919.47,443.62,919.8,443.6,919.84,443.66Z" transform="translate(-18.47 -376.9)"/><path class="cls-18" d="M919.8,443.82a2.82,2.82,0,0,0,.73.7,2.88,2.88,0,0,0,1,.44,2.23,2.23,0,0,0,1.46-.09,2.46,2.46,0,0,0-.44-1.65,1.46,1.46,0,0,0-.21-.23,2.26,2.26,0,0,0-1-.41.76.76,0,0,0-.26,0,4.37,4.37,0,0,0-1.35.91C919.43,443.77,919.75,443.76,919.8,443.82Z" transform="translate(-18.47 -376.9)"/><path class="cls-24" d="M922,445.08a3.31,3.31,0,0,1-1.2-.32,2,2,0,0,1,0-1.23,4,4,0,0,1,.57-1,.5.5,0,0,1,.17,0s.12.08.16.08a1.79,1.79,0,0,1,1,.42,1.93,1.93,0,0,1,.06.36,2.31,2.31,0,0,1-.08.72A2,2,0,0,1,922,445.08Z" transform="translate(-18.47 -376.9)"/><path class="cls-25" d="M922.31,444.21c-.15.46-.52.74-.82.63s-.43-.56-.27-1,.51-.73.81-.63S922.46,443.76,922.31,444.21Z" transform="translate(-18.47 -376.9)"/><path class="cls-18" d="M922,443.76c0,.13,0,.25,0,.27s.14-.07.18-.2,0-.25,0-.27S922,443.63,922,443.76Z" transform="translate(-18.47 -376.9)"/><path class="cls-7" d="M919.42,443.82c0,.12.33.19.33.19a2.69,2.69,0,0,0,3.4,1h0a4.59,4.59,0,0,0-.18-1.39h0a2,2,0,0,0-.44-.79,1.69,1.69,0,0,0-1.59-.24l-.1,0a6.88,6.88,0,0,0-1.38,1.09S919.38,443.7,919.42,443.82Zm.32-.31a4.37,4.37,0,0,1,1.35-.91.76.76,0,0,1,.26,0,2.26,2.26,0,0,1,1,.41,1.46,1.46,0,0,1,.21.23,2.46,2.46,0,0,1,.44,1.65,2.23,2.23,0,0,1-1.46.09,2.88,2.88,0,0,1-1-.44,2.82,2.82,0,0,1-.73-.7C919.75,443.76,919.43,443.77,919.74,443.51Z" transform="translate(-18.47 -376.9)"/><path class="cls-18" d="M914.81,442a1.93,1.93,0,0,1-.62.15H914a1.91,1.91,0,0,1-.85-.23,1.14,1.14,0,0,1-.23-.15c-.11-.08-.21-.17-.3-.25.17-.49.37-1,.61-1.52h0l0,0,0,0h0l.11,0h.29a1.49,1.49,0,0,1,.68.25.45.45,0,0,1,.14.16,1.63,1.63,0,0,1,.19.46h0c0,.17.08.35.11.51s0,.07,0,.1v.05a.38.38,0,0,1,0,.1c0,.09,0,.17,0,.24v0a.28.28,0,0,1,0,.09s0,0,0,0C915,442.13,914.86,442,914.81,442Z" transform="translate(-18.47 -376.9)"/><path class="cls-24" d="M913,442a2.7,2.7,0,0,0,1,.27,2.1,2.1,0,0,0,.71-1,2.77,2.77,0,0,0,.11-1c0-.05-.05-.17-.09-.21a.44.44,0,0,0-.11-.08,1.59,1.59,0,0,0-1-.22,1.51,1.51,0,0,0-.24.26,2.24,2.24,0,0,0-.35.63A2.78,2.78,0,0,0,913,442Z" transform="translate(-18.47 -376.9)"/><path class="cls-25" d="M913.33,441.06c-.15.45,0,.89.23,1s.63-.22.77-.67,0-.89-.23-1S913.48,440.61,913.33,441.06Z" transform="translate(-18.47 -376.9)"/><path class="cls-18" d="M913.76,440.93c0,.13-.13.21-.19.19s-.06-.14,0-.27.13-.21.19-.19S913.8,440.81,913.76,440.93Z" transform="translate(-18.47 -376.9)"/><path class="cls-7" d="M915.08,442.08a2.09,2.09,0,0,0,0-.25,7.43,7.43,0,0,0-.23-1.3h0l0-.1,0-.09a1.06,1.06,0,0,0-.39-.44h0a1,1,0,0,0-.71-.16,1.84,1.84,0,0,0-.3.07l-.11.22h0l0,0,0,0h0l.11,0h.29a1.49,1.49,0,0,1,.68.25.45.45,0,0,1,.14.16,1.63,1.63,0,0,1,.19.46h0c0,.17.08.35.11.51s0,.07,0,.1v.05a.38.38,0,0,1,0,.1c0,.09,0,.17,0,.24v0a.28.28,0,0,1,0,.09s0,0,0,0c0,.22-.16.08-.21.1a1.93,1.93,0,0,1-.62.15H914a1.91,1.91,0,0,1-.85-.23,1.14,1.14,0,0,1-.23-.15h0c-.11-.08-.21-.17-.3-.25l-.06.19a1.59,1.59,0,0,0,.83.57,1.71,1.71,0,0,0,1.35-.11s.21.11.29,0S915.08,442.08,915.08,442.08Z" transform="translate(-18.47 -376.9)"/><path class="cls-7" d="M915.06,441.83a7.43,7.43,0,0,0-.23-1.3h0l0-.1,0-.09a1.06,1.06,0,0,0-.39-.44h0a1,1,0,0,0-.71-.16,1.84,1.84,0,0,0-.3.07h0l0-.08a1.32,1.32,0,0,1,.36-.13.93.93,0,0,1,1.1.6.49.49,0,0,0,0,.11,7.69,7.69,0,0,1,.17,1.52s0-.1,0-.19A.5.5,0,0,1,915.06,441.83Z" transform="translate(-18.47 -376.9)"/><path class="cls-7" d="M916.92,445.85a1,1,0,0,1-1.8-.4A5.32,5.32,0,0,0,916.92,445.85Z" transform="translate(-18.47 -376.9)"/><path class="cls-23" d="M921.42,440.68c.84-.58,2.8.48,3,1.4a1.27,1.27,0,0,0-.36-.33,4.58,4.58,0,0,0-1.82-.42c-.24,0-.66.07-.87,0S921.15,440.87,921.42,440.68Z" transform="translate(-18.47 -376.9)"/><path class="cls-23" d="M916,438.73c-.36-.9-2.38-.92-3-.2a1.05,1.05,0,0,1,.43-.11,3.65,3.65,0,0,1,1.6.5c.2.09.48.38.68.39S916.13,439,916,438.73Z" transform="translate(-18.47 -376.9)"/><path class="cls-7" d="M921.14,447.26c-1,1.29-1.69,2.9-2.76,4.19h0a2.2,2.2,0,0,1-.2.23,5.57,5.57,0,0,1-1.41,1.18c-1.34.8-2.36-.62-3.06-2.33-.05-.11-.09-.22-.14-.34s-.19-.53-.27-.79h0a25.14,25.14,0,0,1-.75-3h0c.16.55,2,.91,4,1.06A13.18,13.18,0,0,0,921.14,447.26Z" transform="translate(-18.47 -376.9)"/><path class="cls-26" d="M920,447.92c-.43.52-.72,1.59-1.45,1.79s-4.6.24-5.26-.31h0a25.14,25.14,0,0,1-.75-3h0C912.71,447,919.09,448.05,920,447.92Z" transform="translate(-18.47 -376.9)"/><path class="cls-26" d="M918.56,449.71s-.09.76-.18,1.74h0a2.2,2.2,0,0,1-.2.23,5.57,5.57,0,0,1-1.41,1.18c-1.34.8-2.36-.62-3.06-2.33-.05-.11-.09-.22-.14-.34Z" transform="translate(-18.47 -376.9)"/><path class="cls-27" d="M924,447.77a1.5,1.5,0,0,0,0,.3Z" transform="translate(-18.47 -376.9)"/><path class="cls-23" d="M941.58,449.65a5.6,5.6,0,0,0,1.95-1,4.24,4.24,0,0,0,1.63-1.93c-1,1.19-3,.83-4.3.39-2.36-.78-2.92-1.76-3.48-4,3.12,1.48,5.22,1,7.21-.45-4,1.07-6.74-1.31-6.81-1.86a7.79,7.79,0,0,1-.08-1.52,10.77,10.77,0,0,0-1.7-5.81,11.3,11.3,0,0,0-11.61-4.84c-1.56.28-3.95,1-4.44,2.73l-.07.58c-.25,0-1,1.68-1.17,2.08a5,5,0,0,0,.09,3c.63,1.69,3.16,2.87,2.5,5a3.43,3.43,0,0,0-.1-3.5c1.62,1,3.17,1.94,3.47,4.08.26,1.86-.64,3.48-.67,5.22.09-1.16,1.47-2.08,1.62-3.21.46.79,1,1.22,1,2.16s-.47,1.86-.39,2.74c.15,1.67,1.36,3.11,1.66,4.78a9.08,9.08,0,0,1,.19,1.36,10.12,10.12,0,0,0,.33-3.46c.34.07,6.72,5.13,16-.83a13.37,13.37,0,0,0,3.14-3.33C946.26,449.38,943.59,449.75,941.58,449.65Z" transform="translate(-18.47 -376.9)"/><path class="cls-23" d="M921.54,430c-1.64-.91-3.76.47-5,1.38l-2.12,2.21c-.36.67-.88,3.2-.43,4.26s2.95-2.56,4-2.84c1.25-.33,3.08.16,3.73-1.08C922.2,433,922.78,430.74,921.54,430Z" transform="translate(-18.47 -376.9)"/><path class="cls-23" d="M935.14,431.81c2.82,1.9,6.53,1.44,9.3-.39-2.85,1.48-6.93-.73-9.77-1.45a11.49,11.49,0,0,0-4.27-.57c-1,.12-3,1.17-3.78,1l5.07,5.14A6.59,6.59,0,0,1,935,434.4a10.37,10.37,0,0,1,2.31.5,6.05,6.05,0,0,0,4.68-.29C939.17,434.9,937.28,433.7,935.14,431.81Z" transform="translate(-18.47 -376.9)"/><path class="cls-15" d="M925.34,446.83l.51-2.09c.15-.58,1.57-1.65,2.4-1.37,1.13.37.86,1.78.61,2.4a4.22,4.22,0,0,1-1.71,2.22C925.84,448.62,925.28,447.76,925.34,446.83Z" transform="translate(-18.47 -376.9)"/><path class="cls-7" d="M926.28,445.41a1.57,1.57,0,0,1,1.09-1.5c1-.31,1.42.33,1.16,1-.12-.93-1.23-.88-1.71-.1,1.85,1.12-.51,1.95-.51,1.95S927.11,445.73,926.28,445.41Z" transform="translate(-18.47 -376.9)"/><path class="cls-9" d="M995.9,453.79c-1.77,2.25-4,5.26-6.54,5.89-1.7.41-6.83.61-8.54-.59-1.5-1.08-.88-7.68-.56-9.1a13.58,13.58,0,0,1,1.42-3.7c.05-.09.1-.17.14-.26s.07-.11.11-.17c.26-.44.56-.89.9-1.36h0l.15-.19h0a.35.35,0,0,1,0-.08,25.32,25.32,0,0,0,1.73-2.93c2.06-3.89,4.4-3.4,4.4-3.4,4.25-1.74,7.61,1.66,9,2.94,1.61,1.81,1.82,2.69,1.11,5.25A14.87,14.87,0,0,1,995.9,453.79Z" transform="translate(-18.47 -376.9)"/><path class="cls-8" d="M987.82,449.12a3,3,0,0,0,.65.84,2.49,2.49,0,0,0,1,.55,2.15,2.15,0,0,0,1.5,0,3.15,3.15,0,0,0-.21-2,1.35,1.35,0,0,0-.18-.26,1.9,1.9,0,0,0-1-.53.6.6,0,0,0-.26,0,4.86,4.86,0,0,0-1.5,1C987.46,449,987.79,449,987.82,449.12Z" transform="translate(-18.47 -376.9)"/><path class="cls-18" d="M987.77,449.27a3.14,3.14,0,0,0,.67.76,3,3,0,0,0,1,.53,2.3,2.3,0,0,0,1.46,0,2.51,2.51,0,0,0-.3-1.69,1.28,1.28,0,0,0-.19-.23,2.22,2.22,0,0,0-1-.51,1.13,1.13,0,0,0-.26,0,4.55,4.55,0,0,0-1.42.79C987.4,449.19,987.73,449.21,987.77,449.27Z" transform="translate(-18.47 -376.9)"/><path class="cls-24" d="M989.81,450.71a3.34,3.34,0,0,1-1.16-.42,2,2,0,0,1,.08-1.23,4,4,0,0,1,.66-1h.17s.11.1.15.1a1.82,1.82,0,0,1,.95.5,1.4,1.4,0,0,1,0,.36,2.13,2.13,0,0,1-.14.72A2,2,0,0,1,989.81,450.71Z" transform="translate(-18.47 -376.9)"/><path class="cls-25" d="M990.24,449.87c-.19.44-.58.69-.87.56s-.38-.6-.19-1,.58-.69.87-.56A.8.8,0,0,1,990.24,449.87Z" transform="translate(-18.47 -376.9)"/><path class="cls-18" d="M990,449.4c-.05.13,0,.25,0,.27s.15-.06.2-.19,0-.24,0-.27S990,449.27,990,449.4Z" transform="translate(-18.47 -376.9)"/><path class="cls-8" d="M987.39,449.23c0,.13.31.22.31.22a2.54,2.54,0,0,0,1.25,1.17,2.51,2.51,0,0,0,2.06.08h0a4.67,4.67,0,0,0-.06-1.4h0a1.9,1.9,0,0,0-.37-.83,1.68,1.68,0,0,0-1.56-.37l-.11,0a7,7,0,0,0-1.47,1S987.36,449.11,987.39,449.23Zm.35-.28a4.55,4.55,0,0,1,1.42-.79,1.13,1.13,0,0,1,.26,0,2.22,2.22,0,0,1,1,.51,1.28,1.28,0,0,1,.19.23,2.51,2.51,0,0,1,.3,1.69,2.3,2.3,0,0,1-1.46,0,3,3,0,0,1-1-.53,3.14,3.14,0,0,1-.67-.76C987.73,449.21,987.4,449.19,987.74,449Z" transform="translate(-18.47 -376.9)"/><path class="cls-18" d="M983.89,447a2.41,2.41,0,0,1-.65,0l-.17,0a1.9,1.9,0,0,1-.79-.4,1.14,1.14,0,0,1-.19-.19,1.62,1.62,0,0,1-.24-.31,15.92,15.92,0,0,1,.9-1.36h.43l.16,0a1.46,1.46,0,0,1,.61.37.59.59,0,0,1,.11.19,2.25,2.25,0,0,1,.09.49h0c0,.18,0,.36,0,.53a.34.34,0,0,0,0,.1v.05a.28.28,0,0,1,0,.09c0,.1,0,.18,0,.25v0a.28.28,0,0,0,0,.09v0C984.06,447.19,983.94,447,983.89,447Z" transform="translate(-18.47 -376.9)"/><path class="cls-24" d="M982.07,446.68a2.88,2.88,0,0,0,1,.48,2.07,2.07,0,0,0,.89-.82,2.91,2.91,0,0,0,.32-1c0-.05,0-.18,0-.22l-.09-.1a1.52,1.52,0,0,0-.88-.41,1.74,1.74,0,0,0-.3.2,2.53,2.53,0,0,0-.46.55A2.61,2.61,0,0,0,982.07,446.68Z" transform="translate(-18.47 -376.9)"/><path class="cls-25" d="M982.63,445.79c-.24.42-.23.87,0,1s.65-.09.89-.5.22-.86,0-1S982.86,445.38,982.63,445.79Z" transform="translate(-18.47 -376.9)"/><path class="cls-18" d="M983.07,445.75c-.07.12-.17.18-.22.15s0-.15,0-.26.17-.18.22-.15S983.14,445.64,983.07,445.75Z" transform="translate(-18.47 -376.9)"/><path class="cls-8" d="M984.13,447.15a2.13,2.13,0,0,0,0-.25,6.3,6.3,0,0,0,0-1.32h0s0-.07,0-.1a.44.44,0,0,1,0-.1,1.15,1.15,0,0,0-.3-.52h0a1,1,0,0,0-.66-.29,1.66,1.66,0,0,0-.31,0l-.15.19h.3s0,0,0,0h.11l.16,0a1.46,1.46,0,0,1,.61.37.59.59,0,0,1,.11.19,2.25,2.25,0,0,1,.09.49h0c0,.18,0,.36,0,.53a.34.34,0,0,0,0,.1v.05a.28.28,0,0,1,0,.09c0,.1,0,.18,0,.25v0s0,.06,0,.09v0c0,.22-.16,0-.21.06a2.41,2.41,0,0,1-.65,0l-.17,0a1.9,1.9,0,0,1-.79-.4,1.14,1.14,0,0,1-.19-.19h0a2.74,2.74,0,0,1-.23-.31c0,.06-.07.12-.11.17a1.56,1.56,0,0,0,.71.73,1.66,1.66,0,0,0,1.33.17s.19.15.29.09S984.13,447.15,984.13,447.15Z" transform="translate(-18.47 -376.9)"/><path class="cls-8" d="M984.16,446.9a6.3,6.3,0,0,0,0-1.32h0s0-.07,0-.1a.44.44,0,0,1,0-.1,1.15,1.15,0,0,0-.3-.52h0a1,1,0,0,0-.66-.29,1.66,1.66,0,0,0-.31,0h0a.35.35,0,0,0,.05-.08,1.47,1.47,0,0,1,.38-.05.93.93,0,0,1,.95.82s0,.07,0,.11a8.07,8.07,0,0,1-.14,1.53s0-.1.05-.19A.33.33,0,0,1,984.16,446.9Z" transform="translate(-18.47 -376.9)"/><path class="cls-8" d="M985.24,451a1,1,0,0,1-1.68-.76A5.44,5.44,0,0,0,985.24,451Z" transform="translate(-18.47 -376.9)"/><path class="cls-23" d="M990.08,446c.94-.4,2.64,1,2.63,2a1.38,1.38,0,0,0-.28-.4,4.72,4.72,0,0,0-1.7-.78,3.65,3.65,0,0,1-.85-.2C989.65,446.41,989.77,446.12,990.08,446Z" transform="translate(-18.47 -376.9)"/><path class="cls-23" d="M985.81,443.8c-.18-1-2.14-1.38-2.85-.79a.94.94,0,0,1,.44,0,3.55,3.55,0,0,1,1.46.82c.18.13.4.46.59.52S985.87,444.12,985.81,443.8Z" transform="translate(-18.47 -376.9)"/><path class="cls-8" d="M988.19,453.93a14.57,14.57,0,0,1-1.45,1c-1.72,1-3.3,1.35-4.65.58-1.12-.66-1-2.84-1-4l.78.39C983.48,452.7,987.28,454.45,988.19,453.93Z" transform="translate(-18.47 -376.9)"/><path class="cls-26" d="M988.19,453.93a14.57,14.57,0,0,1-1.45,1c-.28,0-3.83-.67-4.85-1.66,0-.39,0-.9-.06-1.37C983.48,452.7,987.28,454.45,988.19,453.93Z" transform="translate(-18.47 -376.9)"/><path class="cls-6" d="M873.62,509.77c-.55,3.3-2.21,5.86-6.89,8.4a25.53,25.53,0,0,1-6.58,2.26c-6.52,1.41-14.5,1.44-19.92,1.24,5.4,3.27,10.46,11,10.4,16.73a38,38,0,0,0,2.25,14.08c.29.79.62,1.57,1,2.36a12.61,12.61,0,0,0-2,.67,9.51,9.51,0,0,1-3.56,1,10.31,10.31,0,0,0-1.27-2.84c-5-8.82-22.6-32.36-22.1-34.64.64-3,10-7.72,15.47-10.06,1.35-.58,2.46-1,3.14-1.24,11.6-3.87,15.89-3.43,21.57-5.81l5.87-.75,2.28-.29c.32,0,.39-.47.52,0,0,1.38,0,2.65,0,3.84A27.83,27.83,0,0,1,873.62,509.77Z" transform="translate(-18.47 -376.9)"/><path class="cls-28" d="M873.87,504.7a7.73,7.73,0,0,0-2.85-3.55l-5.87.75c-5.48,2.3-9.67,2-20.37,5.42a28.8,28.8,0,0,1,8.72,4.76,21.64,21.64,0,0,1,6.13,7.71c.17.21.34.43.52.64a25.53,25.53,0,0,0,6.58-2.26C873.57,514.46,874,510.71,873.87,504.7Z" transform="translate(-18.47 -376.9)"/><path class="cls-6" d="M853.42,559.85l-1.64.21c-4.51.61-11.48,1.88-15.32.07,0-1,7.57-4.31,10.61-6.48,1.07-.76,1.57-1.38,1-1.69l1.72-.66,1.13-.44a7,7,0,0,1,2,1.62c.9,1,1.6,2.24,2.54,3.45C857.58,558.7,857.05,559.49,853.42,559.85Z" transform="translate(-18.47 -376.9)"/><path class="cls-29" d="M873.62,509.77c-.55,3.3-2.21,5.86-6.89,8.4a25.53,25.53,0,0,1-6.58,2.26c-6.52,1.41-14.5,1.44-19.92,1.24,5.4,3.27,10.46,11,10.4,16.73a38,38,0,0,0,2.25,14.08c.9,1,1.6,2.24,2.54,3.45,2.16,2.77,1.63,3.56-2,3.92l-1.64.21a7.93,7.93,0,0,0,.49-2.29,4.29,4.29,0,0,0-.37-2.26c-.41-.81-1-1.4-1.57-2.46a7.48,7.48,0,0,1-.55-1.75c-.23-1.12-.33-2.32-.49-3.3a80.19,80.19,0,0,0-2.58-11.81c-1.56-5.05-5.72-13.64-11.74-14.88,2.4-2.45,6.68-1.8,9.94-1.88a79.19,79.19,0,0,0,12-1.39C859.83,517.48,869.92,513.9,873.62,509.77Z" transform="translate(-18.47 -376.9)"/><path class="cls-21" d="M880.37,478.94c-.14,2.33-.34,4.69-.61,7-.16,1.4-.34,2.77-.54,4.1-.38,2.58-.81,5-1.25,7-.35,1.64-.7,3.06-1,4.17a8.84,8.84,0,0,1-1,2.51c-2,2.61-7.17,3.46-11.11,3.71-1.14.07-2.18.1-3,.1-13.15.08-19-4.14-19-4.14-.46-.28-.44-2.64-.07-6.18.12-1.24.29-2.63.49-4.11.31-2.23.69-4.69,1.13-7.25.24-1.32.48-2.68.73-4,.46-2.4.95-4.8,1.46-7.13.3-1.35.6-2.68.91-4,1.65-6.76,3.4-12.07,4.75-12.8a29.81,29.81,0,0,1,14-3.06,16.58,16.58,0,0,1,4.25.75,23.25,23.25,0,0,1,7.14,3.29c2.26,3.11,3,9.23,2.9,16C880.5,476.22,880.44,477.57,880.37,478.94Z" transform="translate(-18.47 -376.9)"/><path class="cls-3" d="M880.37,478.94a72.3,72.3,0,0,1-9.31,0c-2.7-.16-5.37-.42-7.94-.67a68.19,68.19,0,0,1-16.56-3.6c.3-1.35.6-2.68.91-4a63.7,63.7,0,0,0,16,3.54c5.67.55,11.45,1.11,17,.64C880.5,476.22,880.44,477.57,880.37,478.94Z" transform="translate(-18.47 -376.9)"/><path class="cls-3" d="M879.76,485.91c-.16,1.4-.34,2.77-.54,4.1a67.23,67.23,0,0,1-10.33.09c-2.7-.16-5.37-.42-7.94-.66a68.46,68.46,0,0,1-16.58-3.61c.24-1.32.48-2.68.73-4a63.69,63.69,0,0,0,16.24,3.61C867.5,486,873.78,486.62,879.76,485.91Z" transform="translate(-18.47 -376.9)"/><path class="cls-3" d="M878,497c-.35,1.64-.7,3.06-1,4.17a68.39,68.39,0,0,1-10.22.07c-2.7-.16-5.37-.42-7.94-.66a68.9,68.9,0,0,1-16-3.41c.12-1.24.29-2.63.49-4.11a64.24,64.24,0,0,0,15.93,3.5C865.46,497.19,871.88,497.8,878,497Z" transform="translate(-18.47 -376.9)"/><path class="cls-6" d="M861.51,459.47c-1.33,1.31-8,10.25-4.84.81a21.9,21.9,0,0,1,1.92-4.56,8.86,8.86,0,0,0,1-3.11c.1-.58.16-1,.21-1.24s.09-.34.06-.33a10.58,10.58,0,0,1-1.39.09,9.48,9.48,0,0,1-3.76-.68,3.12,3.12,0,0,1-1.33-1,1.68,1.68,0,0,1-.16-1.6c0-.11.33-1.62.36-1.83a41,41,0,0,1,1.39-7.33,7,7,0,0,1,1-1.85l.05-.07c.23-.31.45-.62.64-.92.06-.09.11-.18.16-.27a.41.41,0,0,0,0-.09,3.11,3.11,0,0,0,.22-.45,24.74,24.74,0,0,1,1.58-4.12c.93-1.42,3.8-3.69,5.71-3.17l3,.17c7.9,1.31,9.65,10.37,5.2,16a14.76,14.76,0,0,0-2.88,6.68c-.18,2.23-.36,3.54.65,4.74C871.88,457,867.56,453.51,861.51,459.47Z" transform="translate(-18.47 -376.9)"/><path class="cls-30" d="M866.84,437.88c-.44-.88-4.52-.41-4.28-1.44l.24-.55C863.48,435.71,866.87,437,866.84,437.88Z" transform="translate(-18.47 -376.9)"/><path class="cls-31" d="M878.79,432.42c1.33,2.13.34,4.51-.29,6.71a2.89,2.89,0,0,0-.56-1.28c-.7,1.59-1.42,3.8-2.64,5.13a13.43,13.43,0,0,0-.3-1.37c-.3.47-.58.92-.86,1.34a61.41,61.41,0,0,1-3.65,5.06c-.26.06-1.12-.24-1.47-1.7-.18-.73-.76-1-1.29-1.77-.77-1.19-1.29-3.64.5-10.83.19-.76-9-1.25-10.4-4.59a2.21,2.21,0,0,1-.28-2.27,4.55,4.55,0,0,1,1.37-1.91c3.32-2.42,5.82-1.67,5.82-1.67-.21.32-1.79,1-2.12,1.46a15.5,15.5,0,0,1,9.89-.11,3.8,3.8,0,0,0-1.88.79c2.16-.07,6,.94,7.21,2.76a2.53,2.53,0,0,0-1.62.1c1.9.74,4,2.31,4.19,4.58C879.82,432.75,879.38,432.53,878.79,432.42Z" transform="translate(-18.47 -376.9)"/><path class="cls-13" d="M873.82,442.31a2.56,2.56,0,0,0,.32.64,61.41,61.41,0,0,1-3.65,5.06c-.26.06-1.12-.24-1.47-1.7-.18-.73-.76-1-1.29-1.77-.77-1.19-1.29-3.64.5-10.83.19-.76-9-1.25-10.4-4.59a2.21,2.21,0,0,1-.28-2.27,3,3,0,0,0,.88,1.47c1.93,1.86,4.7,2.09,7.24,2.24,1,.06,1.92.12,2.86.15a14.45,14.45,0,0,0,1.82-.16,6.84,6.84,0,0,1,4.24.53,3,3,0,0,1,.62.43,4.05,4.05,0,0,0-2.64.47c.48.18,1,.07,1.5.24a4.84,4.84,0,0,1,1.72,1.32,5.54,5.54,0,0,1,1.72,3,14,14,0,0,0-3.2-1.17,2.92,2.92,0,0,1,1,1.46c.05.64-.62,1-.94,1.51A4.77,4.77,0,0,0,873.82,442.31Z" transform="translate(-18.47 -376.9)"/><path class="cls-30" d="M856.41,433.12c.74-.29,1.69,2.66,2.33,1.84l.31-.51C859,433.88,857,432.53,856.41,433.12Z" transform="translate(-18.47 -376.9)"/><path class="cls-6" d="M867.63,443.26c.51-.89,1.38-2.55,2.63-2.5,1.59.06,1.93,2.19,1.27,3.34a5.46,5.46,0,0,1-3.26,2.1l-1,.13C865.83,446.52,867.32,443.8,867.63,443.26Z" transform="translate(-18.47 -376.9)"/><path class="cls-4" d="M868.6,443.37l.68-1.44c.6-1.42,2.26.32,2.12,1.33s-1.7,1.67-2.57,1.86c.57-.26,1.89-.89,1.73-1.76C870.29,441.86,869,443.07,868.6,443.37Z" transform="translate(-18.47 -376.9)"/><path class="cls-4" d="M859,440.75l0,.06a1.46,1.46,0,0,1-2.37-1.23C857,440.57,858,440.63,859,440.75Z" transform="translate(-18.47 -376.9)"/><path class="cls-4" d="M854.76,441.09c-.15,1.36-.4,3.87.48,5.32a2.13,2.13,0,0,0,1.34,1,4.69,4.69,0,0,0,4.08-1,5.65,5.65,0,0,0,1.75-2.28l0-.08-.8-.13c-2.59-.45-4.8-1-6.32-2.31A6.13,6.13,0,0,1,854.76,441.09Z" transform="translate(-18.47 -376.9)"/><path class="cls-31" d="M854.77,441.08h0S854.75,441,854.77,441.08Z" transform="translate(-18.47 -376.9)"/><path class="cls-18" d="M855.33,441.66c-.07.88-.18,2.44.13,2.6,3.6,1.82,5.49.55,6.19-.29C859.06,443.52,856.85,443,855.33,441.66Z" transform="translate(-18.47 -376.9)"/><path class="cls-18" d="M855.46,444.92c-.08.53-.18,1-.22,1.49a2.13,2.13,0,0,0,1.34,1,4.69,4.69,0,0,0,4.08-1,8.6,8.6,0,0,0-.33-1.47l-.11-.26C859.53,445.3,856.55,445.28,855.46,444.92Z" transform="translate(-18.47 -376.9)"/><path class="cls-18" d="M861.84,439.1l.54.35a4.88,4.88,0,0,0,1.22.53,2.81,2.81,0,0,0,1.15.11h0c0-.17-.16-1.76-1-2a1.1,1.1,0,0,0-.73.05l0,0h0l-.05,0-.06,0,0,0a2.71,2.71,0,0,0-.84.73A1,1,0,0,0,861.84,439.1Z" transform="translate(-18.47 -376.9)"/><path class="cls-31" d="M862,439a1.94,1.94,0,0,1,1.61-.52c.54.17,1,1,1.19,1.65,0-.17-.16-1.76-1-2a1.1,1.1,0,0,0-.73.05l0,0h0l-.05,0-.06,0,0,0A2.71,2.71,0,0,0,862,439Z" transform="translate(-18.47 -376.9)"/><path class="cls-31" d="M862.53,438.93a2.16,2.16,0,0,0-.15.52,4.88,4.88,0,0,0,1.22.53,2,2,0,0,0,.29-.47c.27-.63.19-1.28-.18-1.44S862.81,438.29,862.53,438.93Z" transform="translate(-18.47 -376.9)"/><path class="cls-18" d="M863.42,439.06c-.06.14,0,.27,0,.31s.19-.05.25-.18,0-.27,0-.31S863.48,438.93,863.42,439.06Z" transform="translate(-18.47 -376.9)"/><path class="cls-18" d="M856,436.84l0,0a4.53,4.53,0,0,0,1.08.53,2.66,2.66,0,0,0,1.05.11v0c0-.17,0-1.73-.75-2a.88.88,0,0,0-.51,0,.41.41,0,0,1,0,.09c0,.09-.1.18-.16.27-.19.3-.41.61-.64.92Z" transform="translate(-18.47 -376.9)"/><path class="cls-31" d="M856.72,435.85a.93.93,0,0,1,.5,0,1,1,0,0,1,.42.34,3.76,3.76,0,0,1,.55,1.28c0-.17,0-1.73-.75-2a.88.88,0,0,0-.51,0,.41.41,0,0,1,0,.09C856.83,435.67,856.78,435.76,856.72,435.85Z" transform="translate(-18.47 -376.9)"/><path class="cls-31" d="M856.08,436.77a.29.29,0,0,1,0,.09,4.53,4.53,0,0,0,1.08.53,2.37,2.37,0,0,0,.3-.47,1.82,1.82,0,0,0,.2-.72c0-.33-.06-.6-.26-.69a.52.52,0,0,0-.5.07c0,.09-.1.18-.16.27C856.53,436.15,856.31,436.46,856.08,436.77Z" transform="translate(-18.47 -376.9)"/><path class="cls-18" d="M857,436.48c-.06.13,0,.27,0,.3s.17,0,.24-.18.06-.26,0-.3S857.11,436.35,857,436.48Z" transform="translate(-18.47 -376.9)"/><path class="cls-4" d="M853.39,449.45c1,1.39,4.1,1.92,6.48,1.59,0,0-1.22,4.44-1.28,4.68,1.65-.31,5.4-4.65,6.53-6.26a21.32,21.32,0,0,0,2.38-4.95s-2,3.95-4.48,5.27C861.54,450.58,856,450.68,853.39,449.45Z" transform="translate(-18.47 -376.9)"/><path class="cls-22" d="M880.37,478.94c-.14,2.33-.34,4.69-.61,7-.16,1.4-.34,2.77-.54,4.1-.38,2.58-.81,5-1.25,7-.35,1.64-.7,3.06-1,4.17a8.84,8.84,0,0,1-1,2.51c-2,2.61-7.17,3.46-11.11,3.71,4.42-7.08,7.94-14.65,9.48-23.19a49.78,49.78,0,0,0-.18-18.65c-.46-2.1-1.63-8.63-3.63-10a23.25,23.25,0,0,1,7.14,3.29c2.26,3.11,3,9.23,2.9,16C880.5,476.22,880.44,477.57,880.37,478.94Z" transform="translate(-18.47 -376.9)"/><path class="cls-6" d="M874.69,487.76c-1.05,1.87-2.19,3-3.31,2.79-2.37-.39-1.75-6.08-2.31-8.14l-.84-1.77-4.33-9.15c-.84.23.34-4.42.83-5.6a10.85,10.85,0,0,1,3.32-4.86c3.41-2.54,6.39-2,9,1.37C880.52,466.84,878.16,481.55,874.69,487.76Z" transform="translate(-18.47 -376.9)"/><path class="cls-4" d="M874.69,487.76c-1.05,1.87-2.19,3-3.31,2.79-2.37-.39-1.75-6.08-2.31-8.14l-.84-1.77,5.78-9.15c-.44,3.34-2.18,7.56-2.36,11.45C871.53,485.65,872.66,488,874.69,487.76Z" transform="translate(-18.47 -376.9)"/><path class="cls-6" d="M877.53,466.35a38.63,38.63,0,0,1-3.86,12.95,44.67,44.67,0,0,1-2.5,4.47c-3.3,5.16-6.78,10.26-11.6,14l-.19-.14c-1.08-.74-2.32-1.66-3.4-2.49-1.58-1.22-2.85-2.23-2.85-2.23l.31-.72C855,488.64,862,473,868.52,463.06,872.12,458.9,877.78,463.28,877.53,466.35Z" transform="translate(-18.47 -376.9)"/><path class="cls-6" d="M861.06,495.27a27.6,27.6,0,0,0-1.68,2.32c-.69,1.06-1.38,2.14-2.14,3.1A17.85,17.85,0,0,1,851,505.3c-1.52.76-6.16,2.18-10.16,3.47a52.93,52.93,0,0,0-6.12,2.21,6.16,6.16,0,0,0-2.13-2c1.75-.87,14.91-14,17.16-15.19a25.54,25.54,0,0,1,3.74-1.61c.8-.28,1.6-.52,2.36-.74L860,494.5Z" transform="translate(-18.47 -376.9)"/><path class="cls-6" d="M834.35,507.43c-1.67,1.32-4.65,1.22-6.46,2.53a8,8,0,0,0-2.53,5.32,2.6,2.6,0,0,0,1.56,0c.12.81.54.69,1.1,1,.2.11,1.51.59,1.69.63.78.18,2.74.59,3.63.21,1.95-.84,2-5.07,2.94-6.82Z" transform="translate(-18.47 -376.9)"/><path class="cls-4" d="M873.67,479.3a44.67,44.67,0,0,1-2.5,4.47c-3.3,5.16-6.78,10.26-11.6,14l-.19-.14c-.69,1.06-1.38,2.14-2.14,3.1A17.85,17.85,0,0,1,851,505.3c-1.52.76-6.16,2.18-10.16,3.47,6-2.88,18.41-7.08,15.19-13.67,0,0,0,0,0,0a9,9,0,0,1,2.18,1.24c.64-.59,1.26-1.2,1.87-1.82a80.22,80.22,0,0,0,8.24-10.1c3.41-4.87,4.76-10.51,7.18-15.7A43.29,43.29,0,0,1,873.67,479.3Z" transform="translate(-18.47 -376.9)"/><path class="cls-13" d="M986.61,439.06a1.34,1.34,0,0,1,.07-.18c-.13,0-.25.05-.37.09Z" transform="translate(-18.47 -376.9)"/><path class="cls-13" d="M1000.92,457.32c2.77.54,9.26-1.19,11.29-3.46-13.84,1.88-6.5-7.34-8.28-11.91-3.55-9.14-15.31-8.44-17.25-3.07,4.08-1,6.62,3.14,6,6.7-.64,3.71-4.47,7.18-.94,10.69-1.46-1.83-.35-4.07.88-5.71-5.15,7.62,13.82,16.51,19,9.68C1009,462,1002.16,460.48,1000.92,457.32Z" transform="translate(-18.47 -376.9)"/><path class="cls-13" d="M1008.79,446.11c-1.85-.17-3.17-1.47-4.36-2.75-2-2.13-2.66-4.62-5.4-6l2.82,7.95a9.79,9.79,0,0,0,5.67,2.22,5.7,5.7,0,0,0,4.16-2A5.35,5.35,0,0,1,1008.79,446.11Z" transform="translate(-18.47 -376.9)"/><path class="cls-13" d="M996.55,434.6c1-.55,2.36-1.28,2.67-2.41-2.81,1.84-5.21,1.93-8.52,2.13-2.71.16-6,1.17-7.5,3.59l11.55.77c1.82-1.46,3-2.62,5.45-2.74a9.53,9.53,0,0,1,3.4.41A15.14,15.14,0,0,0,996.55,434.6Z" transform="translate(-18.47 -376.9)"/><path class="cls-2" d="M779.49,560.91a3.36,3.36,0,1,1-3.36-3.19A3.28,3.28,0,0,1,779.49,560.91Z" transform="translate(-18.47 -376.9)"/><rect class="cls-3" x="504.5" y="570.41" width="270.99" height="1.51" transform="translate(-59 -327.94) rotate(-4.25)"/><path class="cls-32" d="M421.77,413.85h-.21C421.67,413.84,422.28,413.85,421.77,413.85Z" transform="translate(-18.47 -376.9)"/><path class="cls-2" d="M28.55,529s46.7,57.56,85.28,75.23S181,619.45,181,619.45l54.16-5.62,39.83-70.36-190.24-6Z" transform="translate(-18.47 -376.9)"/><path class="cls-33" d="M539,572.15,535.54,582l-.6,1.74-8.1,15.86s-208.43,26.06-300.39,24c-17.2-.38-28.55,2.46-67.12-15.2-12.29-5.63-25.41-15.31-37.58-25.9-26-22.61-47.7-49.34-47.7-49.34l56.15,8.46L404,541.16l62,2.9,43,4.54,9.59,5.16Z" transform="translate(-18.47 -376.9)"/><path class="cls-34" d="M539,572.15s-10.21-35.07-27-40.74c-14.9-5-85-12.8-100.46-14.47-23.49-55.94-58-70-66.65-72s-52.16-1.45-52.16-1.45l-50.19,23.33L138.07,497.47l-14.22.49L104.4,510.5l-5.32-.11S61,507.82,48.67,515.78c-5.85,3.77-22.3,3.07-30,7.06-.54.28,0,2.33.15,2.78,2.27,7.09,75.84,15.07,144.46,16.2,58.87,1,209.61,2.89,209.61,2.89S484,539.28,513.5,552.42c8,3.55,5.36,8.6,16.72,16.87S539,572.15,539,572.15Z" transform="translate(-18.47 -376.9)"/><path class="cls-4" d="M394.63,423.81c-6.7.15-8.82,33.72-17.22,41.57,3.1,3.28,8.85,11,13.37,4.8,5.47-7.47,4.36-19.32,5.85-27.87Z" transform="translate(-18.47 -376.9)"/><path class="cls-35" d="M429.47,532.72a45,45,0,0,1-8.56.88h0c-1.14,0-2.34,0-3.56,0h0c-8.87-1-17.05-3.76-15.81-10,1.77-8.84,16.09-28.17,16.09-28.17,7.89-12.71,14-13.7,22.79-10.51.93.34,1.9.73,2.9,1.15C451.57,496.56,441.39,529.87,429.47,532.72Z" transform="translate(-18.47 -376.9)"/><path class="cls-36" d="M429.47,532.72a45,45,0,0,1-8.56.88h0c-1.14,0-2.34,0-3.56,0h0c-.93,0-1.87-.05-2.83-.12-10-.6-20.35-3.3-19-10.21,1.77-8.85,16.1-28.17,16.1-28.17a30.31,30.31,0,0,1,12.81-11.74c5.38-2.48,10.92-2.67,15.13-.38a12.2,12.2,0,0,1,3.72,3.14C451.57,496.56,441.39,529.87,429.47,532.72Z" transform="translate(-18.47 -376.9)"/><path class="cls-35" d="M429.47,532.72a45,45,0,0,1-8.56.88c.68-.11,1.29-.23,1.82-.36,12.09-2.9,22.59-33.69,17.67-48.27a16.91,16.91,0,0,0-.82-2,12.2,12.2,0,0,1,3.72,3.14C451.57,496.56,441.39,529.87,429.47,532.72Z" transform="translate(-18.47 -376.9)"/><path class="cls-14" d="M409.18,508.62a51,51,0,0,0-3.81,15.15c-.41,5.55,2.94,7.6,7.46,9.16l1,.35.64.2c-10-.6-20.35-3.3-19-10.21,1.77-8.85,16.1-28.17,16.1-28.17a30.31,30.31,0,0,1,12.81-11.74c-1.39,1.88-2.64,3.75-3.76,5.41-3.77,5.65-7.78,11.4-10.61,17.72C409.77,507.2,409.46,507.9,409.18,508.62Z" transform="translate(-18.47 -376.9)"/><path class="cls-6" d="M365.47,450.51c-1.37-.42-3.08-.11-3.18,1.58-1.46-.46-2.35.59-2.26,2.07-.57,0-1.88-.06-2.26.57s.16,1.8.05,2l6.49,3.43c2.47-1,5.69-2.75,5.79-5.85C370.16,452.68,366.12,447.64,365.47,450.51Z" transform="translate(-18.47 -376.9)"/><path class="cls-14" d="M426.84,478.81l-29.69,6.47a246.26,246.26,0,0,1,3.69,30.28c.54,7.19.87,7.32,8,7.82,5.14.36,10-.52,15-.26C427.64,509.48,426.05,491.62,426.84,478.81Z" transform="translate(-18.47 -376.9)"/><path class="cls-3" d="M433,450.58c-.37,3-.77,5.95-1.19,8.84-.18,1.28-.37,2.54-.55,3.78-1,6.42-4,22.76-4.77,26.3-8.39,3.57-28.77.8-37.17-1.55-1.88-5.37,4.93-63.94,5.34-64.14a10.92,10.92,0,0,1,1.24-.49c.53-.19,1.18-.4,1.92-.63,5.81-1.8,17.21-4.74,19.58-4.53l2,.17c1.55.13,3.43.29,3.64.34l2.65.56,1,.21c3.29.75,5.37,1.46,6.89,3.17C435.47,424.71,434.59,437.4,433,450.58Z" transform="translate(-18.47 -376.9)"/><path class="cls-6" d="M419.79,418.25c-.13.21-4.84.85-7.91,4.33-2.62,3-6,8.9-8.26,8.44-2-.39,0-7.72-.06-10.16l1.78-2.75.56-1.69a37.05,37.05,0,0,0,.85-3.85c.36-2.35.4-4.9-.91-5.95,2.5-1.24,5.26-2,7.66-3.62a31.2,31.2,0,0,0,5.66-5.21c-1,3.24-.93,6.91-1.31,10.33C417.56,410.78,417,416.5,419.79,418.25Z" transform="translate(-18.47 -376.9)"/><path class="cls-4" d="M417,405.2c-1.73,6.54-8.63,13-10.64,13.07a3.37,3.37,0,0,1-1-.16l.56-1.69a37.05,37.05,0,0,0,.85-3.85l.8-.59C411.23,410.66,414.19,407.57,417,405.2Z" transform="translate(-18.47 -376.9)"/><path class="cls-6" d="M404.87,415.85h0a35.27,35.27,0,0,0,4.35-2.12c.8-.57,1.58-1.16,2.36-1.76l1.36-1.37c.75-.77,1.5-1.54,2.31-2.26.52-.47,2.62-4.46,3.55-5.76,5.94-8.32-1.56-18.89-11.69-17.87l-3.78.81c-2.53,0-5.29,3.73-6,5.79a21.77,21.77,0,0,0-.7,4.74c0,.07.11,1,.1,1s0,0,0,0a1.7,1.7,0,0,1,0,.22.83.83,0,0,1,0,.15.27.27,0,0,1,0,.12l-.06.22-.05.17-.06.21c-.13.37-.27.75-.41,1.13,0,0,0,.07,0,.11a8.71,8.71,0,0,0-.68,2.61c-.12,4.38,1.52,12.79,2,13.24a7,7,0,0,0,6.06,1C404,416.16,404.43,416,404.87,415.85Z" transform="translate(-18.47 -376.9)"/><path class="cls-4" d="M401,404.85v.08a1.86,1.86,0,0,1-3.32-.72C398.55,405.27,399.77,405,401,404.85Z" transform="translate(-18.47 -376.9)"/><path class="cls-4" d="M404.59,407.48c-2.45,3.85-4.49,4.76-5.93,3.73a7.06,7.06,0,0,1-2.36-4.87,4.19,4.19,0,0,0,.93,1.06l0,.05c1.57,1.24,3.81,1.1,5.94.49l.17-.05C403.8,407.77,404.2,407.63,404.59,407.48Z" transform="translate(-18.47 -376.9)"/><path class="cls-18" d="M403.39,407.89c-2.05,1.56-5.59,1.87-6.11-.44,1.57,1.24,3.81,1.1,5.94.49Z" transform="translate(-18.47 -376.9)"/><path class="cls-30" d="M423.84,403c1.45-4.57,3.54-13.52-1.94-17.67-11.23-8.5-21.06-3.87-21.06-3.87-1.3,1.6,1.66,5.11,3,7.16.7,1.08,1.7,2,2.46,3.09a10.28,10.28,0,0,1,1.1,2.58,3.61,3.61,0,0,0-.11-3c2.77.62,2.79,9.78,6.35,10.84,4,1.19,2.89,6.66,4,9.67C418.49,411.07,422.78,406.38,423.84,403Z" transform="translate(-18.47 -376.9)"/><path class="cls-30" d="M405.28,383.31c-3.27-.47-7.55-.23-9.52,2.88-1,1.64-1,4.61-.42,6.34.36,1.12.86,3.07,1.29,4.11.32-2.5.74-6.55,2.67-8.24,2.57-2.25,5.75-1.86,9.06-2Z" transform="translate(-18.47 -376.9)"/><path class="cls-30" d="M400.88,385c-2.07,2.4-1.68,6-1.82,8.87.75-1.37.92-3.39,1.49-4.93.49-1.32,1.39-3.73,2.88-4.21Z" transform="translate(-18.47 -376.9)"/><path class="cls-30" d="M403.78,384.07c-1,3,.7,6.21,1.65,8.91.18-1.56-.42-3.49-.47-5.12,0-1.42-.12-4,1.07-5Z" transform="translate(-18.47 -376.9)"/><path class="cls-37" d="M395.91,396c1.41-1.19,15.37,1.13,19.29,4.31l-.26.82c-1.8,1-8.07,1.95-10.32,1.27-1.15-.35-3.28-2.5-4.36-3-1.27-.6-3.34.53-3.9,1.14s-1,.3-1.19-1C395.07,398.64,395.39,396.43,395.91,396Z" transform="translate(-18.47 -376.9)"/><path class="cls-6" d="M413.35,403.2c.27-1.39.68-3.95,2.1-4.44,1.81-.62,2.92,2,2.56,3.82a7.79,7.79,0,0,1-2.95,4.19l-1.06.61C412.42,408.27,413.18,404.05,413.35,403.2Z" transform="translate(-18.47 -376.9)"/><path class="cls-4" d="M414.47,402.91l.28-2.19c.19-2.11,2.65-.57,2.83.81s-1.34,2.94-2.25,3.58c.55-.6,1.82-2,1.35-3.08C415.87,400.19,414.79,402.35,414.47,402.91Z" transform="translate(-18.47 -376.9)"/><path class="cls-30" d="M428.55,388.24a13.53,13.53,0,0,0-5.15-5.61c-2.27-1.24-4.89-.88-7.09-1.92A2.43,2.43,0,0,1,418,380c-3.13-1.18-8.75-1.88-12.29-.2a4.16,4.16,0,0,1,2.2-2.91,10,10,0,0,0-5.35,2.38c-.79.64-3.32,4.4-1.83,5h2.93c2.52,1.13,5.7,1.2,8.44,2.25,3,1.13,6.2,2.23,8.12,4.9,3.8,5.3,2.19,11.58-.1,17,2.31-2.38,7.51-8.6,5.22-12.42.73.36,1.57.84,1.62,1.75.43-3.44,1.49-7.39-1.08-10.18A12.48,12.48,0,0,1,428.55,388.24Z" transform="translate(-18.47 -376.9)"/><path class="cls-30" d="M394.1,382.55a6,6,0,0,1,3.4,1.15c-1.74-.19-3,1.42-3.39,2.9a4.43,4.43,0,0,1,4.38.57l3.66-4C400.84,381.5,396.24,380.57,394.1,382.55Z" transform="translate(-18.47 -376.9)"/><path class="cls-3" d="M431.7,458c0,1.35-.08,2.92-.21,4.59-.14,1.91-.36,4-.61,5.95-.33,2.62-.72,5.16-1.08,7.23-.26,1.49-.52,2.73-.73,3.56-6.34,2.26-12.29,2.33-19.2,1.41a57.48,57.48,0,0,1-5.69-1.08c-2.73-.64-5.45-1.44-8.1-2.2a44.05,44.05,0,0,1-5.44-1.51c-1.87-.82-1.81-1.49-1.72-3.27,0-.21,0-.43,0-.68q.12-3.24.33-6.47c.13-2,.28-4,.47-6s.36-4,.58-5.93c0-.37.08-.73.13-1.1.22-2,.45-3.88.7-5.82,1-7.69,2.19-15.31,3.42-22.88,2.3-1.32,4.42-1.27,6.91-2.3a83.5,83.5,0,0,0-1.69,8.85c-.33,3.31-.21,6.73,2.17,9.52,3.5,4.08,8.67,1,10.91-2.66,2.1-3.48,6.66-16.13,10.17-18.51l2.65.5,2.79.53c-6.4,10.11-9.85,21.87-5,30.54a18.17,18.17,0,0,0,5.26,5.85l.44.32A24.79,24.79,0,0,0,431.7,458Z" transform="translate(-18.47 -376.9)"/><path class="cls-11" d="M430.88,468.49c-.33,2.62-.72,5.16-1.08,7.22a71.88,71.88,0,0,1-15.7,1c-1.59-.06-3.21-.15-4.88-.3A100,100,0,0,1,390.11,473c-.4-.11-.8-.23-1.19-.37,0-.2,0-.43,0-.68q.12-3.24.33-6.47a26.83,26.83,0,0,0,2.69.93,93.86,93.86,0,0,0,17.82,3.2A67.2,67.2,0,0,0,430.88,468.49Z" transform="translate(-18.47 -376.9)"/><path class="cls-11" d="M431.06,449c-.33,2.62-.72,5.17-1.08,7.22l-.82.15a72.08,72.08,0,0,1-14.88.87c-1.58-.06-3.21-.15-4.88-.29a101.34,101.34,0,0,1-19.07-3.42c0-.37.08-.73.13-1.1.22-2,.45-3.88.7-5.82.33.12.67.22,1,.32a95.21,95.21,0,0,0,17.81,3.2,80.24,80.24,0,0,0,13.49.07A51.83,51.83,0,0,0,431.06,449Z" transform="translate(-18.47 -376.9)"/><path class="cls-10" d="M431.49,462.54c-.14,1.91-.36,3.95-.61,5.95-.33,2.62-.72,5.16-1.08,7.22-.27,1.5-.52,2.74-.73,3.57-6.34,2.26-12.29,2.33-19.2,1.41a56.75,56.75,0,0,1-5.68-1.08,28.34,28.34,0,0,0,2.07-2.17,27.58,27.58,0,0,0,5-9.94,130.56,130.56,0,0,0,4-19.57,73.42,73.42,0,0,1,4.2-17.14c.64-1.6,3.55-8.23,6.27-11.62l2.8.53c-8,12.64-11.39,27.86.22,36.39a24.43,24.43,0,0,0,3,1.86C431.7,459.3,431.62,460.87,431.49,462.54Z" transform="translate(-18.47 -376.9)"/><path class="cls-14" d="M388,470.16a16.09,16.09,0,0,1-16.39,15.37c-8.8-.16-15.41-8-15.26-16.5.16-8.76,7.83-15.51,16.39-15.36,8.8.16,15.41,8,15.26,16.49,0,2.21,3.38,2.34,3.42.13a19.59,19.59,0,0,0-17.3-20c-9.94-1.24-19.37,6.35-20.93,16.08a19.55,19.55,0,0,0,14.77,22.07c9.89,2.31,19.78-3.93,22.7-13.47a19.54,19.54,0,0,0,.76-4.73C391.5,468.08,388.08,468,388,470.16Z" transform="translate(-18.47 -376.9)"/><path class="cls-6" d="M394.69,460.43l-4.06-3.79c-2.2-1.13-3.84-2.78-6.43-2.16a10.09,10.09,0,0,0-3.08,1c-1,.71-1.19,2.13.43,2a1.57,1.57,0,0,0,.89,2.87c-1.41,1.19-.05,2.61,1.12,3-1.54,3.78,8.71,2.94,9.9,1.79C396.2,465.71,396.14,462.46,394.69,460.43Z" transform="translate(-18.47 -376.9)"/><path class="cls-6" d="M427,472a5.2,5.2,0,0,1-1.72,2.21c-4.62,3.52-31.09-7.52-32.88-8.72l.23-5.64c2,.79,6.05,1.3,10.17,1.6,5.1.39,10.27.47,11.65.42a22.44,22.44,0,0,1,3.84.16,13.62,13.62,0,0,1,4.34,1.3,10.33,10.33,0,0,1,2.36,1.62A6.58,6.58,0,0,1,427,472Z" transform="translate(-18.47 -376.9)"/><path class="cls-6" d="M427,472l-.13.1-8.15-5.71c-.27-.13-.4-1.06-.43-2.57,0-.52,0-1.12,0-1.79.22-9.23,2.77-30.35,5-35.93h0a5.07,5.07,0,0,1,.42-.87c1.66-2.66,3.92-7.85,9.06-3.81,2.9,2.29,2.94,8.73,2.86,12.09C435.31,445.48,430.41,469,427,472Z" transform="translate(-18.47 -376.9)"/><path class="cls-4" d="M424.73,466.8a12.51,12.51,0,0,0-6.46-3c-2.24-.43-4.6-.54-6.85-.83a70.4,70.4,0,0,1-8.64-1.54c5.1.39,10.27.47,11.65.42a22.44,22.44,0,0,1,3.84.16c.22-9.23,2.77-30.35,5-35.93a153.21,153.21,0,0,0-2,22.13c-.12,3.45-.13,6.87-.14,10.27,0,2.19,0,2.79,1.17,4.44l.27.39A17.51,17.51,0,0,1,424.73,466.8Z" transform="translate(-18.47 -376.9)"/><path class="cls-38" d="M530.47,565.82c-11.36-8.27-8.76-13.32-16.72-16.87-29.48-13.13-140.58-7.71-140.58-7.71s-150.74-1.92-209.62-2.89C94.93,537.22,12.9,526.3,19.09,522.15c5.72-3.83,17.67-5.26,25.31-7.82a20.31,20.31,0,0,0,4.51-2c12.35-8,50.41-5.4,50.41-5.4l2.55.06,2.78,0,19.45-12.54,3.46-.12,4.54-.15,6.22-.22L293,440s43.36-.67,52.17,1.45c.41.1.89.23,1.43.39,5.69,1.7,17.77,6.94,31.19,19.83,11.4,10.93,23.76,27.37,34,51.81,15.46,1.68,85.55,9.44,100.46,14.47,16.76,5.67,27,40.74,27,40.74S541.83,574.09,530.47,565.82Z" transform="translate(-18.47 -376.9)"/><path class="cls-39" d="M530.47,565.82c-11.36-8.27-8.76-13.32-16.72-16.87-29.48-13.13-140.58-7.71-140.58-7.71l-45.41-.59c-49.29-.65-126-1.67-164.21-2.3C94.93,537.22,12.9,526.3,19.09,522.15c5.72-3.83,17.67-5.26,25.31-7.82,13.17,1.4,26.39,2.52,39.95,3.48,29.43,2.08,59.24,1.45,88.72,1.82,34.71.43,71.68,1.72,105.89-5.93,31.91-7.13,62.08-16,87.4-37.15a46.39,46.39,0,0,0,11.4-14.89,133.28,133.28,0,0,1,20.08,24.86,181,181,0,0,1,14,27c15.46,1.68,85.55,9.44,100.46,14.47,16.76,5.67,27,40.74,27,40.74S541.83,574.09,530.47,565.82Z" transform="translate(-18.47 -376.9)"/><path class="cls-40" d="M346.57,441.83c15.13,8.25,3.13,17-6.94,24.61-67,50.51-203.08,29.08-207.53,27.78l6.22-.22L293,440s43.36-.67,52.17,1.45C345.55,441.54,346,441.67,346.57,441.83Z" transform="translate(-18.47 -376.9)"/><path class="cls-39" d="M208.64,513.17c-24,4.45-79.77-.31-106.77-6.19l2.78,0,19.45-12.54,3.46-.12C139.73,500.86,163.79,509.55,208.64,513.17Z" transform="translate(-18.47 -376.9)"/><path class="cls-41" d="M535.54,582l-.6,1.74-8.1,15.86s-208.43,26.06-300.39,24c-17.2-.38-28.55,2.46-67.12-15.2-12.29-5.63-25.41-15.31-37.58-25.9,43.66,9.37,160.56,30.65,338.94,13.16C485.64,593.28,511.9,591.18,535.54,582Z" transform="translate(-18.47 -376.9)"/><path class="cls-11" d="M432.84,515.84c-9.4-1.09-17.06-1.93-21-2.37a181,181,0,0,0-14-27,119.89,119.89,0,0,1-9.61,10.76,274.79,274.79,0,0,1-38.79,31.08,179.74,179.74,0,0,1-21.68,12.29l45.41.59s15.82-.77,37.1-1C417.79,532.1,425.26,523.9,432.84,515.84Z" transform="translate(-18.47 -376.9)"/><path class="cls-11" d="M518.64,531.67a20.47,20.47,0,0,0-6.39-3.73A107.56,107.56,0,0,0,499.44,525q-7.9,8.81-15.79,17.63a161.21,161.21,0,0,1,21.7,3.56C509.72,541.3,514.18,536.48,518.64,531.67Z" transform="translate(-18.47 -376.9)"/><path class="cls-11" d="M486.31,522.82c-12.14-1.86-26.46-3.72-39.46-5.31-7.17,7.43-14.18,15-21.18,22.62,14.27,0,29.72.37,43.92,1.31Q478,532.17,486.31,522.82Z" transform="translate(-18.47 -376.9)"/></g></g></svg>