<svg id="Layer_1" data-name="Layer 1" xmlns="http://www.w3.org/2000/svg" width="1026" height="806.68" viewBox="0 0 1026 806.68"><defs><style>.cls-1{fill:#b5b5b5;}.cls-2{fill:#2b2b2b;}.cls-3{fill:#fc2e3d;}.cls-4{fill:#999;}.cls-5{fill:#d6182f;}.cls-6{fill:#fff;}.cls-7{fill:#ffb680;}.cls-8{fill:#383838;}</style></defs><title>Boat 3</title><path class="cls-1" d="M179.62,723.1s-58.95,43.53-114.42,100C12.63,876.55,91.68,883,168.75,892.14c125.57,14.9,414,20.43,553-6.71,96.59-18.86,323.48-36.23,323.48-36.23S1003,785.64,939.11,755.15s-35.75-23.94-84.27-2.72-165.38,66.64-235.91,28S451.6,701.19,413.18,692.09,218.54,708.38,179.62,723.1Z" transform="translate(-28 -203.48)"/><path class="cls-2" d="M329.36,583.32c-61.23,40.2-146.22,119.57-157.72,155.89s10.65,21.28,76.74-5c47.14-18.72,203-46.65,221.49-75.32,11.62-18-8.6-81.87-25.91-59.67-30.87,39.59-58.42,18.62-50.46.13C409.61,562,425.87,520,329.36,583.32Z" transform="translate(-28 -203.48)"/><path class="cls-2" d="M436.84,524.06c-26.83-8.73-34.48,9.19-15.28,20.52,7,4.15,18.89,8.17,37.3,16.69-1.43,17.31-17.71,50.53-38.79,62.63s53.32,24.52,53.32,24.52,19.36-61.06,30.48-74.29c17.55,3.4,44.48,6.6,61.08,7.06s23.3-21.84-2.19-24.5S463.49,532.73,436.84,524.06Z" transform="translate(-28 -203.48)"/><path class="cls-2" d="M939.11,706.91s41.06,7.28,70.32,16.19-41.31,58.76-90.19,67.65c-61.85,11.25-116.4.24-116.4.24Z" transform="translate(-28 -203.48)"/><path class="cls-3" d="M219.94,748.44s-6.2-15.28,54.58-31.44c26.59-7.07,79.48-32.59,99.55-55.8,51.51-59.56,97.72-42.28,125.81-21.26s35.85,54.95,76,83.16,104.54,23.56,165.83-4.49,152.27-50.23,214.86-30.88c43.91,13.58,17.91,28.23-37.29,67.42-74.62,53-123.76,61.43-171.55,69.66-90.54,15.57-142.35,51.74-142.35,51.74l-62,1.34s-21.68-118-142.75-143.66C309.45,715,233.34,768.45,219.94,748.44Z" transform="translate(-28 -203.48)"/><path class="cls-2" d="M42,852.05s18.67,112.7,177.78,142.1c166.7,30.8,418,12.54,571-15.83,179-33.17,232.12-89.55,248.08-137.94-94.64,0-155.59,5.55-248.08,20.55-52,8.43-129.73,26.51-216.89,33.65C398.59,908.94,164.88,898,42,852.05Z" transform="translate(-28 -203.48)"/><path class="cls-4" d="M70.85,817.38S37,839.19,132.32,852.05c106.52,14.38,417.59,39.56,556.85,16.54,168.9-27.92,301.22-48.59,345.64-38.05,32.62,7.73,16,23.16,5.8,23.35-33.12.61-160.43,6.34-218.73,15.57s-197.72,34-326.6,34.52c-144.15.58-333.76,3.06-420.59-27.43C14.69,855.48,11.56,818.78,70.85,817.38Z" transform="translate(-28 -203.48)"/><path class="cls-5" d="M215.36,732.87S357,626.07,430.1,613.67s108.3,27.8,42.82,61.46S318.66,738,240,757.51C202.32,766.85,168.69,767.34,215.36,732.87Z" transform="translate(-28 -203.48)"/><path class="cls-1" d="M292.09,628.75s25.37-26.57,77.84-61.17c14.56-9.6,37.52-10.41,14,7.72S304.41,622.62,292.09,628.75Z" transform="translate(-28 -203.48)"/><path class="cls-6" d="M343.06,673s72.17-42.45,95.75-47.6c23-5,29.2-.19,29.23,3.4.12,11.44-29.39,15.42-41.55,19.67C405.55,655.73,343.06,673,343.06,673Z" transform="translate(-28 -203.48)"/><path class="cls-2" d="M436.85,776.83s-53.76,0-116,31.08c-31.75,15.85-51.56,30.24-51.56,30.24s141.45-37.23,192.36,2.23c32.34,25.07,40.12,37.29,40.12,37.29l32.12.22S504.89,802.87,436.85,776.83Z" transform="translate(-28 -203.48)"/><path class="cls-7" d="M631.08,312.11c7.26-3.6,13.62-4,19.55-10.08a55,55,0,0,0,13-21.68L678.76,290a74.6,74.6,0,0,1,2,11,44.92,44.92,0,0,0,2,5.24c-7.94,4.83-22.2,12.67-38.11,17.51C641.34,315.67,636.27,313.62,631.08,312.11Z" transform="translate(-28 -203.48)"/><path class="cls-3" d="M615.71,351.9c6.66-5.79,13.71-8.87,21.1-13,4.11-2.28,11.23-5.38,8.74-13-.26-.82-.57-1.5-.87-2.22,15.91-4.84,30.17-12.68,38.11-17.51,1.23,2.93,6.53,12,9.44,14.9,11.92,11.76,31.82,14.47,39.54,34.8,20.39,53.69-11.16,96.94-6.94,120.75,5.93,33.47,16.58,72.8,16.58,72.8H626.23s10.58-39,10-65.87c-.63-28-11.16-79-11.16-79s-21.82,29.57-41.26,51.63c-8.3-6.59-19.24-15.27-27.55-21.82C570.5,410,597.67,367.59,615.71,351.9Z" transform="translate(-28 -203.48)"/><path class="cls-7" d="M597.56,273.71c2.78-4.59,4.77-6.86,3-13-2.77-9.7,1.68-22.27,5.12-26.57,9.94-12.38,14.38-11.35,14.38-11.35,12.16,0,43.09,26.71,45.95,33.5,2.27,5.4,9.14,19.39,12.73,33.67l-15.13-9.64s-3.85,24.86-23.2,34.47c-8.14-3.91-18.51,2.82-22.54,3.56-5.18.95-12.65-1.81-12.56-6.62.07-3.68-.67-3.69-1.92-4.46-1.77-1.11-2.66-1.94-1.48-4-2-1-4.35-1.56-2.56-4.08,1.57-2.2,1.5-3.95-2.25-6.09-2.18-1.25-7.77-1.25-7.63-4.22C589.65,285.25,595.76,276.7,597.56,273.71Z" transform="translate(-28 -203.48)"/><path class="cls-2" d="M705.19,210.68a21.1,21.1,0,1,1-29.86-1.93A21.15,21.15,0,0,1,705.19,210.68Z" transform="translate(-28 -203.48)"/><path class="cls-8" d="M610.42,229.19s7.5,16.41,16.32,26.36c3.37,3.81,10.44,8.34,19.93,9.67,3.48-7.57,9.21-9.24,12.2-8.23s7,4.68,7.53,11.18c.37,4.64-2.77,12.18-2.77,12.18S676.51,295,681,302c1.44-6.65,3.35-8.33,9-15.45s10.16-17.69,9.73-31c-.42-12.68-4.71-23.84-17.18-35.44C671.61,209.88,642.83,196.79,610.42,229.19Z" transform="translate(-28 -203.48)"/><path class="cls-8" d="M626.23,549.5s-60,46.34-74.84,58.17-43.95,38.66-43.95,38.66l34.34,43.85,94.55-61.43-37.11,78.16,51.58,23s58.33-53.44,74-81.49,25.05-65.09,16.61-98.92Z" transform="translate(-28 -203.48)"/><path class="cls-7" d="M424.26,519c5.88-7.91,22.93-16,42.5-26.16,29.85-15.44,76.75-35.38,83.9-48.5,1.5-2.75,3.4-6.1,5.58-9.85,8.31,6.55,19.25,15.23,27.55,21.82A219,219,0,0,1,568,472.73c-20.66,18.78-74.87,27-96,43.66-5.58,4.38-4.82,11-3.12,17.43-6.39-2.41-7.82-2.48-14.07-3.64-4.58-.86-17.11,5.08-20.25,20.51C417.48,552.89,409.9,538.31,424.26,519Z" transform="translate(-28 -203.48)"/><path class="cls-7" d="M673.86,400.73s-30.92,57.09-48.39,69.18c-17.63,12.21-86.81,51.83-95.4,62.85-6,7.64-18.17,28.39-8.14,42.51,6.1,8.59,21.7,4.75,21.7,4.75s-4.39-14.91-1.13-20.13c3.39-5.42,13.74-4.1,13.74-4.1s.76-16.71,8.64-21.22,65.73-30.51,81.08-38.25c22.17-11.18,60.56-65.51,60.56-65.51Z" transform="translate(-28 -203.48)"/><path class="cls-5" d="M710.53,342.82c-10.42,2-18,17.38-29.48,36.21-4.35,7.11-33.48,65-33.48,65l32.14,21.68s45.09-44.76,55.53-69.48C740.75,383.17,738.52,337.43,710.53,342.82Z" transform="translate(-28 -203.48)"/><path class="cls-7" d="M599.22,706.91s-13.08,19.38-2.58,39.23c5.71,10.79,98.42,52.86,109.17,58.53s38.77,15.37,40.39,25c.52,3.09-6.33,7.83-16.73,12.81-5.1,2.44-13.17,7.23-26.49,12.47-7.63,3-1.07,11.62-1.07,11.62s36.4-4.81,54.32-8.77c12.13-4.92,31.23-20.75,27-30.46-3.65-8.47-12.19-13.33-18.09-19.23-12.66-12.66-74.63-55.76-99.67-70.62C648.66,727.49,599.22,706.91,599.22,706.91Z" transform="translate(-28 -203.48)"/></svg>