<svg xmlns="http://www.w3.org/2000/svg" width="870" height="294.02" viewBox="0 0 870 294.02"><defs><style>.cls-1{isolation:isolate;}.cls-2,.cls-4{fill:#408d00;}.cls-3{opacity:0.6;}.cls-3,.cls-4{mix-blend-mode:multiply;}.cls-4{opacity:0.34;}.cls-5{opacity:0.45;mix-blend-mode:screen;}</style></defs><title>Coconut Tree Dahan 5</title><g class="cls-1"><g id="Layer_1" data-name="Layer 1"><path class="cls-2" d="M930,418.59S805,172.65,484.68,183.44l61,55.88-138.79-38S186,194.09,60,448.19c0,0,191-65.9,396.28,21.18l19-69.4,52.43,71.08S870,503.41,930,418.59Z" transform="translate(-60 -183.09)"/><g class="cls-3"><path class="cls-2" d="M895.51,389.19c-.27.52-6.2-1.67-16.35-5.89L861,375.54c-7-3.16-14.88-6.5-23.77-9.57-34.87-14-82.74-28.7-131.37-39.84-48.91-10.06-98.43-16.31-135.75-18.09-18.62-1.57-34.22-.83-45.1-1.28l-12.63-.19c-2.91-.08-4.47,0-4.47,0l-17,.39-19.52.43-12,.27-13.28,1.06c-37.1,2-86.23,8.94-134.77,19.29-48.25,11.5-95.67,26.63-130.24,40.77-8.81,3.12-16.65,6.54-23.54,9.72l-18,7.86c-10.06,4.27-15.94,6.5-16.21,6s5.08-3.76,14.68-9l17.42-9.37a236,236,0,0,1,23.08-11.22c34-16.13,81.42-33.21,130-46.37,48.86-12,98.68-20.33,136.39-23.21l13.5-1.39,12.22-.54,19.88-.86,17.33-.74s1.59-.06,4.56.08l12.88.45c11.07.68,27,.28,45.89,2.31,38,2.68,88.18,10.28,137.43,22,49,12.8,96.84,29.46,131.2,45.43A239.43,239.43,0,0,1,863.06,371l17.6,9.28C890.37,385.46,895.78,388.67,895.51,389.19Z" transform="translate(-60 -183.09)"/></g><path class="cls-4" d="M930,418.59S814.53,191.79,521.54,183.46c64.54,14,210.68,55.5,266.8,153l-79.8-22S617.3,241.29,514.07,210.37l31.59,28.95-13.23-3.63c22.13,16.93,47.42,38.8,65.19,61.85,0,0-120.24-37-198.42-28.15l36.52,16.52S328.57,294,274.63,312.49c0,0-54.43-12.46-110.59-6.9Q157.13,312,150.26,319c23.24,2.6,51.89,7.69,67.78,17.68,0,0-70.54,3.88-138.85,76.23-6.33,10.78-12.52,22-18.47,33.88,43.76-29,160.86-96.39,301.63-93.9l-47.23,77.48c9.25,1.32,18.6,2.82,28.1,4.65l85.55-110.28L379.16,443.18c2.27.59,4.57,1.26,6.85,1.88l94.37-129.24,170.94,26.5L529.39,471.21c1.53.13,4.16.36,7.86.66,45.14-24.6,165.23-90.91,203.1-120.49l82.29,31.48s-41.71,52-101.76,93.27C809.66,472.66,901.53,458.8,930,418.59Z" transform="translate(-60 -183.09)"/><g class="cls-5"><path class="cls-2" d="M541,194.14c.34-2.3,29.68,1.43,57.4,11.93,27.76,10.15,53.32,25,53.32,25s24.46,16.07,46.83,34.46,43.71,37.74,42.32,39.56-25.39-14.24-49.37-29.85-48.59-29.66-48.59-29.66a485.65,485.65,0,0,0-49.22-28.42C568.27,204.24,540.57,196.46,541,194.14Z" transform="translate(-60 -183.09)"/><path class="cls-2" d="M185.61,297.08c-1.6-1.84,38.45-35.27,85.63-57.75,23.31-11.49,47.85-20.72,66.91-25.89a259.06,259.06,0,0,1,32.22-7,220.37,220.37,0,0,1,32.93-1.7c19.84.15,46.38,4.52,70.78,13.77,24.54,9,47.17,21.46,63.64,31.33s27,17.22,26.44,18.21-12.22-4.31-29.53-12.37-40.4-18.65-64.35-25.79c-23.92-7.42-48.51-10.18-66.95-9.52a217.56,217.56,0,0,0-30.64,2.88A258.16,258.16,0,0,0,342,228.6c-18.32,4.09-42.41,11.82-65.8,21.66C229.05,269.32,186.93,298.89,185.61,297.08Z" transform="translate(-60 -183.09)"/><path class="cls-2" d="M105.44,384.32c-2-1.13-.17-8.76,3.17-15.9a94.85,94.85,0,0,1,7.89-13.59,94.38,94.38,0,0,1,12.73-9.07c6.76-4,14.14-6.54,15.46-4.61s-3.31,7.8-7.5,13.6-8.13,11.51-8.13,11.51l-10.75,9.24C112.91,380.25,107.49,385.46,105.44,384.32Z" transform="translate(-60 -183.09)"/><path class="cls-2" d="M319.92,417.82c-.33,2.35-25.14.77-49.77-.75s-49.06-2.17-49.06-2.17-24.14-2.62-48.42-3.15c-24.28-.73-48.65,1.66-49.12-.65s23.64-9,48.63-11.35A430,430,0,0,1,222.13,398s25,2.54,49.48,7.2S320.24,415.53,319.92,417.82Z" transform="translate(-60 -183.09)"/><path class="cls-2" d="M370.1,430.3c-2-1.24.8-9.76,3.76-18L380,396l10-14.17c5.16-7,10.63-14.08,12.77-13.13s.51,9.81-2,18.4-5.8,16.85-5.8,16.85-5,7.43-10.75,14.34S372.08,431.54,370.1,430.3Z" transform="translate(-60 -183.09)"/><path class="cls-2" d="M631.94,355.94c1.25,2-19.82,18.19-37.74,37.33a367.83,367.83,0,0,0-33.07,40.24l-6,7.45-7.34,9.56c-4.86,6.51-11.7,10-17.78,12.52l-4.14-10.27c-.71-1.72-1.4-3.45-2.21-5l-1.54-3a90.65,90.65,0,0,0-6-9.67,158.41,158.41,0,0,0-14.32-17.31c-9.61-10.17-17.19-17.59-16.21-18.79s10.06,4,21.65,12.76a129.35,129.35,0,0,1,17.83,16.18,96.51,96.51,0,0,1,8,10.15c.44.66,1.48,2.35,1.43,2.17l.41.43.6.61c.59,0,1.08-1.27,1.14-1.54,2-3.12,3.74-5.89,5.21-8.19,3.53-5.21,5.65-8.32,5.65-8.32S564.92,401.79,586,384.5C606.85,366.86,630.72,353.93,631.94,355.94Z" transform="translate(-60 -183.09)"/><path class="cls-2" d="M593.58,460.13c.28-2.32,30.22-.85,60-.73,14.91.12,29.81,0,41-.23,11.61.17,14.93-2.07,14.93-2.07a15,15,0,0,0,3.17-1.59,119.13,119.13,0,0,0,10-7.58c8.62-6.91,19.91-16.38,30.94-26.21,22.17-19.55,42.78-41,44.58-39.54s-15.7,25.9-36.14,48.07c-10.15,11.12-20.86,21.75-29.12,29.48A122.9,122.9,0,0,1,722,469.26a32,32,0,0,1-5.76,3.41,28.79,28.79,0,0,1-6.71,1.87c-4.21.77-9.76.64-15.27.27-11.32-.64-26.38-1.76-41.38-3.43C622.89,468.17,593.28,462.46,593.58,460.13Z" transform="translate(-60 -183.09)"/></g></g></g></svg>