<svg xmlns="http://www.w3.org/2000/svg" width="820" height="289.87" viewBox="0 0 820 289.87"><defs><style>.cls-1{isolation:isolate;}.cls-2,.cls-4{fill:#3b8f01;}.cls-3{opacity:0.6;}.cls-3,.cls-4{mix-blend-mode:multiply;}.cls-4{opacity:0.34;}.cls-5{opacity:0.45;mix-blend-mode:screen;}</style></defs><title>Coconut Tree Dahan 3</title><g class="cls-1"><g id="Layer_1" data-name="Layer 1"><path class="cls-2" d="M109,650.77s21.6-221.81,323.45-266l-35.19,55.79,114.37-54.09S714.13,344,929,530.92c0,0-202.84-22.26-360.17,82.93l-44.37-53.6-21.38,66.81S197.44,710.19,109,650.77Z" transform="translate(-109 -382.31)"/><g class="cls-3"><path class="cls-2" d="M129.75,621c.45.38,5.12-2.39,12.93-7.52l13.93-9.36A203.38,203.38,0,0,1,175,592.37c27-17.2,65.86-37.16,106.78-54.32C323.38,521.72,367,508.41,401,500.77c16.7-4.36,31.49-6.34,41.42-8.51L454.1,490c2.68-.55,4.15-.74,4.15-.74l16-2.49,18.31-2.88,11.26-1.77,12.75-1.34c35.25-4.52,83.59-7,132.68-6.54,49.27,1.41,99.17,5.93,136.73,11.78,9.4,1.09,18,2.59,25.62,4.05l19.79,3.44c11,1.83,17.31,2.67,17.36,2.2s-6.16-2.23-17.12-5L811.79,486c-7.65-1.9-16.3-3.82-25.76-5.35-37.84-7.55-88.45-13.67-138.68-16.38-50-1.73-99.53-.29-135.7,3.59L498.58,469,487,470.53l-18.81,2.59-16.39,2.26s-1.49.22-4.2.83l-11.8,2.49c-10,2.4-25,4.7-41.77,9.49-34.25,8.47-78,23-119.27,40.75-40.61,18.58-78.68,40.12-104.47,58.88a171.5,171.5,0,0,0-17.41,12.91L140.1,611.24C133.1,617.12,129.3,620.64,129.75,621Z" transform="translate(-109 -382.31)"/></g><path class="cls-4" d="M109,650.77s20.08-204.58,289.2-259.9C343.59,413,223.73,471.14,209.08,560.17l65.69-31.23S331.43,454,415.49,411.63l-18.23,28.91,10.9-5.16C394.11,452.89,379,475,371.36,496.75c0,0,97.55-50.12,173.6-55.87l-27.59,19.55s102.69-11.14,160-4.93c0,0,45.79-19.21,100.12-24q8.92,4.13,18,8.7c-20.59,6-45.27,14.88-56.19,25.68,0,0,67-8.51,158.36,39.34,10,7.77,20.1,15.9,30.21,24.65C876,513.43,741.21,477.72,611.34,503.07L685,558.61c-8.09,2.61-16.21,5.38-24.34,8.45l-121.93-76,91.66,88.62c-1.88.86-3.76,1.79-5.64,2.67L487.36,492.28l-148.68,50,162.9,85.2c-1.37.37-3.72,1-7.05,1.84-51.42-12.64-188.54-47-235.12-64.89L195,603.78S253.8,639.37,325.5,663.2C241.65,675.06,150.92,678.94,109,650.77Z" transform="translate(-109 -382.31)"/><g class="cls-5"><path class="cls-2" d="M384.23,402.82c-1.21-1.82-27,6.09-48.77,19.26a276.9,276.9,0,0,0-39.95,29.23,400.42,400.42,0,0,0-30.28,35.94c-13.82,18.68-26.11,38.1-24.11,39.35s18.12-15.84,34.4-32.58,33.75-32.31,33.75-32.31a329.85,329.85,0,0,1,34.82-31.38C362.76,415.6,385.51,404.65,384.23,402.82Z" transform="translate(-109 -382.31)"/><path class="cls-2" d="M754.13,428.15c.78-1.76-49.3-22.47-101.8-33-26.09-5.54-52.46-9-72.15-10.09a304.08,304.08,0,0,0-32.66-.43,238.18,238.18,0,0,0-31.26,4.06,190.08,190.08,0,0,0-60.49,23C436.41,423,420.19,437,408.67,447.8s-18.46,18.54-17.57,19.26,9.71-5.54,22.69-15,30.38-21.94,49.89-31.75a193.74,193.74,0,0,1,58.57-18.86,241.09,241.09,0,0,1,29.58-2.73,295.12,295.12,0,0,1,30.6-.67c18.6.31,44,2.64,69.49,6.81C703.07,412.65,753.6,429.85,754.13,428.15Z" transform="translate(-109 -382.31)"/><path class="cls-2" d="M862.2,486.21c1.47-1.26-3.22-7.18-9.07-12.47a119.55,119.55,0,0,0-12.56-9.81,128.26,128.26,0,0,0-15.32-5.31c-7.81-2.12-15.65-3-16.14-1.21s6.08,5.83,12.2,9.88l12,8.06,13.54,5.78C853.69,484.12,860.73,487.49,862.2,486.21Z" transform="translate(-109 -382.31)"/><path class="cls-2" d="M675.74,549.12c1.21,1.87,23.66-3.53,46-8.85s44.76-9.9,44.76-9.9,21.43-6.13,43.79-10.6,45.86-6.69,45.41-8.65-25.42-3.42-49.56-1.23a448.24,448.24,0,0,0-47.12,6.8s-22.26,6.22-43.22,14.08S674.56,547.31,675.74,549.12Z" transform="translate(-109 -382.31)"/><path class="cls-2" d="M633.9,567.64c1.37-1.35-4.5-7.85-10.43-14.12l-12-12.32-14.75-9.93c-7.5-4.9-15.28-9.75-16.92-8.62s3.3,8.1,8.93,14.72,11.86,12.82,11.86,12.82,7.51,5.24,15.51,9.94S632.53,569,633.9,567.64Z" transform="translate(-109 -382.31)"/><path class="cls-2" d="M361.93,550.19c-.41,1.81,25.42,11.59,49.44,24.28a488.69,488.69,0,0,1,46.22,27.43L466,607l10.5,6.59c7,4.53,14.71,6.23,21.34,7.29q-.06-4.44-.1-9.08c0-1.52,0-3,.11-4.47l.28-2.71a56.91,56.91,0,0,1,1.82-8.9,96.06,96.06,0,0,1,6.66-16.52c5-9.91,9.21-17.24,7.83-18.06-1.23-.73-7.79,5-15.21,14a80.4,80.4,0,0,0-10.35,16.18A58.87,58.87,0,0,0,485.3,601c-.16.61-.47,2.17-.5,2l-.21.42-.32.6c-.55.1-1.5-.86-1.65-1.07l-8-5.84-8.45-5.86a410,410,0,0,0-50.57-25.31C389.45,555,362.3,548.34,361.93,550.19Z" transform="translate(-109 -382.31)"/><path class="cls-2" d="M437.66,629c-1.16-1.85-28.41,4.3-56.09,9.34-13.82,2.57-27.71,4.93-38.16,6.6-10.73,2.06-14.68.78-14.68.78a19.86,19.86,0,0,1-3.55-.78c-2.38-.64-6.79-2.43-12.19-4.55-10.66-4.22-24.8-10.09-38.84-16.31-28.11-12.32-55.54-26.46-56.64-25s24.56,18.58,52.08,33.33c13.71,7.41,27.75,14.33,38.41,19.28,5.28,2.43,9.72,4.58,13.78,6a43,43,0,0,0,6.67,1.83,34.71,34.71,0,0,0,6.95.42,69.89,69.89,0,0,0,14.3-2.31c10.27-2.4,23.84-5.81,37.13-9.66C413.51,640.46,438.84,630.89,437.66,629Z" transform="translate(-109 -382.31)"/></g></g></g></svg>