<svg xmlns="http://www.w3.org/2000/svg" width="266.62" height="997.4" viewBox="0 0 266.62 997.4"><defs><style>.cls-1{isolation:isolate;}.cls-2{fill:#b34400;}.cls-3{fill:#ffff07;opacity:0.12;mix-blend-mode:luminosity;}.cls-4{fill:#97380d;}</style></defs><title>Coconut Tree Batang</title><g class="cls-1"><g id="Layer_1" data-name="Layer 1"><path class="cls-2" d="M182.48,1064.4l80.92-8a0,0,0,0,0,0,0q-.33-23.05-.35-45.72c0-3.69,0-7.38,0-11q.13-43.93,1.33-86.34c.15-5.09.31-10.14.46-15.2V898q1.74-51.35,4.93-100.37c.33-4.58.61-9.16.94-13.69q3.61-51.72,8.88-100.73v0c.29-2.85.58-5.71.92-8.57q6.09-55.77,14.11-107.83c.38-2.74.81-5.45,1.24-8.15q8.86-56.85,19.81-109c.49-2.46,1-4.93,1.52-7.39q9.44-44.37,20.17-85.14c.74-2.85,1.52-5.72,2.26-8.58q15.39-57.36,33-107.08c.86-2.54,1.76-5,2.65-7.55C390.6,191.18,407,153,424.19,119.55c.71-1.46,1.47-2.93,2.27-4.36q11.07-21.42,22.59-40a0,0,0,0,0,0,0L429.29,67h0c-20.15,22.72-39.16,50.68-57,83.19-1.15,2-2.26,4.08-3.41,6.16-17.91,33.43-34.67,71.41-50.23,113.21-.84,2.25-1.68,4.51-2.52,6.8-12.53,34.37-24.29,71.21-35.18,110.12-.65,2.16-1.25,4.31-1.86,6.49q-13.11,47.5-24.63,98.81c-.48,2.17-1,4.4-1.47,6.61-7.84,35.39-15.08,71.94-21.7,109.37-.59,3.17-1.13,6.38-1.68,9.54-5.08,29-9.73,58.51-14.06,88.42-.35,2.7-.77,5.44-1.16,8.18q-7.63,54.45-13.73,110.42l-.79,7c-4,37.83-7.46,76.06-10.3,114.42-.23,2.65-.42,5.29-.57,7.88q-4.05,55.3-6.49,110.77A0,0,0,0,0,182.48,1064.4Z" transform="translate(-182.44 -67)"/><path class="cls-3" d="M449.06,75.13q-11.51,18.63-22.61,40.05c-.79,1.45-1.55,2.89-2.26,4.36C407,153,390.6,191.19,375.26,233.9c-.89,2.5-1.81,5-2.65,7.56q-17.53,49.65-33,107.09c-.74,2.83-1.52,5.69-2.26,8.56q-10.71,40.74-20.17,85.15c-.5,2.44-1,4.91-1.53,7.38q-10.86,52.13-19.8,109c-.42,2.71-.87,5.41-1.23,8.17q-8,52.08-14.13,107.82c-.32,2.86-.61,5.72-.9,8.58v0q-5.24,49-8.87,100.73c-.35,4.54-.63,9.11-1,13.68q-3.19,49.05-4.94,100.38v.08q-.22,7.56-.44,15.21-1.23,42.44-1.34,86.33c0,3.65,0,7.33,0,11q0,22.65.34,45.72s0,0,0,0l-15.31,1.52c.07-666.52,158-935,192.86-986.11L449,75.1S449.06,75.13,449.06,75.13Z" transform="translate(-182.44 -67)"/><path class="cls-4" d="M199.46,895.32l51.64,14.29L264.85,898h0a0,0,0,0,0,0,0l-65.35-2.74S199.42,895.31,199.46,895.32Z" transform="translate(-182.44 -67)"/><path class="cls-4" d="M199.81,831.25s0,0,0,0l58.38-.25-57.59-6.7s0,0,0,0Z" transform="translate(-182.44 -67)"/><path class="cls-4" d="M188.93,953.55a0,0,0,0,0,0,0l59.55-2.82-59-5s0,0,0,0C189.27,948.37,189.08,951,188.93,953.55Z" transform="translate(-182.44 -67)"/><path class="cls-4" d="M200.18,1001.72l62.87,8.91s0,0,0,0c0-3.66,0-7.33,0-10.94,0,0,0,0,0,0l-62.84,2A0,0,0,0,0,200.18,1001.72Z" transform="translate(-182.44 -67)"/><path class="cls-4" d="M214.33,778.7l55.41,18.91s0,0,.05,0c.32-4.55.6-9.1.93-13.61,0,0,0,0,0,0l-56.35-5.29S214.29,778.69,214.33,778.7Z" transform="translate(-182.44 -67)"/><path class="cls-4" d="M214.33,713.88a0,0,0,0,0,0,0l50.94,13-49.77-21.18s0,0-.05,0C215.13,708.45,214.71,711.17,214.33,713.88Z" transform="translate(-182.44 -67)"/><path class="cls-4" d="M226.3,670.53l53.25,12.63s0,0,.05,0c.29-2.83.57-5.66.9-8.49,0,0,0,0,0,0l-54.16-4.14A0,0,0,0,0,226.3,670.53Z" transform="translate(-182.44 -67)"/><path class="cls-4" d="M229.58,617.32l47.08,11.1a0,0,0,1,0,0-.06l-45.42-20.57a0,0,0,0,0,0,0c-.58,3.15-1.12,6.33-1.66,9.47C229.55,617.3,229.56,617.32,229.58,617.32Z" transform="translate(-182.44 -67)"/><path class="cls-4" d="M248.58,554.18l46,12.58s0,0,0,0c.38-2.72.81-5.4,1.23-8.08,0,0,0,0,0,0l-47.23-4.49S248.54,554.17,248.58,554.18Z" transform="translate(-182.44 -67)"/><path class="cls-4" d="M252.93,498.37s0,0,0,0l38.65,13.45-37.16-20.05a0,0,0,0,0-.06,0C253.91,494,253.4,496.18,252.93,498.37Z" transform="translate(-182.44 -67)"/><path class="cls-4" d="M273.08,438.46l42.56,11.18a.05.05,0,0,0,0,0c.49-2.44,1-4.89,1.5-7.33,0,0,0,0,0,0Z" transform="translate(-182.44 -67)"/><path class="cls-4" d="M279,393a.08.08,0,0,0,0,.05l35.25,12.18-33.38-18.66s-.05,0-.05,0C280.23,388.66,279.63,390.79,279,393Z" transform="translate(-182.44 -67)"/><path class="cls-4" d="M300.17,342.26l37.15,14.84a0,0,0,0,0,.05,0c.73-2.84,1.51-5.68,2.24-8.51,0,0,0,0,0,0l-39.39-6.33S300.13,342.25,300.17,342.26Z" transform="translate(-182.44 -67)"/><path class="cls-4" d="M316.07,276.33a0,0,0,0,0,0,.05L349.71,287l-31.09-17.42s-.05,0-.05,0C317.73,271.84,316.9,274.07,316.07,276.33Z" transform="translate(-182.44 -67)"/><path class="cls-4" d="M343.49,224.14l29.08,17.29s0,0,.05,0c.84-2.51,1.73-5,2.62-7.48,0,0,0,0,0,0Z" transform="translate(-182.44 -67)"/><path class="cls-4" d="M368.83,156.32a0,0,0,0,0,0,.05L393.66,167l-21.41-16.77s0,0-.05,0C371.06,152.25,370,154.27,368.83,156.32Z" transform="translate(-182.44 -67)"/><polygon class="cls-4" points="241.74 52.55 219.64 40.28 244.01 48.19 241.74 52.55"/></g></g></svg>