<svg xmlns="http://www.w3.org/2000/svg" width="648.3" height="546.73" viewBox="0 0 648.3 546.73"><defs><style>.cls-1{isolation:isolate;}.cls-2,.cls-4{fill:#7dae20;}.cls-3{opacity:0.6;}.cls-3,.cls-4,.cls-7{mix-blend-mode:multiply;}.cls-4,.cls-7{opacity:0.34;}.cls-5{opacity:0.45;mix-blend-mode:screen;}.cls-6,.cls-7{fill:#408d00;}</style></defs><title>Coconut Tree Dahan 2</title><g class="cls-1"><g id="Layer_1" data-name="Layer 1"><path class="cls-2" d="M90.4,323S323,208.23,558,396.7l-77.36,7.72,125.89,49.51s170.3,118.94,122.09,381.18c0,0-106.65-157.13-310.23-207.18L443.18,565l-79.49,24S87.84,420.63,90.4,323Z" transform="translate(-90.38 -288.38)"/><g class="cls-3"><path class="cls-2" d="M132.92,320.26c-.09.54,5.61,2.24,15.62,4.77l18.08,4.41c7,1.53,14.85,3.49,23.28,6.17,34.12,9.11,78.44,25,121.32,44,42.48,20,83.28,43.15,112.38,62.82,14.89,9.3,26.23,18.65,34.67,24.43l9.61,7c2.24,1.58,3.36,2.51,3.36,2.51l12.58,9.87,14.45,11.32,8.9,7,9.39,8.27c26.82,22.39,59.88,55.29,90.6,90.41,29.85,35.82,57,73.91,75.08,104,4.88,7.32,8.85,14.3,12.25,20.57l9.15,16.08c5.16,8.87,8.34,13.86,8.84,13.62s-1.71-5.69-6-15.07c-2.17-4.68-4.81-10.35-7.84-16.86a221.37,221.37,0,0,0-11-21.44C671.08,672.76,645,633.23,615.86,596c-30-36.55-62.84-70.86-89.61-94.27l-9.38-8.64-8.9-7.29L493.5,473.91,480.87,463.6s-1.16-.93-3.48-2.5l-9.94-6.92c-8.73-5.72-20.47-15-35.85-24.1-30.08-19.35-72.17-41.91-115.85-60.82-44.09-17.95-89.48-32.35-124.35-39.67a224.41,224.41,0,0,0-23.78-4.79l-18.48-2.93C138.89,320.35,133,319.72,132.92,320.26Z" transform="translate(-90.38 -288.38)"/></g><path class="cls-4" d="M90.4,323S305,217.25,530.27,376c-56.46-25.81-189.84-76.84-287-35l72.48,28.34s109.87-3.69,205,31.16l-40.08,4,12,4.72c-26.19.29-57.54,2.5-83.9,9.85,0,0,111.31,39.89,165.21,90.54l-36.79-8.13s76.12,66.4,106.3,110.71c0,0,48,21.27,87.14,57.07q1.57,8.76,2.81,17.87c-19-11.12-43.4-23.42-61-24.85,0,0,50.92,42.63,61.6,135.56-1.31,11.68-2.94,23.59-5.17,35.91-16.61-46.48-66.82-163.14-174.19-240.52l-8.07,84.92c-7.71-4.22-15.59-8.36-23.77-12.33l-2.32-131.18L491.22,651.63c-2.05-.83-4.15-1.62-6.22-2.44l1.73-150.43-143.6-76.29,19.22,165.67c-1.23-.76-3.34-2.07-6.29-3.93-20.13-43.93-73.2-161.46-85.05-205l-79.67-22.63s2.13,62.6,24.08,127.5C150.55,431.43,89.19,369.27,90.4,323Z" transform="translate(-90.38 -288.38)"/><g class="cls-5"><path class="cls-2" d="M509.61,373c1-1.92-23.14-15.63-49.92-23.34-26.61-8-54.18-11.24-54.18-11.24S378,336.78,350.85,338s-54.16,3.8-54.13,5.95,27.12,3.58,54,5.33,53.28,5,53.28,5a458.78,458.78,0,0,1,53,6.32C483.39,365.29,508.63,375,509.61,373Z" transform="translate(-90.38 -288.38)"/><path class="cls-2" d="M719.18,650.63c2.24-.48-9.08-48.2-31.94-91.68-11.08-21.78-24.36-42.55-35.8-57.17a243.35,243.35,0,0,0-20.28-23.45,210,210,0,0,0-23.84-19.82c-15-11.05-37.46-22.7-61-29.48-23.52-7.07-47.6-10.4-65.55-12.25s-30-2.23-30.16-1.18,11.63,3.65,29.2,7.32,40.91,8.7,63,16.82c22.18,7.88,42.25,19.65,55.76,30.53a204.49,204.49,0,0,1,21.44,19.42A241.94,241.94,0,0,1,640,511c11.49,13.4,25.27,32.78,37.34,53.36C702.11,605.27,717.17,651.25,719.18,650.63Z" transform="translate(-90.38 -288.38)"/><path class="cls-2" d="M730.41,761.45c2.18.3,5.05-6.5,6.56-13.76A88.56,88.56,0,0,0,738.69,733a88.2,88.2,0,0,0-4.48-14c-2.85-6.79-7-12.88-9-12.17s-1.89,7.73-2,14.45-.36,13.25-.36,13.25,1.44,6.46,2.89,13S728.23,761.15,730.41,761.45Z" transform="translate(-90.38 -288.38)"/><path class="cls-2" d="M550.09,665.9c-1.07,2,18.5,14.74,37.89,27.46s38.16,26,38.16,26,19.64,11.62,38.22,24.89,35.69,28.64,37.34,27.17S689,751.35,671.48,735.49A403.29,403.29,0,0,0,634.89,706s-20.25-12.17-41.3-22.44S551.13,664,550.09,665.9Z" transform="translate(-90.38 -288.38)"/><path class="cls-2" d="M505.29,647c2.2.18,4.89-7.8,7.31-15.69l4.55-15.75s.22-8.11.45-16.3c.08-8.21-.07-16.58-2.22-17.07s-5.91,7.09-8.87,15-5.13,15.95-5.13,15.95-.41,8.41,0,16.85S503.1,646.86,505.29,647Z" transform="translate(-90.38 -288.38)"/><path class="cls-2" d="M350.05,443.64c-2.05.76,4.68,24.84,7.39,49.35a345.59,345.59,0,0,1,2.24,48.91s.1,3.35.28,9c0,3.18.09,7,.15,11.33,0,7.63,3.18,14.09,6.33,19.42l8.9-5.39c1.51-.89,3-1.81,4.49-2.54l2.85-1.4a88.76,88.76,0,0,1,9.93-3.92,148.61,148.61,0,0,1,20.54-5c13-2.25,22.84-3.57,22.77-5-.05-1.3-9.85-2.61-23.48-2.58a122,122,0,0,0-22.52,2.14,91.11,91.11,0,0,0-11.77,3.12c-.71.25-2.44.94-2.3.83l-.55.09-.8.13c-.45-.33-.09-1.57,0-1.8.26-3.47.49-6.55.68-9.11.27-5.9.43-9.44.43-9.44s-.94-25.87-7.09-50.75C362.79,466,352.1,442.81,350.05,443.64Z" transform="translate(-90.38 -288.38)"/><path class="cls-2" d="M320.26,543.67c1.09-1.91-22.27-17.66-44.79-34.37-11.3-8.3-22.43-16.78-30.71-23.23-8.83-6.41-10.07-10-10.07-10a14.32,14.32,0,0,1-1.49-3A116.63,116.63,0,0,1,230,461.8c-2.6-10.05-5.76-23.54-8.53-37.15-5.68-27.2-9.11-55-11.3-54.87s-2.76,28.34.14,56.54c1.38,14.08,3.46,28.11,5.32,38.59a116,116,0,0,0,2.83,13.3,30.29,30.29,0,0,0,2.42,5.81,26.65,26.65,0,0,0,4,5.18c2.74,2.95,7,6,11.35,8.8,8.88,5.89,20.85,13.53,33.08,20.72C293.67,533.21,319.17,545.59,320.26,543.67Z" transform="translate(-90.38 -288.38)"/></g><path class="cls-2" d="M90.4,323S323,208.23,558,396.7l-77.36,7.72,125.89,49.51s170.3,118.94,122.09,381.18c0,0-106.65-157.13-310.23-207.18L443.18,565l-79.49,24S87.84,420.63,90.4,323Z" transform="translate(-90.38 -288.38)"/><g class="cls-3"><path class="cls-2" d="M132.92,320.26c-.09.54,5.61,2.24,15.62,4.77l18.08,4.41c7,1.53,14.85,3.49,23.28,6.17,34.12,9.11,78.44,25,121.32,44,42.48,20,83.28,43.15,112.38,62.82,14.89,9.3,26.23,18.65,34.67,24.43l9.61,7c2.24,1.58,3.36,2.51,3.36,2.51l12.58,9.87,14.45,11.32,8.9,7,9.39,8.27c26.82,22.39,59.88,55.29,90.6,90.41,29.85,35.82,57,73.91,75.08,104,4.88,7.32,8.85,14.3,12.25,20.57l9.15,16.08c5.16,8.87,8.34,13.86,8.84,13.62s-1.71-5.69-6-15.07c-2.17-4.68-4.81-10.35-7.84-16.86a221.37,221.37,0,0,0-11-21.44C671.08,672.76,645,633.23,615.86,596c-30-36.55-62.84-70.86-89.61-94.27l-9.38-8.64-8.9-7.29L493.5,473.91,480.87,463.6s-1.16-.93-3.48-2.5l-9.94-6.92c-8.73-5.72-20.47-15-35.85-24.1-30.08-19.35-72.17-41.91-115.85-60.82-44.09-17.95-89.48-32.35-124.35-39.67a224.41,224.41,0,0,0-23.78-4.79l-18.48-2.93C138.89,320.35,133,319.72,132.92,320.26Z" transform="translate(-90.38 -288.38)"/></g><path class="cls-4" d="M90.4,323S305,217.25,530.27,376c-56.46-25.81-189.84-76.84-287-35l72.48,28.34s109.87-3.69,205,31.16l-40.08,4,12,4.72c-26.19.29-57.54,2.5-83.9,9.85,0,0,111.31,39.89,165.21,90.54l-36.79-8.13s76.12,66.4,106.3,110.71c0,0,48,21.27,87.14,57.07q1.57,8.76,2.81,17.87c-19-11.12-43.4-23.42-61-24.85,0,0,50.92,42.63,61.6,135.56-1.31,11.68-2.94,23.59-5.17,35.91-16.61-46.48-66.82-163.14-174.19-240.52l-8.07,84.92c-7.71-4.22-15.59-8.36-23.77-12.33l-2.32-131.18L491.22,651.63c-2.05-.83-4.15-1.62-6.22-2.44l1.73-150.43-143.6-76.29,19.22,165.67c-1.23-.76-3.34-2.07-6.29-3.93-20.13-43.93-73.2-161.46-85.05-205l-79.67-22.63s2.13,62.6,24.08,127.5C150.55,431.43,89.19,369.27,90.4,323Z" transform="translate(-90.38 -288.38)"/><g class="cls-5"><path class="cls-2" d="M509.61,373c1-1.92-23.14-15.63-49.92-23.34-26.61-8-54.18-11.24-54.18-11.24S378,336.78,350.85,338s-54.16,3.8-54.13,5.95,27.12,3.58,54,5.33,53.28,5,53.28,5a458.78,458.78,0,0,1,53,6.32C483.39,365.29,508.63,375,509.61,373Z" transform="translate(-90.38 -288.38)"/><path class="cls-2" d="M719.18,650.63c2.24-.48-9.08-48.2-31.94-91.68-11.08-21.78-24.36-42.55-35.8-57.17a243.35,243.35,0,0,0-20.28-23.45,210,210,0,0,0-23.84-19.82c-15-11.05-37.46-22.7-61-29.48-23.52-7.07-47.6-10.4-65.55-12.25s-30-2.23-30.16-1.18,11.63,3.65,29.2,7.32,40.91,8.7,63,16.82c22.18,7.88,42.25,19.65,55.76,30.53a204.49,204.49,0,0,1,21.44,19.42A241.94,241.94,0,0,1,640,511c11.49,13.4,25.27,32.78,37.34,53.36C702.11,605.27,717.17,651.25,719.18,650.63Z" transform="translate(-90.38 -288.38)"/><path class="cls-2" d="M730.41,761.45c2.18.3,5.05-6.5,6.56-13.76A88.56,88.56,0,0,0,738.69,733a88.2,88.2,0,0,0-4.48-14c-2.85-6.79-7-12.88-9-12.17s-1.89,7.73-2,14.45-.36,13.25-.36,13.25,1.44,6.46,2.89,13S728.23,761.15,730.41,761.45Z" transform="translate(-90.38 -288.38)"/><path class="cls-2" d="M550.09,665.9c-1.07,2,18.5,14.74,37.89,27.46s38.16,26,38.16,26,19.64,11.62,38.22,24.89,35.69,28.64,37.34,27.17S689,751.35,671.48,735.49A403.29,403.29,0,0,0,634.89,706s-20.25-12.17-41.3-22.44S551.13,664,550.09,665.9Z" transform="translate(-90.38 -288.38)"/><path class="cls-2" d="M505.29,647c2.2.18,4.89-7.8,7.31-15.69l4.55-15.75s.22-8.11.45-16.3c.08-8.21-.07-16.58-2.22-17.07s-5.91,7.09-8.87,15-5.13,15.95-5.13,15.95-.41,8.41,0,16.85S503.1,646.86,505.29,647Z" transform="translate(-90.38 -288.38)"/><path class="cls-2" d="M350.05,443.64c-2.05.76,4.68,24.84,7.39,49.35a345.59,345.59,0,0,1,2.24,48.91s.1,3.35.28,9c0,3.18.09,7,.15,11.33,0,7.63,3.18,14.09,6.33,19.42l8.9-5.39c1.51-.89,3-1.81,4.49-2.54l2.85-1.4a88.76,88.76,0,0,1,9.93-3.92,148.61,148.61,0,0,1,20.54-5c13-2.25,22.84-3.57,22.77-5-.05-1.3-9.85-2.61-23.48-2.58a122,122,0,0,0-22.52,2.14,91.11,91.11,0,0,0-11.77,3.12c-.71.25-2.44.94-2.3.83l-.55.09-.8.13c-.45-.33-.09-1.57,0-1.8.26-3.47.49-6.55.68-9.11.27-5.9.43-9.44.43-9.44s-.94-25.87-7.09-50.75C362.79,466,352.1,442.81,350.05,443.64Z" transform="translate(-90.38 -288.38)"/><path class="cls-2" d="M320.26,543.67c1.09-1.91-22.27-17.66-44.79-34.37-11.3-8.3-22.43-16.78-30.71-23.23-8.83-6.41-10.07-10-10.07-10a14.32,14.32,0,0,1-1.49-3A116.63,116.63,0,0,1,230,461.8c-2.6-10.05-5.76-23.54-8.53-37.15-5.68-27.2-9.11-55-11.3-54.87s-2.76,28.34.14,56.54c1.38,14.08,3.46,28.11,5.32,38.59a116,116,0,0,0,2.83,13.3,30.29,30.29,0,0,0,2.42,5.81,26.65,26.65,0,0,0,4,5.18c2.74,2.95,7,6,11.35,8.8,8.88,5.89,20.85,13.53,33.08,20.72C293.67,533.21,319.17,545.59,320.26,543.67Z" transform="translate(-90.38 -288.38)"/></g><path class="cls-6" d="M90.4,323S323,208.23,558,396.7l-77.36,7.72,125.89,49.51s170.3,118.94,122.09,381.18c0,0-106.65-157.13-310.23-207.18L443.18,565l-79.49,24S87.84,420.63,90.4,323Z" transform="translate(-90.38 -288.38)"/><g class="cls-3"><path class="cls-6" d="M132.92,320.26c-.09.54,5.61,2.24,15.62,4.77l18.08,4.41c7,1.53,14.85,3.49,23.28,6.17,34.12,9.11,78.44,25,121.32,44,42.48,20,83.28,43.15,112.38,62.82,14.89,9.3,26.23,18.65,34.67,24.43l9.61,7c2.24,1.58,3.36,2.51,3.36,2.51l12.58,9.87,14.45,11.32,8.9,7,9.39,8.27c26.82,22.39,59.88,55.29,90.6,90.41,29.85,35.82,57,73.91,75.08,104,4.88,7.32,8.85,14.3,12.25,20.57l9.15,16.08c5.16,8.87,8.34,13.86,8.84,13.62s-1.71-5.69-6-15.07c-2.17-4.68-4.81-10.35-7.84-16.86a221.37,221.37,0,0,0-11-21.44C671.08,672.76,645,633.23,615.86,596c-30-36.55-62.84-70.86-89.61-94.27l-9.38-8.64-8.9-7.29L493.5,473.91,480.87,463.6s-1.16-.93-3.48-2.5l-9.94-6.92c-8.73-5.72-20.47-15-35.85-24.1-30.08-19.35-72.17-41.91-115.85-60.82-44.09-17.95-89.48-32.35-124.35-39.67a224.41,224.41,0,0,0-23.78-4.79l-18.48-2.93C138.89,320.35,133,319.72,132.92,320.26Z" transform="translate(-90.38 -288.38)"/></g><path class="cls-7" d="M90.4,323S305,217.25,530.27,376c-56.46-25.81-189.84-76.84-287-35l72.48,28.34s109.87-3.69,205,31.16l-40.08,4,12,4.72c-26.19.29-57.54,2.5-83.9,9.85,0,0,111.31,39.89,165.21,90.54l-36.79-8.13s76.12,66.4,106.3,110.71c0,0,48,21.27,87.14,57.07q1.57,8.76,2.81,17.87c-19-11.12-43.4-23.42-61-24.85,0,0,50.92,42.63,61.6,135.56-1.31,11.68-2.94,23.59-5.17,35.91-16.61-46.48-66.82-163.14-174.19-240.52l-8.07,84.92c-7.71-4.22-15.59-8.36-23.77-12.33l-2.32-131.18L491.22,651.63c-2.05-.83-4.15-1.62-6.22-2.44l1.73-150.43-143.6-76.29,19.22,165.67c-1.23-.76-3.34-2.07-6.29-3.93-20.13-43.93-73.2-161.46-85.05-205l-79.67-22.63s2.13,62.6,24.08,127.5C150.55,431.43,89.19,369.27,90.4,323Z" transform="translate(-90.38 -288.38)"/><g class="cls-5"><path class="cls-6" d="M509.61,373c1-1.92-23.14-15.63-49.92-23.34-26.61-8-54.18-11.24-54.18-11.24S378,336.78,350.85,338s-54.16,3.8-54.13,5.95,27.12,3.58,54,5.33,53.28,5,53.28,5a458.78,458.78,0,0,1,53,6.32C483.39,365.29,508.63,375,509.61,373Z" transform="translate(-90.38 -288.38)"/><path class="cls-6" d="M719.18,650.63c2.24-.48-9.08-48.2-31.94-91.68-11.08-21.78-24.36-42.55-35.8-57.17a243.35,243.35,0,0,0-20.28-23.45,210,210,0,0,0-23.84-19.82c-15-11.05-37.46-22.7-61-29.48-23.52-7.07-47.6-10.4-65.55-12.25s-30-2.23-30.16-1.18,11.63,3.65,29.2,7.32,40.91,8.7,63,16.82c22.18,7.88,42.25,19.65,55.76,30.53a204.49,204.49,0,0,1,21.44,19.42A241.94,241.94,0,0,1,640,511c11.49,13.4,25.27,32.78,37.34,53.36C702.11,605.27,717.17,651.25,719.18,650.63Z" transform="translate(-90.38 -288.38)"/><path class="cls-6" d="M730.41,761.45c2.18.3,5.05-6.5,6.56-13.76A88.56,88.56,0,0,0,738.69,733a88.2,88.2,0,0,0-4.48-14c-2.85-6.79-7-12.88-9-12.17s-1.89,7.73-2,14.45-.36,13.25-.36,13.25,1.44,6.46,2.89,13S728.23,761.15,730.41,761.45Z" transform="translate(-90.38 -288.38)"/><path class="cls-6" d="M550.09,665.9c-1.07,2,18.5,14.74,37.89,27.46s38.16,26,38.16,26,19.64,11.62,38.22,24.89,35.69,28.64,37.34,27.17S689,751.35,671.48,735.49A403.29,403.29,0,0,0,634.89,706s-20.25-12.17-41.3-22.44S551.13,664,550.09,665.9Z" transform="translate(-90.38 -288.38)"/><path class="cls-6" d="M505.29,647c2.2.18,4.89-7.8,7.31-15.69l4.55-15.75s.22-8.11.45-16.3c.08-8.21-.07-16.58-2.22-17.07s-5.91,7.09-8.87,15-5.13,15.95-5.13,15.95-.41,8.41,0,16.85S503.1,646.86,505.29,647Z" transform="translate(-90.38 -288.38)"/><path class="cls-6" d="M350.05,443.64c-2.05.76,4.68,24.84,7.39,49.35a345.59,345.59,0,0,1,2.24,48.91s.1,3.35.28,9c0,3.18.09,7,.15,11.33,0,7.63,3.18,14.09,6.33,19.42l8.9-5.39c1.51-.89,3-1.81,4.49-2.54l2.85-1.4a88.76,88.76,0,0,1,9.93-3.92,148.61,148.61,0,0,1,20.54-5c13-2.25,22.84-3.57,22.77-5-.05-1.3-9.85-2.61-23.48-2.58a122,122,0,0,0-22.52,2.14,91.11,91.11,0,0,0-11.77,3.12c-.71.25-2.44.94-2.3.83l-.55.09-.8.13c-.45-.33-.09-1.57,0-1.8.26-3.47.49-6.55.68-9.11.27-5.9.43-9.44.43-9.44s-.94-25.87-7.09-50.75C362.79,466,352.1,442.81,350.05,443.64Z" transform="translate(-90.38 -288.38)"/><path class="cls-6" d="M320.26,543.67c1.09-1.91-22.27-17.66-44.79-34.37-11.3-8.3-22.43-16.78-30.71-23.23-8.83-6.41-10.07-10-10.07-10a14.32,14.32,0,0,1-1.49-3A116.63,116.63,0,0,1,230,461.8c-2.6-10.05-5.76-23.54-8.53-37.15-5.68-27.2-9.11-55-11.3-54.87s-2.76,28.34.14,56.54c1.38,14.08,3.46,28.11,5.32,38.59a116,116,0,0,0,2.83,13.3,30.29,30.29,0,0,0,2.42,5.81,26.65,26.65,0,0,0,4,5.18c2.74,2.95,7,6,11.35,8.8,8.88,5.89,20.85,13.53,33.08,20.72C293.67,533.21,319.17,545.59,320.26,543.67Z" transform="translate(-90.38 -288.38)"/></g></g></g></svg>