<svg xmlns="http://www.w3.org/2000/svg" width="389.72" height="1019" viewBox="0 0 389.72 1019"><defs><style>.cls-1{isolation:isolate;}.cls-2,.cls-4{fill:#7dae20;}.cls-3{opacity:0.6;}.cls-3,.cls-4{mix-blend-mode:multiply;}.cls-4{opacity:0.34;}.cls-5{opacity:0.45;mix-blend-mode:screen;}</style></defs><title>Coconut Tree Dahan 1</title><g class="cls-1"><g id="Layer_1" data-name="Layer 1"><path class="cls-2" d="M408.13,38s308.76,102,353,477.17L685.23,454l68.95,155S801.74,865.06,528,1057c0,0,42.9-234.21-95-458l77.48-34.48-92.13-48.47S320,123,408.13,38Z" transform="translate(-371.43 -38)"/><g class="cls-3"><path class="cls-2" d="M448.51,73c-.56.41,3,6.94,9.76,18l12.28,19.83c4.91,7.54,10.2,16.19,15.37,26,22.48,38.14,48.11,91.31,69.73,146,20.4,55.2,36.47,111.8,45.17,155,5.13,21.41,7,39.73,9.49,52.31,1.06,6.33,1.89,11.3,2.46,14.69s.8,5.21.8,5.21l2.56,19.88c.82,6.32,1.81,14,3,22.82.58,4.41,1.19,9.1,1.83,14,.36,5,.73,10.2,1.12,15.66,4.27,43.59,4.88,102.07,1.44,160.46-4.84,58.27-14.05,116.21-24.4,159-2.08,10.83-4.66,20.57-7.15,29.16-2.3,8.65-4.3,16.2-6,22.41-3.19,12.47-4.74,19.72-4.09,20s3.48-6.59,7.93-18.71c2.17-6.1,4.81-13.49,7.83-22a281.52,281.52,0,0,0,9-28.88c12.75-42.52,24.24-100.76,30.95-159.72C642.88,685,643.74,625.5,640.41,581c-.27-5.56-.53-10.9-.78-16-.54-5.05-1.06-9.84-1.54-14.34-1-9-1.82-16.85-2.52-23.32-1.41-12.93-2.21-20.32-2.21-20.32s-.22-1.85-.91-5.29l-2.81-14.93c-2.76-12.79-5.11-31.38-10.83-53.07-9.86-43.75-27.63-100.92-50-156.23C545.17,222.75,517.27,170,492.56,132.75a279,279,0,0,0-17-25.2L461.58,88.68C453.76,78.3,449.06,72.57,448.51,73Z" transform="translate(-371.43 -38)"/></g><path class="cls-4" d="M408.13,38s284.76,94.3,346.46,434.23C726.83,399.5,652.53,236.59,529,188.5l39.84,89.07S670.21,370.9,724.56,485.7L685.23,454l6.57,14.77c-23.66-22.78-53.62-48.37-83.64-65,0,0,64.39,133.55,68,226.21L650.44,590.4s9.61,126.29-2.39,192.43c0,0,24.18,61.21,27.67,127.63q-6.29,9.21-13.21,18.45c-7.15-26.62-18.17-59.1-32.62-75.84,0,0,8,82.87-64.19,175.31-11.44,9.28-23.38,18.49-36.2,27.53,26-56.13,83.78-204.54,55.89-368.12l-81.9,68.78c-3.18-10.54-6.58-21.17-10.4-31.92L606.4,605.39,477.22,684.22c-1.09-2.55-2.27-5.1-3.41-7.65l133.86-132.9L546.45,349.19l-128.54,165c-.43-1.76-1.16-4.79-2.17-9,20.66-57,76.61-208.67,104.36-258l-51.29-90.3s-53.16,57.82-90.62,135.12C366.48,187.82,366.33,78.3,408.13,38Z" transform="translate(-371.43 -38)"/><g class="cls-5"><path class="cls-2" d="M738.69,451.45c2.62-.8-6.93-34.33-24.09-64.77C697.86,356.15,676.08,329,676.08,329S653,303.33,627.61,280.53,575.87,236.3,574,238.24s21.08,27.06,43.54,52.24,43.18,51.35,43.18,51.35a572.76,572.76,0,0,1,41.85,52.3C722.08,421.46,736.07,452.36,738.69,451.45Z" transform="translate(-371.43 -38)"/><path class="cls-2" d="M681.8,883.82c2.43,1.55,34.28-51.06,52.1-110,9.26-29.21,15.66-59.45,18.3-82.56a306.63,306.63,0,0,0,2.49-38.8s0-15.59-3.86-38.68-13.5-53.23-28.61-80c-14.8-27-33.38-51.16-47.8-68.6s-24.85-28.39-25.91-27.58,7.18,13.49,19.65,32.22,28.9,43.76,41.47,70.4c12.89,26.56,20.47,54.72,23,76.33a257.67,257.67,0,0,1,2.09,36.21,305,305,0,0,1-.84,36.71C732.33,711.51,727.6,741,720.29,770,706.44,828.27,679.47,882.6,681.8,883.82Z" transform="translate(-371.43 -38)"/><path class="cls-2" d="M594.38,992.72c1.68,2.18,10.23-1.36,18-6.52a111.75,111.75,0,0,0,14.44-11.61,110.74,110.74,0,0,0,8.31-16.44c3.42-8.58,5.11-17.63,2.63-18.82s-8.5,5.24-14.51,11.15l-12,11.51-8.86,14.17C597.8,983.3,592.69,990.53,594.38,992.72Z" transform="translate(-371.43 -38)"/><path class="cls-2" d="M517.29,748.74c-2.69.81,3.56,29.44,9.7,57.87s11.24,56.78,11.24,56.78,7.33,27.66,12.26,55.86c5.16,28.15,6.7,57,9.47,57.12s6.25-29.13,4.59-58.68a505.49,505.49,0,0,0-6.77-58.52s-7.4-28.68-17.17-56.38S519.89,748,517.29,748.74Z" transform="translate(-371.43 -38)"/><path class="cls-2" d="M493.84,692.49c1.8,2.1,11.22-2.67,20.33-7.59l17.92-10.08,14.73-14.16c7.29-7.27,14.52-14.88,13-17.21s-11.52,1.14-21.09,5.57-18.61,9.74-18.61,9.74-7.77,7.15-14.8,15.08S492,690.4,493.84,692.49Z" transform="translate(-371.43 -38)"/><path class="cls-2" d="M534,374.19c-2.5-1.12-17.68,26.32-36.81,50.6a433.77,433.77,0,0,1-41,45.68l-7.63,8.25L438.74,489c-6.73,6.81-9.56,15.4-11.43,22.94l12.7,3c2.13.53,4.27,1,6.24,1.68l3.78,1.26a110.74,110.74,0,0,1,12.33,5.23,186.87,186.87,0,0,1,22.71,13.62c13.55,9.39,23.55,16.91,24.77,15.55s-6.51-11-18.71-23a152.62,152.62,0,0,0-22-17.9,112.21,112.21,0,0,0-13.25-7.56c-.85-.4-3-1.31-2.78-1.29l-.58-.39-.82-.59c-.11-.7,1.29-1.49,1.6-1.6l8.62-7.53,8.68-8.06s21.91-23.95,38.31-51.6C525.75,405.37,536.58,375.26,534,374.19Z" transform="translate(-371.43 -38)"/><path class="cls-2" d="M419.42,437.38c2.65-.75-4.37-35.36-9.8-70.1-2.79-17.36-5.28-34.74-7-47.78-2.26-13.49-.24-17.76-.24-17.76a18,18,0,0,1,1.29-4c1-2.62,3.78-7.27,7.06-13,6.52-11.26,15.56-26.11,25.06-40.7,18.85-29.29,40.2-57.13,38.16-59s-27.4,22.89-49.6,50.64c-11.16,13.8-21.64,28.16-29.19,39.16-3.7,5.46-7,10-9.17,14.38a38.28,38.28,0,0,0-3,7.31,33.51,33.51,0,0,0-1,8.15c-.15,5,1,11.49,2.4,17.84,2.75,13.07,6.73,30.43,11.34,47.61C404.85,404.65,416.76,438.14,419.42,437.38Z" transform="translate(-371.43 -38)"/></g></g></g></svg>