<svg xmlns="http://www.w3.org/2000/svg" width="738.17" height="641.02" viewBox="0 0 738.17 641.02"><defs><style>.cls-1{isolation:isolate;}.cls-2{fill:#fd2e1b;}.cls-3,.cls-4,.cls-9{fill:#cc2819;}.cls-3{opacity:0.45;}.cls-3,.cls-4,.cls-6,.cls-8{mix-blend-mode:multiply;}.cls-4,.cls-8{opacity:0.25;}.cls-5,.cls-6{fill:#4c1e00;}.cls-6{opacity:0.5;}.cls-7{mix-blend-mode:screen;}</style></defs><title>Crab 1</title><g class="cls-1"><g id="Layer_1" data-name="Layer 1"><path class="cls-2" d="M786.18,671.92s59.67,47.72,52.57,94.81C834.26,796.5,749.2,696,749.2,696Z" transform="translate(-101.16 -286.54)"/><path class="cls-3" d="M786.18,671.92s59.67,47.72,52.57,94.81C834.26,796.5,749.2,696,749.2,696Z" transform="translate(-101.16 -286.54)"/><path class="cls-4" d="M749.2,696s85.06,100.52,89.55,70.75c1.74-11.58-.56-23.2-5-34.14.32,6.68-.27,13.63-3.3,17.68-7.16,9.56-45.67-40-45.67-40,13.47-4.89,15.06-18.74,14.93-25.9a178.72,178.72,0,0,0-13.52-12.4Z" transform="translate(-101.16 -286.54)"/><path class="cls-2" d="M692,652.59s87-7.63,104.52,32.13S698,720.12,698,720.12,660.74,673.84,692,652.59Z" transform="translate(-101.16 -286.54)"/><path class="cls-3" d="M692,652.59s87-7.63,104.52,32.13S698,720.12,698,720.12,660.74,673.84,692,652.59Z" transform="translate(-101.16 -286.54)"/><path class="cls-4" d="M796.53,684.72c-3.75-8.5-10.7-14.82-19.27-19.53,6.23,14.07-2,39.38-48,32.78-49.43-7.08-33.29-40.72-30.57-45.76-4.19.17-6.7.38-6.7.38-31.27,21.25,6,67.53,6,67.53S814.11,724.48,796.53,684.72Z" transform="translate(-101.16 -286.54)"/><path class="cls-2" d="M770.51,670.58c-.41.76-6.92-1.82-13.63-3.23a96.61,96.61,0,0,0-13.47-1.9A97.4,97.4,0,0,0,730,664.17c-6.82-.18-13.71.79-13.93,0s6.48-3.34,13.66-4.3a75.49,75.49,0,0,1,14.45-.49,75.44,75.44,0,0,1,14,3.85C765,665.8,770.93,669.86,770.51,670.58Zm2.25,2.9,53.17,52.66A69.27,69.27,0,0,0,822,718.4a69.68,69.68,0,0,0-6-6.23c-3.19-2.92-6.75-5.34-7.34-4.74s1.81,4.07,4,7.55,4.29,7,4.29,7,2.65,3.11,5.21,6.39,5.06,6.68,5.83,6.32S827.65,730.13,825.93,726.14Zm5,17.21" transform="translate(-101.16 -286.54)"/><path class="cls-2" d="M738.84,757.46s36.45,56.76,17.22,94.14c-12.15,23.64-54.94-84.45-54.94-84.45Z" transform="translate(-101.16 -286.54)"/><path class="cls-3" d="M738.84,757.46s36.45,56.76,17.22,94.14c-12.15,23.64-54.94-84.45-54.94-84.45Z" transform="translate(-101.16 -286.54)"/><path class="cls-4" d="M701.12,767.15s42.79,108.09,54.94,84.45c4.73-9.19,6.08-19.56,5.45-30-1.62,5.67-4.07,11.32-7.75,13.85-8.69,6-26.9-46.39-26.9-46.39,12.64-.29,17.88-11.42,19.79-17.45a158.77,158.77,0,0,0-7.81-14.19Z" transform="translate(-101.16 -286.54)"/><path class="cls-2" d="M665.52,714.72s74.89,18.15,78.37,56.37-92.41,1.81-92.41,1.81S633.36,723.67,665.52,714.72Z" transform="translate(-101.16 -286.54)"/><path class="cls-3" d="M665.52,714.72s74.89,18.15,78.37,56.37-92.41,1.81-92.41,1.81S633.36,723.67,665.52,714.72Z" transform="translate(-101.16 -286.54)"/><path class="cls-4" d="M743.89,771.09c-.74-8.17-4.77-15.42-10.61-21.77,1.24,13.52-12.79,32.37-49.39,13.88-39.35-19.88-16.36-43.46-12.66-46.91-3.55-1-5.71-1.57-5.71-1.57-32.16,8.95-14,58.18-14,58.18S747.37,809.31,743.89,771.09Z" transform="translate(-101.16 -286.54)"/><path class="cls-2" d="M726.11,751.92c-.55.52-5.27-3.47-10.49-6.55A85,85,0,0,0,704.89,740a86.29,86.29,0,0,0-10.9-4.87c-5.65-2.07-11.69-3.2-11.65-4s6.37-1,12.65.26a66.27,66.27,0,0,1,12.22,3.66,66.83,66.83,0,0,1,10.65,7.18C722.81,746.35,726.66,751.43,726.11,751.92Zm1.07,3.06,29.62,59a62.07,62.07,0,0,0-1.12-7.58,62.34,62.34,0,0,0-3.25-6.9c-1.85-3.35-4.14-6.38-4.8-6s.37,3.92,1.23,7.45,1.62,7,1.62,7,1.34,3.35,2.56,6.81,2.34,7,3.09,6.94S757.11,817.86,756.8,814Zm-.71,15.8" transform="translate(-101.16 -286.54)"/><path class="cls-2" d="M680.16,835.38s18.09,60.91-9.1,89.69c-17.2,18.19-27.57-90.81-27.57-90.81Z" transform="translate(-101.16 -286.54)"/><path class="cls-3" d="M680.16,835.38s18.09,60.91-9.1,89.69c-17.2,18.19-27.57-90.81-27.57-90.81Z" transform="translate(-101.16 -286.54)"/><path class="cls-4" d="M643.49,834.26s10.37,109,27.57,90.81c6.69-7.08,10.62-16.11,12.78-25.69-3,4.71-6.65,9.18-10.64,10.51-9.43,3.13-12.18-49-12.18-49,11.52,3,19.17-5.65,22.49-10.6a150.6,150.6,0,0,0-3.35-14.89Z" transform="translate(-101.16 -286.54)"/><path class="cls-2" d="M625,777.49s63,36.06,56.13,71.55-84.08-22.6-84.08-22.6S593.6,777.15,625,777.49Z" transform="translate(-101.16 -286.54)"/><path class="cls-3" d="M625,777.49s63,36.06,56.13,71.55-84.08-22.6-84.08-22.6S593.6,777.15,625,777.49Z" transform="translate(-101.16 -286.54)"/><path class="cls-4" d="M681.16,849c1.46-7.59-.28-15.2-3.9-22.48-2.42,12.56-20,25.93-48.32-.39-30.38-28.3-3.4-43.61.85-45.76-2.94-1.87-4.76-2.92-4.76-2.92-31.43-.34-27.95,49-27.95,49S674.29,884.53,681.16,849Z" transform="translate(-101.16 -286.54)"/><path class="cls-2" d="M670.1,827c-.64.32-3.86-4.53-7.78-8.68a244.19,244.19,0,0,0-16.88-15c-4.57-3.36-9.73-6-9.49-6.64s6,.79,11.37,3.55a62.75,62.75,0,0,1,10.1,6.51,63.46,63.46,0,0,1,7.75,9.29C668.57,821.13,670.72,826.74,670.1,827Zm.16,3,11.31,61.19a58.94,58.94,0,0,0,1-7.16,59.07,59.07,0,0,0-1.13-7.09c-.8-3.51-2.08-6.85-2.77-6.72s-.69,3.64-.83,7.07-.39,6.8-.39,6.8.34,3.38.53,6.83.28,7,1,7.08S680.85,894.81,681.57,891.27Zm-4.78,14.1" transform="translate(-101.16 -286.54)"/><path class="cls-2" d="M164.46,660.19s-64.82,40.43-63.27,88c1,30.1,97.19-59.8,97.19-59.8Z" transform="translate(-101.16 -286.54)"/><path class="cls-3" d="M164.46,660.19s-64.82,40.43-63.27,88c1,30.1,97.19-59.8,97.19-59.8Z" transform="translate(-101.16 -286.54)"/><path class="cls-4" d="M198.38,688.41s-96.21,89.9-97.19,59.8c-.38-11.7,3.26-23,9-33.31-1.1,6.59-1.33,13.57,1.21,17.94,6,10.33,50-34.45,50-34.45-12.8-6.42-12.76-20.36-11.8-27.46a181.78,181.78,0,0,1,14.87-10.74Z" transform="translate(-101.16 -286.54)"/><path class="cls-2" d="M260.25,652s-85.46-17.74-107.56,19.7,93.72,46.66,93.72,46.66S288.83,676.75,260.25,652Z" transform="translate(-101.16 -286.54)"/><path class="cls-3" d="M260.25,652s-85.46-17.74-107.56,19.7,93.72,46.66,93.72,46.66S288.83,676.75,260.25,652Z" transform="translate(-101.16 -286.54)"/><path class="cls-4" d="M152.69,671.7c4.72-8,12.36-13.47,21.42-17.15-7.83,13.25-2.61,39.35,43.82,38.17,49.92-1.27,37.83-36.56,35.71-41.89,4.14.66,6.61,1.17,6.61,1.17,28.58,24.75-13.84,66.36-13.84,66.36S130.59,709.14,152.69,671.7Z" transform="translate(-101.16 -286.54)"/><path class="cls-2" d="M193.32,654.8a76.08,76.08,0,0,1,14.38-2.19A75.55,75.55,0,0,1,222,654.79c7,1.79,13.4,5.1,13.07,5.87s-7.05-1-13.84-1.59a96.2,96.2,0,0,0-13.52-.31,96.47,96.47,0,0,0-13.6.32c-6.83.62-13.6,2.42-13.92,1.62S186.26,656.6,193.32,654.8Zm-15.71,8.51-62,54.32c.73.45,3.59-2.67,6.53-5.6S128,706.3,128,706.3s2.45-3.24,5.08-6.43,5.39-6.35,4.87-7-4.33,1.32-7.84,3.85a70.6,70.6,0,0,0-6.67,5.48,71.7,71.7,0,0,0-4.82,7.23C116.48,713.17,114.87,717.19,115.59,717.63Zm-3.87,8.28" transform="translate(-101.16 -286.54)"/><path class="cls-2" d="M201.49,750.68s-42.83,52.11-28.1,91.49c9.31,24.89,64.44-77.46,64.44-77.46Z" transform="translate(-101.16 -286.54)"/><path class="cls-3" d="M201.49,750.68s-42.83,52.11-28.1,91.49c9.31,24.89,64.44-77.46,64.44-77.46Z" transform="translate(-101.16 -286.54)"/><path class="cls-4" d="M237.83,764.71s-55.13,102.35-64.44,77.46c-3.62-9.69-3.75-20.14-1.9-30.4.94,5.83,2.71,11.72,6.07,14.67,7.93,6.95,32.14-42.94,32.14-42.94-12.53-1.76-16.42-13.43-17.62-19.64a157.81,157.81,0,0,1,9.41-13.18Z" transform="translate(-101.16 -286.54)"/><path class="cls-2" d="M279.31,716.8s-76.5,9.27-84.43,46.83,91.57,12.59,91.57,12.59S310.2,729.44,279.31,716.8Z" transform="translate(-101.16 -286.54)"/><path class="cls-3" d="M279.31,716.8s-76.5,9.27-84.43,46.83,91.57,12.59,91.57,12.59S310.2,729.44,279.31,716.8Z" transform="translate(-101.16 -286.54)"/><path class="cls-4" d="M194.88,763.63c1.7-8,6.54-14.76,13.09-20.39-2.82,13.29,8.92,33.65,47.43,19.56,41.4-15.15,21.32-41.25,18-45.11,3.65-.62,5.86-.89,5.86-.89,30.89,12.64,7.14,59.42,7.14,59.42S187,801.18,194.88,763.63Z" transform="translate(-101.16 -286.54)"/><path class="cls-2" d="M224.11,738a66.86,66.86,0,0,1,11.41-5.88,66.11,66.11,0,0,1,12.57-2.21c6.38-.49,12.64.48,12.59,1.22s-6.17,1.17-12,2.57a86.19,86.19,0,0,0-11.4,3.56,85.38,85.38,0,0,0-11.28,4.1c-5.54,2.45-10.7,5.86-11.19,5.29S218.71,741.52,224.11,738Zm-10.74,11.56-36.56,62.94c.74.17,2.25-3.25,3.88-6.53s3.34-6.46,3.34-6.46,1.14-3.41,2.43-6.82,2.72-6.83,2.1-7.25-3.25,2.33-5.48,5.43a61.12,61.12,0,0,0-4,6.47,63.74,63.74,0,0,0-2,7.41C176.3,808.53,176.09,812.35,176.81,812.52Zm-.9,8" transform="translate(-101.16 -286.54)"/><path class="cls-2" d="M250.67,834.92s-25.08,58.37-1.43,90.13c14.95,20.09,38-87,38-87Z" transform="translate(-101.16 -286.54)"/><path class="cls-3" d="M250.67,834.92s-25.08,58.37-1.43,90.13c14.95,20.09,38-87,38-87Z" transform="translate(-101.16 -286.54)"/><path class="cls-4" d="M287.22,838.09s-23,107-38,87c-5.82-7.81-8.68-17.23-9.7-27,2.38,5,5.54,9.89,9.34,11.67,9,4.21,17.82-47.26,17.82-47.26-11.79,1.68-18.38-7.85-21.09-13.15a149.25,149.25,0,0,1,5.06-14.4Z" transform="translate(-101.16 -286.54)"/><path class="cls-2" d="M312.18,783.87s-66.77,28.45-64.09,64.5,86.14-12.62,86.14-12.62S343.44,787.2,312.18,783.87Z" transform="translate(-101.16 -286.54)"/><path class="cls-3" d="M312.18,783.87s-66.77,28.45-64.09,64.5,86.14-12.62,86.14-12.62S343.44,787.2,312.18,783.87Z" transform="translate(-101.16 -286.54)"/><path class="cls-4" d="M248.09,848.37c-.57-7.71,2-15.07,6.49-21.88.94,12.77,16.89,28.11,48,5.26,33.48-24.55,8.48-42.91,4.51-45.54,3.14-1.52,5.06-2.34,5.06-2.34,31.26,3.33,22.05,51.88,22.05,51.88S250.77,884.42,248.09,848.37Z" transform="translate(-101.16 -286.54)"/><path class="cls-2" d="M267.81,817.54a62.77,62.77,0,0,1,8.78-8.32,63.4,63.4,0,0,1,10.79-5.29c5.65-2.11,11.57-2.88,11.71-2.2s-5.27,2.68-10.2,5.49a80.39,80.39,0,0,0-9.38,6.21,81.2,81.2,0,0,0-9.14,6.66c-4.37,3.67-8.13,8.11-8.73,7.72S263.85,822.12,267.81,817.54Zm-6.69,13.27-16.56,66.53c.71,0,1.18-3.53,1.8-6.93s1.32-6.72,1.32-6.72.14-3.38.41-6.8.67-6.9,0-7.11-2.33,3-3.53,6.34a57.62,57.62,0,0,0-1.95,6.92,58.65,58.65,0,0,0,.13,7.22C243.05,893.87,243.86,897.38,244.56,897.34Zm1.29,7.49" transform="translate(-101.16 -286.54)"/><path class="cls-5" d="M422.62,536.78c1.95,17.67-12.89,33.8-33.15,36s-38.25-10.28-40.2-27.95,12.89-33.8,33.15-36S420.67,519.11,422.62,536.78Z" transform="translate(-101.16 -286.54)"/><path class="cls-6" d="M422.62,536.78a29.32,29.32,0,0,0-9-17.89A39.43,39.43,0,0,1,388,532c-12.27,1.35-23.68-2.73-31.22-10.06a30,30,0,0,0-7.51,22.91c2,17.67,20,30.19,40.2,27.95S424.57,554.45,422.62,536.78Z" transform="translate(-101.16 -286.54)"/><g class="cls-7"><path class="cls-5" d="M390.93,514.18c0,.85-3.07,1.79-6,2.89s-5.72,2.3-5.72,2.3-3,.53-6,1.25-6.11,1.61-6.55.88,2-3,4.82-4.87a40.52,40.52,0,0,1,6-3.15,41.82,41.82,0,0,1,6.74-.69C387.57,512.74,390.9,513.34,390.93,514.18Z" transform="translate(-101.16 -286.54)"/><path class="cls-5" d="M407.59,519c-.82,1.38-4.88,1.39-4.84,1.51.09-.09-3.47-2-3.55-3.61,0-.84,1.2-1.57,2.47-1.95a11.08,11.08,0,0,1,2.57-.41,10.88,10.88,0,0,1,2.08,1.58C407.27,517,408,518.24,407.59,519Z" transform="translate(-101.16 -286.54)"/></g><path class="cls-5" d="M589.61,553.66c-4.13,17.29-23.54,27.47-43.36,22.74s-32.54-22.59-28.41-39.88,23.54-27.47,43.36-22.74S593.74,536.37,589.61,553.66Z" transform="translate(-101.16 -286.54)"/><path class="cls-6" d="M589.61,553.66a29.37,29.37,0,0,0-2.41-19.87,39.46,39.46,0,0,1-28.57,3.69c-12-2.86-21.37-10.55-26-20a30,30,0,0,0-14.79,19c-4.13,17.29,8.59,35.14,28.41,39.88S585.48,571,589.61,553.66Z" transform="translate(-101.16 -286.54)"/><g class="cls-7"><path class="cls-5" d="M567.4,521.69c-.25.82-3.49.66-6.61.71s-6.16.23-6.16.23-3-.51-6.08-.86-6.3-.54-6.47-1.37,2.9-2.2,6.18-3a40.85,40.85,0,0,1,6.68-.95,41.57,41.57,0,0,1,6.58,1.63C564.73,519.21,567.66,520.89,567.4,521.69Z" transform="translate(-101.16 -286.54)"/><path class="cls-5" d="M581.47,531.85c-1.24,1-5.07-.35-5.08-.22.12-.06-2.58-3.06-2.12-4.59.31-.79,1.66-1.08,3-1a10.7,10.7,0,0,1,2.55.47,11,11,0,0,1,1.43,2.19C581.82,529.9,582.08,531.26,581.47,531.85Z" transform="translate(-101.16 -286.54)"/></g><path class="cls-2" d="M332.77,352.86s49.36,65.89-23.76,104-122.95-29.07-116.68-82.25,56-92.72,110.59-84.76c0,0-49.24,62.17-37.65,94.57S328.82,404.42,332.77,352.86Z" transform="translate(-101.16 -286.54)"/><path class="cls-3" d="M309,456.86a104.16,104.16,0,0,1-21.33,8.39c-48.38-43.19-23.6-99.55-23.53-99.72-1,6.86-.88,13.32,1.12,18.89,11.58,32.4,63.55,20,67.5-31.56C332.77,352.86,382.13,418.75,309,456.86Z" transform="translate(-101.16 -286.54)"/><path class="cls-4" d="M263.58,374.72a31.82,31.82,0,0,0,1.69,9.7c11.46,32.05,62.39,20.24,67.32-29.92,7.27,22.64,7.66,55.64-36.36,78.59-4.79,2.49-17.18,6.54-27.18,9.58-16.15-27.77-11.34-56.1-7.55-69.37A22.45,22.45,0,0,0,263.58,374.72Z" transform="translate(-101.16 -286.54)"/><path class="cls-4" d="M198.77,349.74c-3.87,37.82,9.59,86.76,63.86,93.93,55.39,7.31,76.79-15.15,84.67-29.4-3.82,15-14.61,30.25-38.29,42.59C235.9,495,186.06,427.79,192.33,374.61A95.49,95.49,0,0,1,198.77,349.74Z" transform="translate(-101.16 -286.54)"/><path class="cls-2" d="M284.82,529.94s-3.12-94.89-33.92-88.4c-38.18,8-7.74,102.52-7.74,102.52S280.81,554.77,284.82,529.94Z" transform="translate(-101.16 -286.54)"/><path class="cls-3" d="M284.82,529.94s-3.12-94.89-33.92-88.4c-38.18,8-7.74,102.52-7.74,102.52S280.81,554.77,284.82,529.94Z" transform="translate(-101.16 -286.54)"/><path class="cls-3" d="M243.16,544.06a297.26,297.26,0,0,1-8.89-37.38c14.25,5.87,36.75,3.39,33.31-23.53C263.31,449.69,250,444,246.54,443a20.52,20.52,0,0,1,4.36-1.48c30.8-6.49,33.92,88.4,33.92,88.4C280.81,554.77,243.16,544.06,243.16,544.06Z" transform="translate(-101.16 -286.54)"/><path class="cls-2" d="M327,564.83s-41.6-63-72.28-55.54C212,519.7,276.1,618.64,276.1,618.64S329.51,590.44,327,564.83Z" transform="translate(-101.16 -286.54)"/><path class="cls-3" d="M327,564.83s-41.6-63-72.28-55.54C212,519.7,276.1,618.64,276.1,618.64S329.51,590.44,327,564.83Z" transform="translate(-101.16 -286.54)"/><path class="cls-3" d="M275.79,618.15l-.14-.22c-.12-.18-.24-.38-.39-.62l-.05-.07c-1.86-3-6.43-10.38-11.68-20l0,0c-1.59-2.91-3.23-6-4.89-9.28,25.51,9.07,51.49-23.37,28.56-50.9-22.35-26.84-44.24-8.61-47.16-6-.05-7.71,2-14,7-18h0a18.8,18.8,0,0,1,3.26-2.06l.26-.15a20.84,20.84,0,0,1,4.17-1.49c30.68-7.47,72.28,55.54,72.28,55.54,2.55,25.61-50.86,53.81-50.86,53.81l-.1-.16Z" transform="translate(-101.16 -286.54)"/><path class="cls-2" d="M320.6,427.24c.16.35,2.4-.21,5.16-2.23a34,34,0,0,0,8.16-9.23,59.39,59.39,0,0,0,5.49-11,56.12,56.12,0,0,0,1.75-5.34s.47-2.19.85-5.51a64.23,64.23,0,0,0,.11-12.19c-.66-8.9-4.09-17.06-4.87-16.76s1,8.58.52,16.87a71.75,71.75,0,0,1-1.36,11.22c-.64,3-1.23,4.95-1.23,4.95a68,68,0,0,1-5.06,15.64,40.94,40.94,0,0,1-6,9.57C322.14,425.59,320.38,426.84,320.6,427.24Z" transform="translate(-101.16 -286.54)"/><path class="cls-2" d="M302.48,437.41c.21.82,2,1.14,3.71,1.06a17.44,17.44,0,0,0,3.42-.53,17.12,17.12,0,0,0,2.45-2.41c1.11-1.35,1.89-2.94,1.36-3.6s-2.17-.37-3.67-.08l-2.9.59-2.22,2C303.5,435.45,302.26,436.59,302.48,437.41Z" transform="translate(-101.16 -286.54)"/><path class="cls-2" d="M253.32,364.3c.83.21,3.82-8.39,7.51-16.62s7.93-16.14,7.93-16.14,3.6-8.16,7.9-16,9.19-15.48,8.52-16-6.9,6.19-12.21,13.71a162,162,0,0,0-9.73,15.62,162.56,162.56,0,0,0-6.49,17.34C254,355,252.51,364.11,253.32,364.3Z" transform="translate(-101.16 -286.54)"/><path class="cls-2" d="M250.73,398.51c.84-.15,1.07-3.51,1.44-6.76s.8-6.43.8-6.43-.25-3.17-.38-6.43-.16-6.6-1-6.8-2.34,2.91-3.32,6.24a48.66,48.66,0,0,0-1.45,6.79,47.44,47.44,0,0,0,1,6.9C248.59,395.43,249.9,398.66,250.73,398.51Z" transform="translate(-101.16 -286.54)"/><path class="cls-2" d="M222.23,328c.71.48,5.09-4.5,10.18-8.52A85,85,0,0,1,243,312.24,85.43,85.43,0,0,1,254,305.61c5.73-2.94,12-4.86,11.9-5.7s-6.94-.41-13.52,1.66a67.49,67.49,0,0,0-12.62,5.5,67.31,67.31,0,0,0-10.3,9.24C224.75,321.46,221.52,327.52,222.23,328Z" transform="translate(-101.16 -286.54)"/><path class="cls-2" d="M237.7,487.75c.86-.07,1.2-4.78,1.73-9.34s1.39-8.91,1.39-8.91a60,60,0,0,1,1-8.74c.78-4.37,2.59-8.57,1.9-9.05s-4,3.14-6,7.68a43.24,43.24,0,0,0-3,9.34,58.81,58.81,0,0,0,.36,9.71C235.67,483.22,236.87,487.81,237.7,487.75Z" transform="translate(-101.16 -286.54)"/><path class="cls-2" d="M240.45,503.3c.83-.19,1.39-1.19,1.8-2.09a15.44,15.44,0,0,0,.66-1.73,17,17,0,0,0-1-1.51c-.61-.77-1.39-1.6-2.24-1.59s-1.61.92-2.1,1.89a9.67,9.67,0,0,0-.72,2A9.16,9.16,0,0,0,238,502C238.67,502.79,239.63,503.5,240.45,503.3Z" transform="translate(-101.16 -286.54)"/><path class="cls-2" d="M251.18,551.54c.73-.45.09-3-.11-5.51a39.55,39.55,0,0,1-.12-4.84,37.29,37.29,0,0,1-.92-4.72c-.34-2.45-.29-5.09-1.09-5.38s-2.42,2.11-3.24,4.95a22.63,22.63,0,0,0-.86,5.81,22.83,22.83,0,0,0,2.1,5.53C248.36,550,250.48,552,251.18,551.54Z" transform="translate(-101.16 -286.54)"/><path class="cls-2" d="M267.79,589.2c.74-.42-.57-4.34-1.85-8.2s-2.58-7.68-2.58-7.68l-3.85-7.07c-1.95-3.55-3.92-7.16-4.73-6.9s-.28,4.39.67,8.44,2.28,8,2.28,8,2,3.69,4.31,7.15S267.05,589.61,267.79,589.2Z" transform="translate(-101.16 -286.54)"/><path class="cls-2" d="M619.13,348S566,410.87,636.68,453.25,761.14,431.53,758,378.07s-50.42-95.88-105.36-91.17c0,0,45.47,65,32,96.63S620,399.73,619.13,348Z" transform="translate(-101.16 -286.54)"/><path class="cls-3" d="M636.68,453.25a103.75,103.75,0,0,0,20.8,9.64c50.85-40.23,29.46-98,29.4-98.14.63,6.91.08,13.34-2.23,18.78C671.16,415.19,620,399.73,619.13,348,619.13,348,566,410.87,636.68,453.25Z" transform="translate(-101.16 -286.54)"/><path class="cls-4" d="M686.91,374a32.08,32.08,0,0,1-2.26,9.57c-13.35,31.32-63.49,16.5-65.44-33.85-8.6,22.17-10.94,55.09,31.64,80.6,4.63,2.78,16.76,7.56,26.56,11.18,17.77-26.77,14.66-55.33,11.66-68.8C688.37,373.13,687.65,373.56,686.91,374Z" transform="translate(-101.16 -286.54)"/><path class="cls-4" d="M753.09,352.86c1.61,38-14.73,86-69.32,90C628,446.85,608,423.15,601,408.47c2.93,15.19,12.8,31.06,35.7,44.78C707.4,495.64,761.14,431.53,758,378.07A95.61,95.61,0,0,0,753.09,352.86Z" transform="translate(-101.16 -286.54)"/><path class="cls-2" d="M656.49,527.64s8.75-94.54,39.1-86.24c37.64,10.3,1.65,102.81,1.65,102.81S659,552.66,656.49,527.64Z" transform="translate(-101.16 -286.54)"/><path class="cls-3" d="M656.49,527.64s8.75-94.54,39.1-86.24c37.64,10.3,1.65,102.81,1.65,102.81S659,552.66,656.49,527.64Z" transform="translate(-101.16 -286.54)"/><path class="cls-3" d="M697.24,544.21a297.5,297.5,0,0,0,11.1-36.79c-14.58,5-36.89,1.2-31.86-25.46,6.24-33.15,19.86-38.09,23.38-38.82a21,21,0,0,0-4.27-1.74c-30.35-8.3-39.1,86.24-39.1,86.24C659,552.66,697.24,544.21,697.24,544.21Z" transform="translate(-101.16 -286.54)"/><path class="cls-2" d="M612.36,560s45.26-60.43,75.44-51.14c42,12.92-27.87,107.88-27.87,107.88S608.29,585.38,612.36,560Z" transform="translate(-101.16 -286.54)"/><path class="cls-3" d="M612.36,560s45.26-60.43,75.44-51.14c42,12.92-27.87,107.88-27.87,107.88S608.29,585.38,612.36,560Z" transform="translate(-101.16 -286.54)"/><path class="cls-3" d="M660.27,616.23l.16-.21.42-.6,0-.07c2-2.84,7-10,12.85-19.3l0,0c1.75-2.81,3.58-5.82,5.42-9-26,7.54-50-26.38-25.48-52.5,23.9-25.47,44.67-6,47.43-3.15.51-7.68-1.15-14.13-5.89-18.42h0a18.68,18.68,0,0,0-3.13-2.26l-.25-.16a20.52,20.52,0,0,0-4.08-1.73C657.62,499.53,612.36,560,612.36,560c-4.07,25.42,47.57,56.74,47.57,56.74l.11-.16C660.1,616.47,660.18,616.35,660.27,616.23Z" transform="translate(-101.16 -286.54)"/><path class="cls-2" d="M626.87,423c-.18.34-2.39-.35-5-2.54a33.9,33.9,0,0,1-7.6-9.7,58.75,58.75,0,0,1-4.82-11.29c-1-3.22-1.44-5.43-1.44-5.43s-.34-2.22-.52-5.56a63.61,63.61,0,0,1,.62-12.17c1.19-8.84,5.09-16.79,5.85-16.44s-1.51,8.5-1.52,16.81a72.15,72.15,0,0,0,.69,11.27c.47,3,.94,5,.94,5a67.84,67.84,0,0,0,4.12,15.92,41.53,41.53,0,0,0,5.4,9.91C625.43,421.26,627.11,422.61,626.87,423Z" transform="translate(-101.16 -286.54)"/><path class="cls-2" d="M644.36,434.22c-.27.81-2,1-3.77.84a5.61,5.61,0,0,1-5.69-3.28c-1-1.42-1.71-3-1.14-3.68s2.19-.23,3.67.14l2.85.77,2.11,2.1C643.46,432.21,644.62,433.42,644.36,434.22Z" transform="translate(-101.16 -286.54)"/><path class="cls-2" d="M697.76,364.16c-.84.16-3.31-8.6-6.5-17s-7-16.58-7-16.58-3.11-8.36-6.93-16.48-8.26-16-7.56-16.49,6.52,6.59,11.38,14.41A163.17,163.17,0,0,1,690,328.16a162.6,162.6,0,0,1,5.45,17.69C697.61,354.85,698.59,364,697.76,364.16Z" transform="translate(-101.16 -286.54)"/><path class="cls-2" d="M698.32,398.47c-.83-.2-.86-3.57-1-6.84s-.42-6.46-.42-6.46.43-3.15.76-6.4.55-6.58,1.39-6.73,2.16,3,2.94,6.43a47.59,47.59,0,0,1,1,6.86,48.56,48.56,0,0,1-1.4,6.83C700.64,395.52,699.14,398.66,698.32,398.47Z" transform="translate(-101.16 -286.54)"/><path class="cls-2" d="M731,329.74c-.74.44-4.82-4.79-9.66-9.11a84.91,84.91,0,0,0-10.18-7.82,84.19,84.19,0,0,0-10.5-7.27c-5.55-3.28-11.73-5.56-11.54-6.4s6.95,0,13.39,2.46a67.9,67.9,0,0,1,12.28,6.24,67.49,67.49,0,0,1,9.74,9.83C728.83,323.09,731.69,329.34,731,329.74Z" transform="translate(-101.16 -286.54)"/><path class="cls-2" d="M706,488.32c-.85-.12-.91-4.84-1.17-9.42s-.86-9-.86-9a58.51,58.51,0,0,0-.5-8.79c-.51-4.4-2.07-8.7-1.36-9.14s3.82,3.37,5.56,8a43.06,43.06,0,0,1,2.44,9.5,59.47,59.47,0,0,1-.94,9.68C708.33,483.92,706.86,488.43,706,488.32Z" transform="translate(-101.16 -286.54)"/><path class="cls-2" d="M702.36,503.68c-.81-.24-1.31-1.27-1.67-2.19a16,16,0,0,1-.55-1.76,16.36,16.36,0,0,1,1.13-1.45c.66-.73,1.49-1.52,2.34-1.46s1.54,1,2,2a9.76,9.76,0,0,1,.6,2,9.67,9.67,0,0,1-1.26,1.67C704.17,503.27,703.18,503.93,702.36,503.68Z" transform="translate(-101.16 -286.54)"/><path class="cls-2" d="M688.79,551.2c-.7-.5.09-3,.43-5.5a36.93,36.93,0,0,0,.41-4.82,38.09,38.09,0,0,0,1.2-4.66c.49-2.42.59-5.06,1.41-5.3s2.29,2.25,2.94,5.13a23,23,0,0,1,.52,5.86,23,23,0,0,1-2.43,5.39C691.7,549.82,689.47,551.69,688.79,551.2Z" transform="translate(-101.16 -286.54)"/><path class="cls-2" d="M670,587.8c-.72-.46.82-4.3,2.33-8.07s3-7.52,3-7.52l4.27-6.83c2.16-3.42,4.34-6.9,5.14-6.6s0,4.4-1.17,8.39-2.75,7.83-2.75,7.83-2.19,3.56-4.73,6.88S670.69,588.26,670,587.8Z" transform="translate(-101.16 -286.54)"/><path class="cls-2" d="M706.16,684.53c-1.4,94.22-108.08,187-239.87,185.05S227.51,771.64,228.91,677.42s101.4-150,233.19-148.07S707.56,590.31,706.16,684.53Z" transform="translate(-101.16 -286.54)"/><path class="cls-2" d="M236.4,688.93c1.41-94.22,101.4-150,233.19-148.07,96.37,1.44,183,33.4,222.09,87.31-34.54-60.87-126.52-97.29-229.58-98.82-131.79-2-231.78,53.85-233.19,148.07-.45,30.37,10.41,60.9,29.67,88.42C244,741.44,236,715.12,236.4,688.93Z" transform="translate(-101.16 -286.54)"/><path class="cls-4" d="M706.16,684.53c.39-26.45-8.28-50.12-23.88-70.54a103.1,103.1,0,0,1,.65,12.63c-1.28,86.3-99,171.28-219.68,169.49s-218.69-89.7-217.4-176c0-1.17.11-2.31.16-3.47a120.11,120.11,0,0,0-17.1,60.77c-1.4,94.22,105.59,190.2,237.38,192.16S704.76,778.75,706.16,684.53Z" transform="translate(-101.16 -286.54)"/><path class="cls-2" d="M589.48,567.43c-.08.22-2.74-.57-7.4-1.91s-11.3-3.24-19.35-5.18-17.51-4-27.72-5.42-21.17-2-32.25-2.5a557.54,557.54,0,0,0-60.64.65c-8.24.57-15.08,1.29-19.86,1.83l-7.5,1-7.45,1c-4.74.66-11.48,1.73-19.53,3.28a300.84,300.84,0,0,0-57.41,17.37,252.31,252.31,0,0,0-52.2,29.64c-13.2,9.83-20.9,17.76-21.3,17.36-.15-.15,1.68-2.22,5-5.74a184.35,184.35,0,0,1,14.83-13.51,237.93,237.93,0,0,1,51.93-31.74,297.79,297.79,0,0,1,58-18.93c8.15-1.73,15-2.94,19.79-3.69l7.56-1.12,7.63-.84c4.86-.47,11.81-1.08,20.17-1.5a536.19,536.19,0,0,1,61.21.66c11,.75,22.24,1.52,32.56,3.46A274,274,0,0,1,563.34,558c8,2.31,14.59,4.6,19.14,6.32S589.54,567.25,589.48,567.43Z" transform="translate(-101.16 -286.54)"/><path class="cls-2" d="M632.93,587.13c-.66.54-3.7-1.83-6.91-3.65a61,61,0,0,0-6.53-3.24,60.25,60.25,0,0,0-6.25-3.65c-3.27-1.69-6.89-2.92-6.8-3.77s4.12-1.12,8.14-.37a38.42,38.42,0,0,1,7.83,2.38,38.88,38.88,0,0,1,6.33,5.25C631.59,583.05,633.58,586.6,632.93,587.13Z" transform="translate(-101.16 -286.54)"/><path class="cls-2" d="M615.11,794.8c-.46-.78,2.68-3.5,7.25-7.51s10.42-9.52,15.89-15.32a178.48,178.48,0,0,0,13.67-17c3.38-4.87,5.46-8.2,5.46-8.2l1.56-2.19c1-1.42,2.53-3.32,4.07-5.83A176.85,176.85,0,0,0,673.83,720c3.41-7.14,6.44-14.54,8.49-20.23s3.49-9.56,4.38-9.41,1,4.3.28,10.52a121.27,121.27,0,0,1-5.09,22.4,150.42,150.42,0,0,1-9.12,21.27c-1.38,2.86-2.86,5.06-3.75,6.69l-1.48,2.51s-2.56,3.42-6.71,8.26a149.53,149.53,0,0,1-16.61,16.31,120.43,120.43,0,0,1-19.15,12.93C619.49,794.15,615.5,795.49,615.11,794.8Z" transform="translate(-101.16 -286.54)"/><path class="cls-2" d="M579,818.05c-1.73-2.93,7.21-11.39,7.21-11.39s11.67-3.69,13.4-.76-7.15,11.35-7.15,11.35S580.76,821,579,818.05Z" transform="translate(-101.16 -286.54)"/><path class="cls-4" d="M360.23,578.55a11.58,11.58,0,1,1-9.4-13.42A11.59,11.59,0,0,1,360.23,578.55Z" transform="translate(-101.16 -286.54)"/><path class="cls-4" d="M316,600.2a4.57,4.57,0,1,1-3.71-5.29A4.57,4.57,0,0,1,316,600.2Z" transform="translate(-101.16 -286.54)"/><path class="cls-4" d="M358.08,622.6A15.24,15.24,0,1,1,345.71,605,15.24,15.24,0,0,1,358.08,622.6Z" transform="translate(-101.16 -286.54)"/><path class="cls-4" d="M377.17,600.3a5.49,5.49,0,1,1-4.45-6.35A5.48,5.48,0,0,1,377.17,600.3Z" transform="translate(-101.16 -286.54)"/><path class="cls-4" d="M321.1,649.74a6.71,6.71,0,1,1-5.44-7.77A6.7,6.7,0,0,1,321.1,649.74Z" transform="translate(-101.16 -286.54)"/><path class="cls-4" d="M290.88,617.37a6.09,6.09,0,1,1-4.94-7.06A6.1,6.1,0,0,1,290.88,617.37Z" transform="translate(-101.16 -286.54)"/><g class="cls-8"><path class="cls-9" d="M563.16,599a11.89,11.89,0,1,1-9.65-13.77A11.9,11.9,0,0,1,563.16,599Z" transform="translate(-101.16 -286.54)"/><path class="cls-9" d="M584.69,589.14a5.79,5.79,0,1,1-4.7-6.71A5.79,5.79,0,0,1,584.69,589.14Z" transform="translate(-101.16 -286.54)"/><path class="cls-9" d="M593,615.67a6.71,6.71,0,1,1-5.44-7.77A6.7,6.7,0,0,1,593,615.67Z" transform="translate(-101.16 -286.54)"/><path class="cls-9" d="M666.69,626.14a11,11,0,1,1-8.91-12.7A11,11,0,0,1,666.69,626.14Z" transform="translate(-101.16 -286.54)"/><path class="cls-9" d="M647.54,643.51a6.4,6.4,0,1,1-5.19-7.41A6.4,6.4,0,0,1,647.54,643.51Z" transform="translate(-101.16 -286.54)"/></g></g></g></svg>