<svg id="Layer_1" data-name="Layer 1" xmlns="http://www.w3.org/2000/svg" width="934.3" height="215.77" viewBox="0 0 934.3 215.77"><defs><style>.cls-1{fill:#1da897;}.cls-2{fill:#158777;}.cls-3{fill:#ffdda6;}</style></defs><title>Hill</title><path class="cls-1" d="M166.51,762.57c37.05-59,77.94-101.23,150.79-115.85s125.3-9.31,125.3-9.31C545.13,555,686.83,614.82,686.83,614.82c176.78-113,326-49.19,326-49.19L1016,763.45Z" transform="translate(-81.7 -547.68)"/><path class="cls-2" d="M245.06,754c14.92-47.83,159.26-74.25,213.55-58.3,99.63-45.86,166.69-9.47,166.69-9.47,63.87-39.88,147-1,147-1,54.58-43.2,214.49-43.87,238.85,4.65l1.66,55.17Z" transform="translate(-81.7 -547.68)"/><path class="cls-3" d="M1012.84,745.09c-116.87,0-706.5-4.92-931.14,17.48l934.3.88Z" transform="translate(-81.7 -547.68)"/></svg>