<svg id="Layer_1" data-name="Layer 1" xmlns="http://www.w3.org/2000/svg" width="922.99" height="829.66" viewBox="0 0 922.99 829.66"><defs><style>.cls-1{fill:#008743;}.cls-2{fill:#009950;}.cls-3{fill:#15bc4d;}</style></defs><title>Leaf 5</title><path class="cls-1" d="M621,386c35.41,31.18,59.84,66.18,89.7,102,44.67,53.6,122.82,121.49,118.68,197.82-1,19.18-10.33,34.92-19.86,50.34-45.78-40.75-90.07-82.9-141.07-117.42-74.9-50.7-140.35-107.12-208.29-167.19-62.54-55.29-123-112.06-185.59-167.33C205.79,223.46,145.13,154.69,77.16,93.47c30.59-41.11,156.6,25.54,186.2,43,73.06,42.94,147.16,89,216.3,137.77A1657.12,1657.12,0,0,1,621,386Z" transform="translate(-70.41 -80.3)"/><path class="cls-2" d="M809.54,736.19c-3.24,5.31-6.53,10.53-9.51,15.87-57.61,56-161.61,7.25-216.8-25.95-105.67-63.52-198-155.45-288.32-238.78-60.15-55.55-123.73-133-164.39-203.8C103,235.66,82.85,189.61,72.29,135.39c-3.83-19.78-1.62-33.26,4.87-41.92,68,61.22,128.63,130,197.43,190.78,62.6,55.27,123.05,112,185.59,167.33,67.94,60.07,133.39,116.49,208.29,167.19C719.47,653.29,763.76,695.44,809.54,736.19Z" transform="translate(-70.41 -80.3)"/><path class="cls-3" d="M987.49,910c-33.89-27.68-64.2-58.43-93.51-88.16-29.59-30-60.19-61.06-94.26-88.67-19.55-15.83-39.59-31.7-59-47.06-38.39-30.4-78.08-61.84-115.55-94.27-30-25.91-62.3-49.82-93.57-72.94l-4-3c-6.53-4.83-13.26-9.57-19.78-14.16-20.17-14.2-41-28.89-58.28-47.89-12-13.17-24.69-24.3-38.15-36.08-14.38-12.59-29.25-25.6-43.48-41.56-15.09-16.93-33.53-32.21-51.35-47-12.38-10.27-25.19-20.89-36.79-32-35.46-33.92-64.43-62-88.55-85.86-11-10.85-22-22-32.66-32.76C131.44,151.2,103.4,122.9,74.07,97l6.18-7c29.56,26.14,57.7,54.55,84.92,82,10.65,10.75,21.66,21.87,32.6,32.69,24.08,23.82,53,51.87,88.43,85.75,11.37,10.87,24.05,21.38,36.3,31.55,18.09,15,36.8,30.52,52.36,48,13.85,15.52,28.5,28.34,42.66,40.74,13.06,11.44,26.58,23.26,38.91,36.83,16.57,18.24,36.09,32,56.75,46.54,6.56,4.62,13.34,9.39,20,14.28l4,3c31.42,23.22,63.91,47.24,94.13,73.39,37.32,32.3,76.93,63.68,115.24,94,19.4,15.36,39.46,31.25,59.05,47.12,34.48,27.93,65.26,59.16,95,89.37,29.14,29.55,59.27,60.12,92.77,87.48Z" transform="translate(-70.41 -80.3)"/><path class="cls-3" d="M217.07,234.2a4.67,4.67,0,0,1-6.2.7c-4.9-3.5-11.13-4.76-17.73-6.09A79.81,79.81,0,0,1,178.9,225c-16.53-6.67-34.06-11.27-51-15.72-7.59-2-15.43-4.05-23.15-6.28a4.66,4.66,0,1,1,2.59-9c7.6,2.2,15.4,4.24,22.93,6.22,17.23,4.52,35.06,9.2,52.13,16.1A71.89,71.89,0,0,0,195,219.67c7.27,1.47,14.79,3,21.31,7.64a4.66,4.66,0,0,1,1.08,6.51C217.28,234,217.17,234.08,217.07,234.2Z" transform="translate(-70.41 -80.3)"/><path class="cls-3" d="M263.49,274.42a4.67,4.67,0,0,1-7.64-.94,16.59,16.59,0,0,0-2-2.7,24.67,24.67,0,0,1-2.74-3.84c-2.91-5.36-3-11.33-3.16-16.59,0-1.27-.06-2.55-.12-3.81-.7-13.06-2.17-29.95-7.37-44.66-4.18-11.84-9.22-25.67-14.95-38.56l-1-2.37c-3.3-7.55-10.17-23.26-17-26.64a4.66,4.66,0,1,1,4.11-8.37c9.94,4.89,17.16,21.41,21.47,31.28l1,2.31c5.86,13.19,11,27.24,15.22,39.24,5.59,15.84,7.16,33.58,7.89,47.27.07,1.36.1,2.73.13,4.1.1,4.62.2,9,2,12.36a17,17,0,0,0,1.75,2.37,25.36,25.36,0,0,1,3,4.31A4.69,4.69,0,0,1,263.49,274.42Z" transform="translate(-70.41 -80.3)"/><path class="cls-3" d="M385.59,389.68a4.63,4.63,0,0,1-3.77,1.57c-7.88-.48-15.67,1.52-23.92,3.63-4.32,1.11-8.78,2.25-13.31,3-10.53,1.8-19.25.47-30.42-1.61-5.06-.93-10.3-1.65-15.36-2.34-6.28-.86-12.78-1.75-19.18-3.09-3.65-.76-7.26-1.63-10.85-2.49A164.88,164.88,0,0,0,247,384.14c-3.35-.34-6.7-.65-10-1-9.7-.89-19.73-1.82-29.66-3.71a4.66,4.66,0,1,1,1.75-9.16c9.49,1.81,18.85,2.67,28.77,3.58,3.37.32,6.76.63,10.15,1a174.29,174.29,0,0,1,23,4.44c3.5.85,7,1.7,10.57,2.44,6.09,1.27,12.42,2.13,18.54,3,5.18.71,10.53,1.44,15.8,2.42,10.22,1.9,18.14,3.12,27.15,1.58,4.15-.71,8.24-1.76,12.57-2.87,8.58-2.2,17.45-4.47,26.79-3.91a4.66,4.66,0,0,1,4.37,4.94A4.57,4.57,0,0,1,385.59,389.68Z" transform="translate(-70.41 -80.3)"/><path class="cls-3" d="M443.34,439.12a4.66,4.66,0,0,1-7.81-1.32c-2-4.86-.82-10,.2-14.5a45.14,45.14,0,0,0,.87-4.43c1.74-14.72,1.14-29.95.32-40.13-.78-9.81-.8-19.55-.82-29,0-15.13-.06-29.43-3-44.21a103.56,103.56,0,0,0-2.87-10c-3.58-11.21-7.64-23.91-3.23-31.85a4.66,4.66,0,1,1,8.15,4.52c-2.45,4.42,1.41,16.5,4,24.49a108.78,108.78,0,0,1,3.15,11c3.06,15.66,3.09,31.08,3.12,46,0,9.25,0,18.81.8,28.26.84,10.6,1.47,26.48-.36,42-.22,1.8-.63,3.62-1,5.39-.76,3.33-1.54,6.77-.67,8.91A4.63,4.63,0,0,1,443.34,439.12Z" transform="translate(-70.41 -80.3)"/><path class="cls-3" d="M514.2,498.52a4.66,4.66,0,0,1-7.53-.75c-5.14-8.87-3.76-24.14-2.31-31,3.88-18.26,5.73-33.33,5.84-47.42.13-18.57-1.14-38.44-4-62.53-.13-1-.66-3.58-1.27-6.52-4.83-23.18-6.22-35.74-.47-40.18a4.66,4.66,0,0,1,6,7.14c-2,4.21,2.22,24.44,3.61,31.14.71,3.41,1.22,5.87,1.4,7.31,2.91,24.49,4.21,44.73,4.07,63.71-.11,14.73-2,30.39-6,49.28-1.43,6.75-2,18.77,1.26,24.37A4.66,4.66,0,0,1,514.2,498.52Zm-4.07-181Z" transform="translate(-70.41 -80.3)"/><path class="cls-3" d="M591.19,562a4.65,4.65,0,0,1-4.07,1.54c-8.13-1-19.12,1.12-28.81,3-3.11.6-6.07,1.17-8.76,1.61-10.37,1.68-21.11,4-31.5,6.14-31.8,6.72-64.69,13.67-97.36,6.88a4.66,4.66,0,1,1,1.9-9.13c30.76,6.39,62.67-.35,93.53-6.87,10.5-2.22,21.34-4.51,31.93-6.23,2.61-.42,5.48-1,8.49-1.55,10.38-2,22.13-4.28,31.73-3.09a4.66,4.66,0,0,1,2.92,7.71Z" transform="translate(-70.41 -80.3)"/><path class="cls-3" d="M695.17,646.35a4.66,4.66,0,0,1-4.22,1.52c-8.31-1.31-16.86.73-25.91,2.9-3.93.94-8,1.91-12,2.58q-5.46.9-10.93,1.85c-13.72,2.34-27.9,4.77-41.94,6.24-4.73.5-9.45,1.1-14.17,1.69-13.49,1.71-27.43,3.48-41.45,2.86-1.2-.06-2.71,0-4.4,0-8.66,0-20.52.08-26.17-5.87a4.66,4.66,0,1,1,6.75-6.42c2.89,3,14,3,19.39,3,1.86,0,3.53,0,4.85,0,13.22.58,26.76-1.13,39.86-2.79,4.79-.6,9.57-1.21,14.36-1.71,13.74-1.45,27.78-3.84,41.35-6.16l11-1.86c3.72-.62,7.45-1.51,11.39-2.45,9.54-2.28,19.4-4.64,29.53-3a4.67,4.67,0,0,1,3.88,5.33A4.59,4.59,0,0,1,695.17,646.35Z" transform="translate(-70.41 -80.3)"/><path class="cls-3" d="M747.52,685.07a4.67,4.67,0,0,1-8-2,37.81,37.81,0,0,0-2.21-6.12c-1.68-3.92-3.42-8-3.2-15.09.1-3.33.17-6.57.23-9.8.15-6.92.28-13.47.74-20.58.57-8.75,1-17.72,1.39-26.39.26-5.61.51-11.22.82-16.81.46-8.62-.73-16.83-2-25.52-.79-5.45-1.61-11.08-2-16.85a4.66,4.66,0,0,1,9.3-.61c.36,5.4,1.15,10.85,1.92,16.12,1.26,8.76,2.58,17.82,2.07,27.36-.3,5.57-.56,11.15-.82,16.74-.4,8.71-.82,17.73-1.39,26.57-.45,6.9-.58,13.35-.72,20.17-.07,3.25-.14,6.53-.24,9.89-.16,5,1,7.73,2.45,11.12a47.78,47.78,0,0,1,2.69,7.54A4.65,4.65,0,0,1,747.52,685.07Z" transform="translate(-70.41 -80.3)"/></svg>