<svg id="Layer_1" data-name="Layer 1" xmlns="http://www.w3.org/2000/svg" width="167.75" height="1033.84" viewBox="0 0 167.75 1033.84"><defs><style>.cls-1{fill:#008743;}</style></defs><title>Leaf 3</title><path class="cls-1" d="M448.54,28.11c13.39,46.09,27.71,89.69,35.75,137.59,9.17,54.67,19.69,109.24,27.84,164.07,12.71,85.4,9.32,166.94-2.23,252.48-9.7,71.82-19.75,140.86-27.22,212-3.58,34-6.3,68.93-12.5,102.53-3.9,21.09-10.75,42.91-15.82,64.37-3.62,15.32-6.19,31.52-10.37,46.5-5,17.78-14.62,35.91-17.07,54.32-.87-26.37,4.26-51.7.95-77.93-4.6-36.42-23.69-64.13-34.84-98.49-13.95-43-33.44-91.77-30.08-137.71,2.75-37.56,18.11-72.66,15.67-110.87-2.18-34.06-22.1-62.24-25.64-95.38-4.6-43,23.76-68.85,42.8-104.06,25.46-47.09,29.15-88.5,20.37-140.1-6.11-35.92-22.18-81.81-13.8-118C412.18,137,453.46,88.92,448.54,28.11Z" transform="translate(-352.48 -28.11)"/></svg>