<svg id="Layer_1" data-name="Layer 1" xmlns="http://www.w3.org/2000/svg" width="673.33" height="1047.23" viewBox="0 0 673.33 1047.23"><defs><style>.cls-1{fill:#009950;}.cls-2{fill:#008743;}.cls-3{fill:#1eba65;}</style></defs><title>Leaf 1</title><path class="cls-1" d="M854.28,14c-31.2,27.26-28.64,93.91-31.48,131.65-3.32,44.46,2.71,99.59-10.69,142.22-12,38.29-52.72,73.61-83.73,96-38,27.38-54.52,70.13-59.67,115.9-5.42,48.29-11.54,107.11-47.54,143.21-38.92,39-98.6,42.35-135.09,85.61-15,17.79-17.12,37.1-28,57-11.64,21.22-30.44,36.06-50.11,49.68-33.11,22.95-71.48,34.5-105.74,55.49C269.3,910.84,237,948.33,221,983.73c-4.25,9.41-5.24,20.41-8.94,29.82-7,17.64-18.93,31.26-31.14,47.68,6.57-18.07,13.93-35.78,19.76-54.29a.17.17,0,0,0,0-.07,248.16,248.16,0,0,0,7.37-28.7c8.79-46.26,7-102,5.47-149.23-1.42-43.11-1.2-93,13-134.12,13.68-39.73,46.59-70.67,60.59-109.76,16.22-45.28,4.13-93.12,21.65-138.62,8.47-22,13.65-40.27,30.68-57.71,17.2-17.65,41.17-31.64,63.22-42.51,40.37-19.91,65.81-39.38,82.06-83.79,16.67-45.5,52.3-79.63,89.87-109.32C658.32,86.94,769.32,74.88,854.28,14Z" transform="translate(-180.95 -14)"/><path class="cls-2" d="M854.28,14c-31.2,27.26-28.64,93.91-31.48,131.65-3.32,44.46,2.71,99.59-10.69,142.22-12,38.29-52.72,73.61-83.73,96-38,27.38-54.52,70.13-59.67,115.9-5.42,48.29-11.54,107.11-47.54,143.21-38.92,39-98.6,42.35-135.09,85.61-15,17.79-17.12,37.1-28,57-11.64,21.22-30.44,36.06-50.11,49.68-33.11,22.95-71.48,34.5-105.74,55.49C269.3,910.84,237,948.33,221,983.73c-4.25,9.41-5.24,20.41-8.94,29.82-7,17.64-18.93,31.26-31.14,47.68,4.24-15,11-33.31,19.76-54.29a.17.17,0,0,0,0-.07C304.92,759.08,704.9,133.79,854.28,14Z" transform="translate(-180.95 -14)"/><path class="cls-3" d="M811.27,62.42c-7,5.64-14.21,11.11-20.55,17.45-7,7-14,14.17-20.88,21.31q-20.42,21-40.84,42.07c-26.27,27.08-53.17,53.64-78.26,81.83-49.92,56.13-87.32,122-127,185.42L399.48,608.78c-40.66,64.91-83.27,129.06-119,196.89-33.71,64.05-61.7,131.63-82,201.15-2.51,8.64-4.85,17.29-6.94,26-1,4.12,5.11,5.58,6.34,1.59,10.56-34.39,21-68.72,33.81-102.37q19.47-51.29,44-100.47c33.62-67.52,75-130.76,115-194.6L513.83,440.48q30.87-49.31,61.76-98.59c19.54-31.12,39.46-62.14,62.62-90.74,23.48-29,49.67-55.8,75.52-82.67,26.61-27.67,53.63-55,79.78-83.12,6.57-7.06,12.25-14.87,18.06-22.57.15-.19-.07-.56-.3-.37Z" transform="translate(-180.95 -14)"/><path class="cls-3" d="M769.92,198.15c-22,23.61-52.83,38.53-81.53,52.32-26.68,12.82-55.48,24-79.4,41.77a116.67,116.67,0,0,0-17.17,15.3,64.72,64.72,0,0,0-6.77,8.71c-2.12,3.35-3.09,6.87-4.31,10.61-.37,1.15,1.35,2.15,2.11,1.16,4-5.3,8.6-10.54,13.06-15.57a106.76,106.76,0,0,1,15.79-14.4c11.68-8.78,24.56-15.8,37.59-22.33,27.54-13.8,56.1-26.1,82.41-42.2a162.85,162.85,0,0,0,39.74-33.92c.87-1-.59-2.44-1.52-1.45Z" transform="translate(-180.95 -14)"/><path class="cls-3" d="M664,383.39c-15.5,10.61-31.19,20.78-46.43,31.81-14.16,10.26-28.14,21-43.35,29.64s-32.29,13.75-48.06,21.59c-11.94,5.93-24.2,11.43-35.89,17.84-10.95,6-25.66,14.71-28.31,28.05a1.47,1.47,0,0,0,2.48,1.36c3.93-4.22,7.55-8.71,11.89-12.56a89.77,89.77,0,0,1,16.56-11.21c11.34-6.27,23.27-11.43,34.75-17.44,15-7.86,31.34-12.79,46.08-21.23s28.24-19.32,41.9-29.48c16.55-12.29,32.44-25.24,48.63-37.95.24-.19,0-.6-.25-.42Z" transform="translate(-180.95 -14)"/><path class="cls-3" d="M595.6,552.39c-18.7,8-37.41,15.74-55.61,24.87-18.62,9.35-37.05,19.1-55.35,29.07-18,9.82-35.79,20-53.54,30.28-15.35,8.88-30.33,18.31-46,26.59-7.29,3.84-14.58,7.81-21.05,13-5.24,4.17-10.58,9.22-11,16.27-.13,2,2.78,3.05,4.07,1.57,4.13-4.74,7.8-9.52,12.9-13.32a140.22,140.22,0,0,1,18.27-11c15-8,29.41-16.84,44-25.59,34.29-20.61,69.4-39.83,104.73-58.57,19.84-10.52,39.25-21.68,59-32.26.48-.25.11-1.1-.4-.88Z" transform="translate(-180.95 -14)"/><path class="cls-3" d="M618,142.29c-6.62,31-8.12,62.91-12.77,94.25-4.63,31.17-13.69,60.83-24.74,90.26-.63,1.68,1.88,2.38,2.75,1.08,17.73-26.5,24.22-58.56,28.38-89.75,4.23-31.7,6-63.82,7-95.77a.32.32,0,0,0-.62-.07Z" transform="translate(-180.95 -14)"/><path class="cls-3" d="M490.53,327.07c-4.13,16.28-8.72,32.32-11.57,48.9-2.72,15.83-4.76,31.76-6.46,47.74-1.74,16.28-2.92,32.61-3.77,49-.8,15.56-2.57,30.22-8.39,44.78A2.61,2.61,0,0,0,464.9,520c8.38-11.48,9.49-26.54,10.3-40.37,1-16.7,1.81-33.37,3.37-50,1.6-17.1,3.7-34.14,6-51.16s3.84-34.2,6.7-51.14a.39.39,0,0,0-.76-.19Z" transform="translate(-180.95 -14)"/><path class="cls-3" d="M347.67,527.32c.25,14.41-.26,28.79,0,43.2.28,14.73,1.11,29.45,1.75,44.17q.92,21.59,1.87,43.15l1,21.57c.15,3.34.78,6.88-.6,10-1.15,2.65-3.43,4.41-4.86,6.86-.93,1.59.7,3.14,2.27,2.82,13.17-2.69,9.42-21,9-30.12q-1.08-23.64-2.21-47.26c-.75-15.74-1.31-31.51-2.34-47.24s-3-31.45-4.17-47.21a.86.86,0,0,0-1.71,0Z" transform="translate(-180.95 -14)"/></svg>