<svg id="Layer_1" data-name="Layer 1" xmlns="http://www.w3.org/2000/svg" width="950.18" height="1041.86" viewBox="0 0 950.18 1041.86"><defs><style>.cls-1{fill:#006d4e;}</style></defs><title>Leaf 2</title><path class="cls-1" d="M735.25,257.18C853.82,44.79,966.38-51.56,1010.34,68S812.13,178,735.25,257.18Z" transform="translate(-73.47 -16)"/><path class="cls-1" d="M664.68,349.77c94.11-92.72,368.17-163.49,358.73-39.36S739.3,297.75,664.68,349.77Z" transform="translate(-73.47 -16)"/><path class="cls-1" d="M643.87,383.4C731.22,284.29,786.66,6.72,663.24,23S691.66,306,643.87,383.4Z" transform="translate(-73.47 -16)"/><path class="cls-1" d="M511.28,541c101.32-106,403-193.6,396.64-55.59S592.34,480.77,511.28,541Z" transform="translate(-73.47 -16)"/><path class="cls-1" d="M332.58,774.31c80.57-122.49,361.51-263,380.14-126.11S401.47,700.51,332.58,774.31Z" transform="translate(-73.47 -16)"/><path class="cls-1" d="M126.18,994.85c92.7-113.59,386.56-224.59,391.06-86.5S202.27,928.5,126.18,994.85Z" transform="translate(-73.47 -16)"/><path class="cls-1" d="M502.32,557.08C551.34,515,640.71,236,514,212.85S539.81,482.07,502.32,557.08Z" transform="translate(-73.47 -16)"/><path class="cls-1" d="M319.37,789.82c49-42.13,138.39-321,11.69-344.24S356.87,714.8,319.37,789.82Z" transform="translate(-73.47 -16)"/><path class="cls-1" d="M113.1,1015.36c49-42.13,138.4-321,11.7-344.24S150.6,940.35,113.1,1015.36Z" transform="translate(-73.47 -16)"/><path class="cls-1" d="M85.4,1057.86c21.39-41,52.4-70.85,85.23-102.5,15-14.49,30.57-29.48,45.11-45.61,12.69-14.1,26.28-28.21,39.43-41.85,19.48-20.22,39.64-41.14,57.94-63.08,12.06-14.46,22.36-29.45,32.33-44,7.69-11.21,15.66-22.8,24.3-33.92,9.12-11.75,18.6-22.87,27.76-33.64,16.68-19.59,33.92-39.84,48.92-63.8,4.42-7,8.76-14.32,13-21.5,3.22-5.4,6.41-10.75,9.57-15.89,8.23-13.41,19.38-22.58,31.18-32.28,4.92-4.05,10-8.24,15.08-12.88,22.36-20.48,38-43.6,53.05-66,11.38-16.86,25.35-31.95,38.86-46.54,9.84-10.63,20-21.61,29.25-33.32,6.51-8.25,13.35-16.49,20-24.47,15.82-19.05,32.18-38.74,45.43-60.27,3.33-5.41,6.58-11,9.85-16.56,8.14-13.95,16.56-28.37,26.57-40.76A160.68,160.68,0,0,1,751.65,245c5.64-5.5,11.48-11.19,16.51-18l-7.38-5.47c-4.59,6.2-9.91,11.38-15.54,16.87a170.44,170.44,0,0,0-14.12,14.92c-10.44,12.93-19,27.65-27.36,41.9-3.23,5.53-6.44,11-9.73,16.37-12.91,21-29.06,40.42-44.67,59.23-6.66,8-13.54,16.3-20.12,24.64-9,11.43-19.06,22.27-28.78,32.77-13.74,14.84-28,30.19-39.73,47.64-15.48,22.93-30.09,44.58-51.64,64.33-4.89,4.47-9.88,8.58-14.71,12.55C482,562.94,470.23,572.59,461.2,587.3c-3.18,5.18-6.39,10.56-9.63,16-4.25,7.13-8.55,14.34-12.93,21.34C424,648,407.73,667.12,390.51,687.35c-9.24,10.83-18.78,22-28,33.95-8.8,11.34-16.84,23-24.62,34.36-9.84,14.33-20,29.15-31.8,43.27-18.1,21.69-38.13,42.49-57.51,62.6-13.2,13.69-26.84,27.85-39.64,42.07-14.31,15.89-29.74,30.77-44.66,45.15-31.91,30.76-64.91,62.58-87,104.85Z" transform="translate(-73.47 -16)"/></svg>