<svg id="Layer_1" data-name="Layer 1" xmlns="http://www.w3.org/2000/svg" width="304.23" height="997.36" viewBox="0 0 304.23 997.36"><defs><style>.cls-1{fill:#006d4e;}</style></defs><title>Leaf 4</title><path class="cls-1" d="M797,46.18c-24.08,27-33.82,64.05-37.65,99.28-4,36.9-1.46,73.18,3.25,109.85,2.32,18.08,4.5,36.49,1.7,54.64-2.68,17.37-11,31.73-23.9,43.55-13.35,12.24-28.5,22.29-42.06,34.27s-26.46,25.7-36,41.35a127.34,127.34,0,0,0-18.39,52.65c-2.06,18.75-.34,37.81,2.11,56.43,4.52,34.36,13.59,71.92,1,105.6-11.65,31.07-37.8,53.62-56.33,80.4a149.73,149.73,0,0,0-22.32,48.51c-4.43,17.13-6.22,34.78-9.82,52.08-3.56,17.14-9.64,32.47-20.81,46.09-11.82,14.42-23.25,28-30.76,45.28-13.74,31.67-16.09,69.76-4.29,102.41,2.85,7.87,8.75,15.38,14,21.85s14.5.34,12-7.05c-2.8-8.11-4-16.5-6.43-24.71A126.57,126.57,0,0,1,517.91,986a122,122,0,0,1,4.14-46.59,120,120,0,0,1,23.35-43.33c6.29-7.53,13.08-14.73,18.3-23.09a110.49,110.49,0,0,0,11.47-24.58c10.55-32.71,8.92-68.83,26-99.4,16.19-29,42.17-51.1,58.56-80,18.55-32.76,17.29-69.7,12.16-105.83-4.88-34.43-13.31-71.52-.47-105.24,6.08-16,16-30,27.59-42.49,11.94-12.9,26-23.31,39.47-34.52,14-11.68,26.85-24.8,34.88-41.38s9.65-35.38,8.75-53.58-4.51-36.32-6.9-54.46a512.85,512.85,0,0,1-4.25-54.4A272.33,272.33,0,0,1,789.09,71.66c3.17-8.12,6.53-16.24,10-24.22.61-1.38-1.26-2.3-2.18-1.26Z" transform="translate(-495.03 -45.73)"/></svg>