<svg id="Layer_1" data-name="Layer 1" xmlns="http://www.w3.org/2000/svg" width="1056" height="400.28" viewBox="0 0 1056 400.28"><defs><style>.cls-1{fill:#bcbcbc;}.cls-2{fill:#424242;}.cls-3{fill:#556270;}.cls-4{fill:#40484f;}.cls-5{fill:#fecea8;}.cls-6{fill:#fff;}.cls-7{fill:#ff847c;}.cls-8{fill:#c44d58;}.cls-9{fill:#036564;}.cls-10{fill:#024240;}.cls-11{fill:#4ecdc4;}.cls-12{fill:#31a398;}.cls-13{fill:#565656;}.cls-14{fill:#f8ca00;}.cls-15{fill:#e97f02;}.cls-16{fill:#67809f;}.cls-17{fill:#34495e;}.cls-18{fill:#89695e;}.cls-19{fill:#795547;}.cls-20{fill:#f9bf3b;}.cls-21{fill:#f27935;}.cls-22{fill:#647584;}</style></defs><title>Ship-2</title><rect class="cls-1" x="190.15" y="237.77" width="129.19" height="56.89"/><rect class="cls-1" x="190.15" y="155.28" width="129.19" height="56.89"/><rect class="cls-2" x="190.15" y="212.17" width="129.19" height="25.6"/><rect class="cls-2" x="190.15" y="105.69" width="83.99" height="49.6"/><rect class="cls-1" x="190.15" y="71.6" width="58.43" height="34.09"/><polygon class="cls-1" points="198.35 0 190.15 0 190.15 71.6 210.41 71.6 198.35 0"/><rect class="cls-1" x="225.16" y="51.08" width="11.17" height="20.51"/><path class="cls-1" d="M261.77,461.62a18,18,0,1,1-18-18A18,18,0,0,1,261.77,461.62Z" transform="translate(-13 -425.82)"/><path class="cls-3" d="M956.76,663.59a80.53,80.53,0,0,0-66.59,35.25l-14.73,21.64H169.65l-36.29-56.89H13l9.12,46.6c0,34.89,17.25,66.23,43.29,87.51,21.61,17.67,49.27,28.4,78.21,28.4H914.05a35,35,0,0,0,27.74-13.65l11.35-14.75L1028,700.52a78.32,78.32,0,0,1,11.6-12.13l29.45-24.8Z" transform="translate(-13 -425.82)"/><path class="cls-4" d="M780,826.1h134a35,35,0,0,0,27.74-13.65l11.35-14.75L1028,700.52s-48.9,56-106.88,86.59S780,826.1,780,826.1Z" transform="translate(-13 -425.82)"/><path class="cls-5" d="M143.62,826.1H914.05a35,35,0,0,0,27.74-13.65l11.35-14.75H65.41C87,815.37,114.68,826.1,143.62,826.1Z" transform="translate(-13 -425.82)"/><polygon class="cls-6" points="236.33 237.77 225.16 237.77 240.04 212.27 251.21 212.27 236.33 237.77"/><polygon class="cls-6" points="262.35 237.77 254.75 237.77 269.63 212.27 277.23 212.27 262.35 237.77"/><rect class="cls-7" x="326.04" y="225.66" width="56.9" height="69"/><rect class="cls-8" x="331.04" y="229.23" width="9.2" height="61.87"/><rect class="cls-8" x="349.89" y="229.23" width="9.21" height="61.87"/><rect class="cls-8" x="368.74" y="229.23" width="9.21" height="61.87"/><rect class="cls-9" x="382.94" y="225.66" width="56.89" height="69"/><rect class="cls-10" x="387.93" y="229.23" width="9.2" height="61.87"/><rect class="cls-10" x="406.78" y="229.23" width="9.2" height="61.87"/><rect class="cls-10" x="425.63" y="229.23" width="9.2" height="61.87"/><rect class="cls-11" x="326.04" y="156.66" width="56.9" height="69"/><rect class="cls-12" x="331.04" y="160.22" width="9.2" height="61.87"/><rect class="cls-12" x="349.89" y="160.22" width="9.21" height="61.87"/><rect class="cls-12" x="368.74" y="160.22" width="9.21" height="61.87"/><rect class="cls-13" x="382.94" y="156.66" width="56.89" height="69"/><rect class="cls-2" x="387.93" y="160.22" width="9.2" height="61.87"/><rect class="cls-2" x="406.78" y="160.22" width="9.2" height="61.87"/><rect class="cls-2" x="425.63" y="160.22" width="9.2" height="61.87"/><rect class="cls-7" x="439.83" y="225.66" width="56.9" height="69"/><rect class="cls-8" x="444.83" y="229.23" width="9.2" height="61.87"/><rect class="cls-8" x="463.68" y="229.23" width="9.2" height="61.87"/><rect class="cls-8" x="482.53" y="229.23" width="9.2" height="61.87"/><rect class="cls-14" x="439.83" y="156.66" width="56.9" height="69"/><rect class="cls-15" x="444.83" y="160.22" width="9.2" height="61.87"/><rect class="cls-15" x="463.68" y="160.22" width="9.2" height="61.87"/><rect class="cls-15" x="482.53" y="160.22" width="9.2" height="61.87"/><rect class="cls-16" x="496.73" y="225.66" width="56.89" height="69"/><rect class="cls-17" x="501.72" y="229.23" width="9.2" height="61.87"/><rect class="cls-17" x="520.57" y="229.23" width="9.2" height="61.87"/><rect class="cls-17" x="539.42" y="229.23" width="9.2" height="61.87"/><rect class="cls-18" x="496.73" y="156.66" width="56.89" height="69"/><rect class="cls-19" x="501.72" y="160.22" width="9.2" height="61.87"/><rect class="cls-19" x="520.57" y="160.22" width="9.2" height="61.87"/><rect class="cls-19" x="539.42" y="160.22" width="9.2" height="61.87"/><rect class="cls-14" x="553.62" y="225.66" width="56.9" height="69"/><rect class="cls-15" x="558.61" y="229.23" width="9.21" height="61.87"/><rect class="cls-15" x="577.46" y="229.23" width="9.2" height="61.87"/><rect class="cls-15" x="596.31" y="229.23" width="9.2" height="61.87"/><rect class="cls-9" x="553.62" y="156.66" width="56.9" height="69"/><rect class="cls-10" x="558.61" y="160.22" width="9.21" height="61.87"/><rect class="cls-10" x="577.46" y="160.22" width="9.2" height="61.87"/><rect class="cls-10" x="596.31" y="160.22" width="9.2" height="61.87"/><rect class="cls-7" x="610.51" y="225.66" width="56.9" height="69"/><rect class="cls-8" x="615.51" y="229.23" width="9.2" height="61.87"/><rect class="cls-8" x="634.36" y="229.23" width="9.2" height="61.87"/><rect class="cls-8" x="653.22" y="229.23" width="9.2" height="61.87"/><rect class="cls-11" x="610.51" y="156.66" width="56.9" height="69"/><rect class="cls-12" x="615.51" y="160.22" width="9.2" height="61.87"/><rect class="cls-12" x="634.36" y="160.22" width="9.2" height="61.87"/><rect class="cls-12" x="653.22" y="160.22" width="9.2" height="61.87"/><rect class="cls-13" x="667.41" y="225.66" width="56.89" height="69"/><rect class="cls-2" x="672.4" y="229.23" width="9.2" height="61.87"/><rect class="cls-2" x="691.25" y="229.23" width="9.2" height="61.87"/><rect class="cls-2" x="710.1" y="229.23" width="9.2" height="61.87"/><rect class="cls-11" x="667.41" y="156.66" width="56.89" height="69"/><rect class="cls-12" x="672.4" y="160.22" width="9.2" height="61.87"/><rect class="cls-12" x="691.25" y="160.22" width="9.2" height="61.87"/><rect class="cls-12" x="710.1" y="160.22" width="9.2" height="61.87"/><rect class="cls-16" x="724.3" y="225.66" width="56.9" height="69"/><rect class="cls-17" x="729.3" y="229.23" width="9.21" height="61.87"/><rect class="cls-17" x="748.15" y="229.23" width="9.21" height="61.87"/><rect class="cls-17" x="767" y="229.23" width="9.2" height="61.87"/><rect class="cls-18" x="724.3" y="156.66" width="56.9" height="69"/><rect class="cls-19" x="729.3" y="160.22" width="9.21" height="61.87"/><rect class="cls-19" x="748.15" y="160.22" width="9.21" height="61.87"/><rect class="cls-19" x="767" y="160.22" width="9.2" height="61.87"/><rect class="cls-11" x="781.2" y="225.66" width="56.89" height="69"/><rect class="cls-12" x="786.2" y="229.23" width="9.2" height="61.87"/><rect class="cls-12" x="805.05" y="229.23" width="9.2" height="61.87"/><rect class="cls-12" x="823.9" y="229.23" width="9.2" height="61.87"/><rect class="cls-20" x="781.2" y="156.66" width="56.89" height="69"/><rect class="cls-21" x="786.2" y="160.22" width="9.2" height="61.87"/><rect class="cls-21" x="805.05" y="160.22" width="9.2" height="61.87"/><rect class="cls-21" x="823.9" y="160.22" width="9.2" height="61.87"/><polygon class="cls-22" points="862.08 294.66 156.69 294.66 120.38 238 120.38 237.77 0 237.77 1.4 244.91 116.33 244.91 152.54 301.41 152.54 301.8 152.79 301.8 153.07 302.24 153.75 301.8 862.08 301.8 862.08 294.66"/><path class="cls-22" d="M954.59,738.14A12.12,12.12,0,1,1,942.48,726,12.11,12.11,0,0,1,954.59,738.14Z" transform="translate(-13 -425.82)"/><rect class="cls-2" x="194.79" y="160.22" width="12.51" height="6.46"/><rect class="cls-2" x="214.53" y="160.22" width="12.51" height="6.46"/><rect class="cls-2" x="234.27" y="160.22" width="12.51" height="6.46"/><rect class="cls-2" x="194.79" y="173.06" width="12.51" height="6.46"/><rect class="cls-2" x="214.53" y="173.06" width="12.51" height="6.46"/><rect class="cls-2" x="234.27" y="173.06" width="12.51" height="6.46"/><rect class="cls-2" x="194.79" y="185.9" width="12.51" height="6.46"/><rect class="cls-2" x="214.53" y="185.9" width="12.51" height="6.46"/><rect class="cls-2" x="234.27" y="185.9" width="12.51" height="6.46"/><rect class="cls-2" x="194.79" y="198.74" width="12.51" height="6.45"/><rect class="cls-2" x="214.53" y="198.74" width="12.51" height="6.45"/><rect class="cls-2" x="234.27" y="198.74" width="12.51" height="6.45"/><rect class="cls-2" x="254.01" y="160.22" width="12.51" height="6.46"/><rect class="cls-2" x="273.75" y="160.22" width="12.51" height="6.46"/><rect class="cls-2" x="293.49" y="160.22" width="12.51" height="6.46"/><path class="cls-2" d="M225.27,678.19a8,8,0,1,1-8-8.05A8,8,0,0,1,225.27,678.19Z" transform="translate(-13 -425.82)"/><path class="cls-2" d="M249.88,678.19a8,8,0,1,1-8-8.05A8.06,8.06,0,0,1,249.88,678.19Z" transform="translate(-13 -425.82)"/><path class="cls-2" d="M274.48,678.19a8,8,0,1,1-8.05-8.05A8.06,8.06,0,0,1,274.48,678.19Z" transform="translate(-13 -425.82)"/><path class="cls-2" d="M299.08,678.19a8,8,0,1,1-8.05-8.05A8.06,8.06,0,0,1,299.08,678.19Z" transform="translate(-13 -425.82)"/><path class="cls-2" d="M323.67,678.19a8,8,0,1,1-8-8.05A8,8,0,0,1,323.67,678.19Z" transform="translate(-13 -425.82)"/><path class="cls-2" d="M963.34,784.46l-912-.25s3.75,4.15,7.1,7.31,7,6.18,7,6.18H953.14Z" transform="translate(-13 -425.82)"/><rect class="cls-7" x="151.55" y="300.21" width="709.54" height="9.63"/><path class="cls-2" d="M180.63,750.26a8,8,0,1,1-8-8A8,8,0,0,1,180.63,750.26Z" transform="translate(-13 -425.82)"/><path class="cls-2" d="M205.6,750.26a8,8,0,1,1-8-8A8,8,0,0,1,205.6,750.26Z" transform="translate(-13 -425.82)"/><path class="cls-2" d="M230.57,750.26a8,8,0,1,1-8-8A8,8,0,0,1,230.57,750.26Z" transform="translate(-13 -425.82)"/><path class="cls-2" d="M255.54,750.26a8,8,0,1,1-8-8A8,8,0,0,1,255.54,750.26Z" transform="translate(-13 -425.82)"/><path class="cls-2" d="M280.51,750.26a8,8,0,1,1-8-8A8,8,0,0,1,280.51,750.26Z" transform="translate(-13 -425.82)"/><path class="cls-2" d="M305.48,750.26a8,8,0,1,1-8-8A8,8,0,0,1,305.48,750.26Z" transform="translate(-13 -425.82)"/><path class="cls-2" d="M330.45,750.26a8,8,0,1,1-8-8A8,8,0,0,1,330.45,750.26Z" transform="translate(-13 -425.82)"/><path class="cls-2" d="M355.42,750.26a8,8,0,1,1-8-8A8,8,0,0,1,355.42,750.26Z" transform="translate(-13 -425.82)"/><path class="cls-2" d="M380.39,750.26a8,8,0,1,1-8-8A8,8,0,0,1,380.39,750.26Z" transform="translate(-13 -425.82)"/><path class="cls-2" d="M405.36,750.26a8,8,0,1,1-8-8A8.06,8.06,0,0,1,405.36,750.26Z" transform="translate(-13 -425.82)"/><path class="cls-2" d="M430.33,750.26a8,8,0,1,1-8.05-8A8.05,8.05,0,0,1,430.33,750.26Z" transform="translate(-13 -425.82)"/><path class="cls-2" d="M455.3,750.26a8,8,0,1,1-8-8A8,8,0,0,1,455.3,750.26Z" transform="translate(-13 -425.82)"/><path class="cls-2" d="M480.27,750.26a8,8,0,1,1-8-8A8.05,8.05,0,0,1,480.27,750.26Z" transform="translate(-13 -425.82)"/><path class="cls-2" d="M505.24,750.26a8,8,0,1,1-8.05-8A8.06,8.06,0,0,1,505.24,750.26Z" transform="translate(-13 -425.82)"/><path class="cls-2" d="M530.2,750.26a8,8,0,1,1-8-8A8,8,0,0,1,530.2,750.26Z" transform="translate(-13 -425.82)"/><path class="cls-2" d="M555.17,750.26a8,8,0,1,1-8-8A8,8,0,0,1,555.17,750.26Z" transform="translate(-13 -425.82)"/><path class="cls-2" d="M580.15,750.26a8,8,0,1,1-8-8A8.05,8.05,0,0,1,580.15,750.26Z" transform="translate(-13 -425.82)"/><path class="cls-2" d="M605.11,750.26a8,8,0,1,1-8-8A8,8,0,0,1,605.11,750.26Z" transform="translate(-13 -425.82)"/><path class="cls-2" d="M630.08,750.26a8,8,0,1,1-8-8A8,8,0,0,1,630.08,750.26Z" transform="translate(-13 -425.82)"/><path class="cls-2" d="M655.05,750.26a8,8,0,1,1-8-8A8,8,0,0,1,655.05,750.26Z" transform="translate(-13 -425.82)"/><path class="cls-2" d="M680,750.26a8,8,0,1,1-8-8A8.06,8.06,0,0,1,680,750.26Z" transform="translate(-13 -425.82)"/><path class="cls-2" d="M705,750.26a8,8,0,1,1-8-8A8,8,0,0,1,705,750.26Z" transform="translate(-13 -425.82)"/><path class="cls-2" d="M730,750.26a8,8,0,1,1-8-8A8,8,0,0,1,730,750.26Z" transform="translate(-13 -425.82)"/><path class="cls-2" d="M754.93,750.26a8,8,0,1,1-8-8A8,8,0,0,1,754.93,750.26Z" transform="translate(-13 -425.82)"/><path class="cls-2" d="M779.91,750.26a8,8,0,1,1-8.06-8A8.06,8.06,0,0,1,779.91,750.26Z" transform="translate(-13 -425.82)"/><path class="cls-2" d="M804.87,750.26a8,8,0,1,1-8-8A8,8,0,0,1,804.87,750.26Z" transform="translate(-13 -425.82)"/><path class="cls-2" d="M829.84,750.26a8,8,0,1,1-8-8A8,8,0,0,1,829.84,750.26Z" transform="translate(-13 -425.82)"/><path class="cls-2" d="M854.81,750.26a8,8,0,1,1-8-8A8,8,0,0,1,854.81,750.26Z" transform="translate(-13 -425.82)"/><path class="cls-2" d="M879.78,750.26a8,8,0,1,1-8-8A8.05,8.05,0,0,1,879.78,750.26Z" transform="translate(-13 -425.82)"/></svg>