<svg id="Layer_1" data-name="Layer 1" xmlns="http://www.w3.org/2000/svg" width="765.86" height="718.76" viewBox="0 0 765.86 718.76"><defs><style>.cls-1{fill:#9facad;}.cls-2{fill:#f2fbfc;}.cls-3{fill:#604f3a;}.cls-4{fill:#fff;}</style></defs><title>Ship 1</title><path class="cls-1" d="M448,779.23c9.93-30,25-51,45.6-54.29s125-5.88,137-4.78,44.31,39.34,44.31,39.34Z" transform="translate(-186 -146.11)"/><path class="cls-2" d="M186.57,795.83c87.14,90.9,372.48,65.89,501.91,65.89s225-79.42,263.28-136.78C792.91,736.7,293.57,791.71,186.57,795.83Z" transform="translate(-186 -146.11)"/><polygon class="cls-3" points="198.21 633.13 190.26 633.13 194.24 0.06 198.21 0.06 198.21 633.13"/><path class="cls-2" d="M384.21,146.17C484,357.23,694.37,626.39,740,648.46L384.21,724.94Z" transform="translate(-186 -146.11)"/><path class="cls-1" d="M529.58,812.9a18,18,0,1,1-18-18A18,18,0,0,1,529.58,812.9Z" transform="translate(-186 -146.11)"/><path class="cls-1" d="M598.07,812.9a18,18,0,1,1-18-18A18,18,0,0,1,598.07,812.9Z" transform="translate(-186 -146.11)"/><path class="cls-1" d="M666.55,812.9a18,18,0,1,1-18-18A18,18,0,0,1,666.55,812.9Z" transform="translate(-186 -146.11)"/><path class="cls-4" d="M187.13,796.25l-1.13-.84c50.22-67.59,99.63-230.58,124.61-321.73,34.11-124.41,63.09-262.18,68.93-327.57l1.4.07c-.89,141.86-95.89,637.71-96.85,642.71l-1.38-.27c.92-4.8,88.84-463.66,96.32-624.75-8.75,70.49-35.75,196-67.06,310.18C287,565.29,237.49,728.47,187.13,796.25Z" transform="translate(-186 -146.11)"/><path class="cls-4" d="M951.67,725.64c-1.31-.18-131.83-18-212.12-76.62l.83-1.13c80,58.41,210.17,76.18,211.48,76.35Z" transform="translate(-186 -146.11)"/></svg>