<svg xmlns="http://www.w3.org/2000/svg" width="817.1" height="796.78" viewBox="0 0 817.1 796.78"><defs><style>.cls-1{isolation:isolate;}.cls-2,.cls-3,.cls-4{fill:#f90;}.cls-3{opacity:0.45;}.cls-3,.cls-6,.cls-8{mix-blend-mode:screen;}.cls-4,.cls-6,.cls-7{opacity:0.25;}.cls-4,.cls-7{mix-blend-mode:multiply;}.cls-5,.cls-6,.cls-7,.cls-8{fill:#ffc400;}.cls-8{opacity:0.5;}</style></defs><title>Sun</title><g class="cls-1"><g id="Layer_1" data-name="Layer 1"><path class="cls-2" d="M928.85,580.39S852.2,627.64,846,654.77s42.44,102.94,42.44,102.94-89.61,9.17-107,30.93-6.43,111.17-6.43,111.17-84.74-30.47-109.81-18.38-54,97.35-54,97.35-63.05-64.37-90.9-64.37-90.9,64.37-90.9,64.37-29-85.27-54-97.35S265.55,899.8,265.55,899.8s10.94-89.41-6.43-111.16-107-30.93-107-30.93,48.63-75.8,42.44-102.94-82.83-74.38-82.83-74.38S188.4,533.14,194.58,506s-42.43-102.94-42.43-102.94,89.61-9.17,107-30.93S265.56,261,265.56,261s84.73,30.47,109.81,18.38,54-97.35,54-97.35,63.06,64.37,90.9,64.37S611.2,182,611.2,182s29,85.27,54,97.36S775.05,261,775.05,261s-10.93,89.41,6.43,111.17,107,30.92,107,30.92S839.84,478.87,846,506,928.85,580.39,928.85,580.39Z" transform="translate(-111.75 -182)"/><path class="cls-3" d="M846,654.77c6.18-27.13,82.83-74.38,82.83-74.38S852.2,533.14,846,506s42.44-102.94,42.44-102.94-89.61-9.16-107-30.92S775.05,261,775.05,261s-84.74,30.46-109.81,18.38-54-97.36-54-97.36-63.05,64.37-90.9,64.37S429.4,182,429.4,182s-29,85.27-54,97.35S265.56,261,265.56,261s10.93,89.41-6.43,111.17-107,30.93-107,30.93,48.62,75.8,42.43,102.94-82.83,74.38-82.83,74.38,76.65,47.25,82.83,74.38-42.44,102.94-42.44,102.94,89.62,9.17,107,30.93,6.43,111.16,6.43,111.16,84.74-30.46,109.81-18.38,54,97.36,54,97.36,63.06-64.37,90.9-64.37,90.9,64.37,90.9,64.37,29-85.27,54-97.35,109.81,18.38,109.81,18.38-10.94-89.41,6.43-111.17,107-30.93,107-30.93S839.84,681.91,846,654.77Zm15.58,90s-83.07,8.5-99.17,28.67-6,103.06-6,103.06-78.56-28.25-101.81-17-50.09,90.25-50.09,90.25-58.45-59.67-84.27-59.67S436,949.72,436,949.72s-26.85-79.05-50.09-90.25-101.81,17-101.81,17,10.14-82.88-6-103.06S179,744.77,179,744.77s45.08-70.26,39.34-95.42-76.78-69-76.78-69,71.05-43.8,76.78-69S179,416,179,416s83.08-8.5,99.18-28.68,6-103.06,6-103.06,78.55,28.25,101.8,17S436,211.06,436,211.06s58.46,59.67,84.27,59.67,84.27-59.67,84.27-59.67,26.85,79.05,50.1,90.26,101.8-17,101.8-17-10.14,82.89,6,103.06S861.6,416,861.6,416s-45.07,70.26-39.34,95.42,76.79,69,76.79,69-71.06,43.8-76.79,69S861.6,744.78,861.6,744.78Z" transform="translate(-111.75 -182)"/><path class="cls-4" d="M851.22,580.39s-62.08,38.27-67.09,60.25S818.51,724,818.51,724s-72.59,7.43-86.66,25.05-5.2,90-5.2,90S658,814.44,637.7,824.23s-43.77,78.86-43.77,78.86S542.86,851,520.3,851s-73.63,52.14-73.63,52.14S423.21,834,402.9,824.23,314,839.11,314,839.11s8.86-72.42-5.2-90S222.1,724,222.1,724s39.38-61.4,34.37-83.38-67.09-60.25-67.09-60.25,62.08-38.27,67.09-60.25-34.37-83.38-34.37-83.38,72.58-7.42,86.65-25.05,5.21-90,5.21-90,68.64,24.68,89,14.89,43.76-78.85,43.76-78.85,51.08,52.13,73.63,52.13,73.63-52.13,73.63-52.13,23.46,69.06,43.77,78.85,88.95-14.88,88.95-14.88-8.86,72.42,5.21,90,86.65,25.05,86.65,25.05-39.38,61.4-34.38,83.38S851.22,580.39,851.22,580.39Z" transform="translate(-111.75 -182)"/><circle class="cls-5" cx="408.55" cy="398.39" r="276.82"/><path class="cls-6" d="M683.6,499.7c-19.76,22-49.45,32.18-78.3,38.84-46.93,10.84-98.8,16.34-133.55,49.71-11.95,11.48-21,25.57-31.27,38.58-15.33,19.44-34,36.9-56.7,46.81s-49.84,11.45-71.87.15c-39.51-20.24-44.15-53-44.15-93.4,0-139.47,113.07-252.54,252.54-252.54a253.07,253.07,0,0,1,152,50.87c37.11,28.09,43.42,84.07,12.2,119.93C684.23,499,683.92,499.36,683.6,499.7Z" transform="translate(-111.75 -182)"/><path class="cls-7" d="M721.71,390.59a276.25,276.25,0,0,1,16.12,93.17c0,152.89-123.94,276.83-276.82,276.83a276,276,0,0,1-201.41-87c38.26,107,140.52,183.65,260.7,183.65,152.89,0,276.82-123.93,276.82-276.82A275.81,275.81,0,0,0,721.71,390.59Z" transform="translate(-111.75 -182)"/><path class="cls-6" d="M732.14,436.54a257.09,257.09,0,0,1,26.32,113.53c0,142.81-115.77,258.58-258.58,258.58-89.37,0-168.1-45.38-214.53-114.32,42,85.9,130.25,145.08,232.34,145.08,142.8,0,258.57-115.77,258.57-258.58A257.08,257.08,0,0,0,732.14,436.54Z" transform="translate(-111.75 -182)"/><path class="cls-8" d="M386.23,391.39c.55,1.15-4.77,4.81-12.16,10.67a196.65,196.65,0,0,0-25,23.37A189,189,0,0,0,329,452.63c-4.78,7.86-7.47,13.35-7.47,13.35s-3.27,5.18-7.55,13.38a245.29,245.29,0,0,0-13.52,31.33c-8.53,23.57-12.59,48.88-15,48.67s-2.71-26.26,3.13-52a214.07,214.07,0,0,1,10.77-34.72c3.79-9.24,6.93-15.18,6.93-15.18s3.41-5.79,9.38-13.84a174.51,174.51,0,0,1,24.74-27c10-8.78,21.13-16.09,30.06-20.33S385.75,390.36,386.23,391.39Zm66-41.34a59.09,59.09,0,0,0-13.48,1.89,58.82,58.82,0,0,0-10.6,8.54c-4.77,4.92-8,10.88-6.31,12.61s7.46-.56,13-2.18,10.87-2.9,10.87-2.9,4.5-3.06,9.54-5.94,10.62-5.57,10.48-8S459.1,349.94,452.26,350.05Z" transform="translate(-111.75 -182)"/></g></g></svg>