<svg id="Layer_1" data-name="Layer 1" xmlns="http://www.w3.org/2000/svg" width="306.54" height="993.7" viewBox="0 0 306.54 993.7"><defs><style>.cls-1{fill:#ffda00;}.cls-2{fill:#ffc200;}</style></defs><title>Surfing-Board</title><ellipse class="cls-1" cx="447.31" cy="542.85" rx="500.5" ry="140.82" transform="translate(-441.54 872.33) rotate(-82.77)"/><ellipse class="cls-2" cx="447.31" cy="542.85" rx="500.5" ry="117.43" transform="matrix(0.13, -0.99, 0.99, 0.13, -441.54, 872.33)"/><circle class="cls-1" cx="71.12" cy="672.28" r="16.43"/><circle class="cls-1" cx="87.55" cy="520.51" r="16.43"/><circle class="cls-1" cx="143.88" cy="455.34" r="16.43"/><circle class="cls-1" cx="244.02" cy="278.77" r="16.43"/><path class="cls-1" d="M470.78,267.66a16.43,16.43,0,1,1-16.43-16.43A16.43,16.43,0,0,1,470.78,267.66Z" transform="translate(-294.04 -46)"/><circle class="cls-1" cx="227.59" cy="71.45" r="16.43"/><circle class="cls-1" cx="200.19" cy="349.73" r="16.43"/><circle class="cls-1" cx="103.98" cy="333.3" r="16.43"/><circle class="cls-1" cx="143.88" cy="605" r="16.43"/><circle class="cls-1" cx="153.81" cy="125.65" r="16.43"/><circle class="cls-1" cx="200.19" cy="488.2" r="16.43"/><circle class="cls-1" cx="200.19" cy="742.69" r="16.43"/></svg>