<svg id="Layer_1" data-name="Layer 1" xmlns="http://www.w3.org/2000/svg" width="1859.23" height="178.68" viewBox="0 0 1859.23 178.68"><defs><style>.cls-1{fill:#1fd9dd;}</style></defs><title>Water-Effect</title><path class="cls-1" d="M602.22,591.83c11.84.89,23.6-4,34.91-6.9,13.24-3.35,25.67-4.38,39.2-2,12.09,2.09,23.51,6.58,35.88,7.42,11.1.76,22.48-.65,31.33-7.82a2.88,2.88,0,0,0-3-4.9c-22.3,10.16-46.54,2.82-69.57.22a82,82,0,0,0-34.15,3.47c-11.53,3.58-23,6.93-34.63,10.15a.21.21,0,0,0,.06.41Z" transform="translate(-35.77 -529.43)"/><path class="cls-1" d="M897.61,606.55c12.71-4.43,26.06-6.38,39.27-8.73a216.41,216.41,0,0,1,41.37-3.23,206.26,206.26,0,0,1,40.31,4.77c12.81,2.76,25.45,5.8,37.59-.77,2.71-1.46.68-5.67-2.18-4.84-13.15,3.85-27.13-.72-40.12-3.07a206.4,206.4,0,0,0-40.24-3.24,200.1,200.1,0,0,0-39.24,4.64c-13,2.84-24.93,8.61-36.87,14.24-.13.06,0,.28.11.23Z" transform="translate(-35.77 -529.43)"/><path class="cls-1" d="M1118,603.18c6.59-1.7,13.21-2.89,19.87-4.25s13.06-3.48,19.65-5c13-2.93,26.29-4.68,39.65-3.78,23.7,1.59,51.08,12.84,73.69.86,1.17-.62.61-2.81-.78-2.6a131.49,131.49,0,0,1-38.51-.1c-12.51-1.76-24.92-4.41-37.57-4.9a139,139,0,0,0-38.35,4.36c-6.51,1.6-13.18,3.26-19.36,5.89s-12.33,5.82-18.59,8.5a.52.52,0,0,0,.3,1Z" transform="translate(-35.77 -529.43)"/><path class="cls-1" d="M1329,555.33c14.19,2.74,28.27-2.21,42.36-3.65,14.65-1.49,28.48,4.77,43.05,4,14.4-.76,27.74-7.95,42.25-7.62,14.2.32,29,7.9,43.12,4.39,3-.74,1.9-4.83-.81-5a178.78,178.78,0,0,1-22.58-2.8c-6.56-1.33-13.16-2.72-19.88-2.88-14.57-.35-27.86,6.82-42.26,7.57s-28.38-5.45-43-3.84c-14.36,1.58-27.76,7.89-42.17,9.5-.19,0-.26.32,0,.36Z" transform="translate(-35.77 -529.43)"/><path class="cls-1" d="M1518,565.75c7.62,2.07,15.61.23,23-2.1,10.06-3.19,18.92-5.51,29.59-3.8,9,1.44,17.7,4.18,26.81,4.7,7,.4,16.8-.12,21.86-5.69a1.8,1.8,0,0,0-1.81-3c-4,1.2-7.42,3.13-11.59,3.7a48.32,48.32,0,0,1-12.6-.15c-8.76-1.14-17.26-3.8-26.06-4.64-8.6-.83-16.06.91-24.07,3.86-8.32,3.08-15.92,7.07-25,6.66-.24,0-.27.35,0,.41Z" transform="translate(-35.77 -529.43)"/><path class="cls-1" d="M1667.23,530.05c9.5,1.24,19.06,1.82,28.64,2.28l14.57.72c4.62.22,9.75,1.07,14.32.26,1.24-.23,1-2.08-.06-2.36-4.31-1.13-9.34-.67-13.77-.8l-14.57-.43c-9.71-.29-19.4-.48-29.1,0-.17,0-.22.28,0,.31Z" transform="translate(-35.77 -529.43)"/><path class="cls-1" d="M561.37,556.61c7.15-.61,13.66-3.37,21-2.81,7.56.58,14.51,4.19,22.15,4.21,7.44,0,15.07-2,22.36-3.24l11.32-2c4.23-.75,8.81-1.14,12.77-2.85a.81.81,0,0,0-.25-1.57c-4.3-.33-8.76.81-13,1.48l-13,2.06c-7.93,1.26-16.36,3.7-24.4,2.43-7.15-1.12-13.58-4-21-3.89-6.25.07-13.72,1.06-18.18,5.85a.21.21,0,0,0,.16.35Z" transform="translate(-35.77 -529.43)"/><path class="cls-1" d="M642.7,698c14.59-8.16,30.11-11.28,46.72-10.11,17.68,1.24,34.21,5.08,51.22,9.86,16.09,4.51,32.43,10.43,49,4.84,7.71-2.59,15.06-6.05,22.89-8.37a143.56,143.56,0,0,1,24.28-5,153.68,153.68,0,0,1,28.29-.61c9.36.67,18.45,2.62,27.85,2.88,2.93.09,3.85-4.17,1.34-5.5-14.61-7.71-33.36-7.9-49.54-6.9a158.18,158.18,0,0,0-49.63,11.38c-8.05,3.26-15.77,6.09-24.62,5.17-9.13-1-18.07-4-27-6.24-16.77-4.19-34.78-8.16-52.17-7.62A110.79,110.79,0,0,0,666.08,686a69.15,69.15,0,0,0-23.79,11.36.39.39,0,0,0,.41.66Z" transform="translate(-35.77 -529.43)"/><path class="cls-1" d="M868.87,667c8.66-1.25,17.42-2.63,26.2-1.94,9.23.73,18.37,3.17,27.23,5.74s17.8,5.42,27,7a140.11,140.11,0,0,0,30.41,1.67c20.35-.93,40.39-5.1,60.7-6.43,18.36-1.2,36.53,1.24,54.86,1.79a124.65,124.65,0,0,0,28.54-2,54.86,54.86,0,0,0,13-4.35c4.53-2.2,7.62-5.2,11.45-8.34,2.6-2.14-.91-6.25-3.67-4.52-6.88,4.3-16.26,6.7-24.18,8.24-8.11,1.58-16.5,1.72-24.74,1.51-18-.45-35.91-2.88-54-1.8-20.33,1.21-40.37,5.32-60.71,6.59a131.51,131.51,0,0,1-30.26-1.17c-9.17-1.56-18.23-3.85-27.28-6-16.92-4-40.65-10.36-55.13,2.79a.68.68,0,0,0,.51,1.14Z" transform="translate(-35.77 -529.43)"/><path class="cls-1" d="M1279.4,672.29c3.69-1.89,7.82-2.79,11.68-4.26s7.93-3,12-4.35a231.07,231.07,0,0,1,22.47-6.87,146.39,146.39,0,0,1,48-3.14c17.44,1.75,34.52,6.09,52,8A126.77,126.77,0,0,0,1451,662c9-.87,17.89-2.7,26.84-4a210.5,210.5,0,0,1,30.4-2.25c4.83,0,9.63.26,14.45.5,5.41.26,10.57-.7,15.91-.73,2.41,0,2.65-3.43.45-4.09-4.42-1.32-8.32-3.27-13-3.82a139.71,139.71,0,0,0-14-.84,208.59,208.59,0,0,0-27.26,1.3c-18.24,2.08-35.8,6.51-54.3,5.11-17.93-1.36-35.44-6-53.31-7.88a155.73,155.73,0,0,0-49.19,2.59,125.68,125.68,0,0,0-25.35,8.05,106.53,106.53,0,0,0-12.4,6.8c-4.14,2.58-7.31,6.14-11.15,9.07a.28.28,0,0,0,.3.48Z" transform="translate(-35.77 -529.43)"/><path class="cls-1" d="M1635.44,613.69c10.63,3.59,22.06,3,33.1,2.4a104.86,104.86,0,0,1,18.33.14,93.07,93.07,0,0,1,15.86,3.76c10.33,3.17,20.46,6.16,31.35,6.52a78.75,78.75,0,0,0,15.71-1.09,47.5,47.5,0,0,0,8.5-2.23c2.6-1,4.68-2.6,7.07-4s.54-4.56-1.84-4.08c-2.69.54-5.4.51-8.11,1.06s-5.57,1-8.35,1.47a80.75,80.75,0,0,1-15.38.79c-10.86-.48-21-4.09-31.49-6.7a86.65,86.65,0,0,0-31-1.82c-11.24,1.24-22.22,3.46-33.58,2.47-.78-.07-.79,1.06-.14,1.28Z" transform="translate(-35.77 -529.43)"/><path class="cls-1" d="M1828.42,572.66c10.53-1.94,21.28-4.13,32-4.52,5-.18,10.21,0,15.26.23,5.33.24,10.49,1.11,15.85,1,4.15-.1,4.78-6.15.79-7.21-10.38-2.78-21.7-.24-31.91,2.13-10.76,2.5-21.44,5.12-32.11,8-.26.08-.13.45.12.4Z" transform="translate(-35.77 -529.43)"/><path class="cls-1" d="M554.17,660.33c-6.52-2.91-12.3-5.9-19.51-6.73a100.86,100.86,0,0,0-19.81-.14c-14.34,1.17-28.29,4.64-42.27,7.83-7.31,1.67-14.68,3.84-22.24,2.85-7.29-.95-14-4.06-21.07-5.78a44.3,44.3,0,0,0-17.11-1.08,18.62,18.62,0,0,0-7.63,2.63c-2.64,1.78-3.62,4-5.29,6.52-1.08,1.64,1.16,3.65,2.73,2.6,2.12-1.42,5.57-1.9,8.06-2.54a32.14,32.14,0,0,1,8.4-1.12c5.87,0,11.71,1.71,17.36,3.12,5.94,1.48,12,2.91,18.12,2.74,6.7-.18,13.28-2.15,19.7-3.91,13.07-3.6,26.38-6.91,39.89-8.34a109.4,109.4,0,0,1,19.15-.46c7,.48,14.56.47,21.24,2.53.42.13.69-.54.28-.72Z" transform="translate(-35.77 -529.43)"/><path class="cls-1" d="M44.65,582.24a64,64,0,0,1,44.54-5.5c11.11,2.83,28.61,8.8,33.92-6,.68-1.88-2-3-3.21-1.76-4.51,4.45-11.93,5.08-17.83,3.93-7.25-1.42-14.07-4-21.52-4.44-13.82-.81-26.21,3.94-36.72,12.78-.59.49.2,1.33.82,1Z" transform="translate(-35.77 -529.43)"/><path class="cls-1" d="M141,546.44a52.28,52.28,0,0,1,18.92-2.87c6.76.34,12.57,3,19.09,4.28,5.92,1.16,11.34-.54,17-2.25,6.72-2,13.47-3.86,19.92-6.63a.8.8,0,0,0-.46-1.54c-7.13,1.34-14,3.71-20.92,5.83-3.48,1.06-7.05,2.33-10.71,2.52-3.38.17-6.53-.72-9.74-1.63-11.15-3.17-22.67-3.32-33.28,1.82-.27.13-.07.56.21.47Z" transform="translate(-35.77 -529.43)"/><path class="cls-1" d="M36.18,540.88c6.71-8.35,19.1-4.78,27.76-2.3,8.5,2.43,19,4.51,25.63-2.89a1.32,1.32,0,0,0-1.92-1.82c-7.77,7.6-20.13,2.87-29.24,1.13-7.9-1.51-17.62-1.92-22.61,5.61-.14.22.21.48.38.27Z" transform="translate(-35.77 -529.43)"/><path class="cls-1" d="M544.1,700.14c11-6.44,23.18.07,33.75,4.15,9.3,3.6,23.14,6.92,31-1.24,1.36-1.41-.13-4.32-2.13-3.46a28.8,28.8,0,0,1-15.2,2.46c-5.77-.66-11.51-2.44-17.16-3.72-9.94-2.24-21.56-5.11-30.44,1.59a.13.13,0,0,0,.14.22Z" transform="translate(-35.77 -529.43)"/><path class="cls-1" d="M686.13,640.73c5.51-4.1,13.11-3.91,19.75-3.86,7.89.06,15.65,2.29,23.41,3.54,7.93,1.27,15.87,1.64,23.7-.49a54.27,54.27,0,0,0,10.51-4.06c3.48-1.79,5.83-4,8.59-6.7,1.79-1.74-.23-4.41-2.4-3.89a56.37,56.37,0,0,0-10.61,3.43,52.85,52.85,0,0,1-11.31,3.94c-8.59,1.71-17.53-.11-26-1.29-6.7-.92-13.93-1.49-20.6-.12-6.15,1.26-10.81,4.87-15.25,9.18-.16.16.07.46.26.32Z" transform="translate(-35.77 -529.43)"/></svg>